%TF.GenerationSoftware,KiCad,Pcbnew,(6.0.7-1)-1*%
%TF.CreationDate,2022-09-07T09:45:08+02:00*%
%TF.ProjectId,BattleBits_V4,42617474-6c65-4426-9974-735f56342e6b,rev?*%
%TF.SameCoordinates,Original*%
%TF.FileFunction,Other,User*%
%FSLAX46Y46*%
G04 Gerber Fmt 4.6, Leading zero omitted, Abs format (unit mm)*
G04 Created by KiCad (PCBNEW (6.0.7-1)-1) date 2022-09-07 09:45:08*
%MOMM*%
%LPD*%
G01*
G04 APERTURE LIST*
%ADD10C,0.113792*%
%ADD11C,0.012000*%
%ADD12C,0.038893*%
G04 APERTURE END LIST*
D10*
X132582855Y-161521726D02*
X133206002Y-161957929D01*
X132582855Y-162269502D02*
X133891463Y-162269502D01*
X133891463Y-161770985D01*
X133829149Y-161646356D01*
X133766834Y-161584041D01*
X133642205Y-161521726D01*
X133455261Y-161521726D01*
X133330631Y-161584041D01*
X133268317Y-161646356D01*
X133206002Y-161770985D01*
X133206002Y-162269502D01*
X132645170Y-160462377D02*
X132582855Y-160587006D01*
X132582855Y-160836265D01*
X132645170Y-160960894D01*
X132769799Y-161023209D01*
X133268317Y-161023209D01*
X133392946Y-160960894D01*
X133455261Y-160836265D01*
X133455261Y-160587006D01*
X133392946Y-160462377D01*
X133268317Y-160400062D01*
X133143687Y-160400062D01*
X133019058Y-161023209D01*
X132582855Y-159278398D02*
X133891463Y-159278398D01*
X132645170Y-159278398D02*
X132582855Y-159403028D01*
X132582855Y-159652286D01*
X132645170Y-159776916D01*
X132707485Y-159839230D01*
X132832114Y-159901545D01*
X133206002Y-159901545D01*
X133330631Y-159839230D01*
X133392946Y-159776916D01*
X133455261Y-159652286D01*
X133455261Y-159403028D01*
X133392946Y-159278398D01*
X133455261Y-157782846D02*
X132582855Y-157533588D01*
X133206002Y-157284329D01*
X132582855Y-157035070D01*
X133455261Y-156785812D01*
X132582855Y-156287294D02*
X133455261Y-156287294D01*
X133891463Y-156287294D02*
X133829149Y-156349609D01*
X133766834Y-156287294D01*
X133829149Y-156224980D01*
X133891463Y-156287294D01*
X133766834Y-156287294D01*
X132582855Y-155664148D02*
X133455261Y-155664148D01*
X133206002Y-155664148D02*
X133330631Y-155601833D01*
X133392946Y-155539518D01*
X133455261Y-155414889D01*
X133455261Y-155290260D01*
X132645170Y-154355540D02*
X132582855Y-154480169D01*
X132582855Y-154729428D01*
X132645170Y-154854057D01*
X132769799Y-154916372D01*
X133268317Y-154916372D01*
X133392946Y-154854057D01*
X133455261Y-154729428D01*
X133455261Y-154480169D01*
X133392946Y-154355540D01*
X133268317Y-154293225D01*
X133143687Y-154293225D01*
X133019058Y-154916372D01*
X130734043Y-161910096D02*
X130671728Y-161723152D01*
X130609413Y-161660837D01*
X130484784Y-161598522D01*
X130297840Y-161598522D01*
X130173211Y-161660837D01*
X130110896Y-161723152D01*
X130048581Y-161847781D01*
X130048581Y-162346298D01*
X131357189Y-162346298D01*
X131357189Y-161910096D01*
X131294875Y-161785466D01*
X131232560Y-161723152D01*
X131107931Y-161660837D01*
X130983301Y-161660837D01*
X130858672Y-161723152D01*
X130796357Y-161785466D01*
X130734043Y-161910096D01*
X130734043Y-162346298D01*
X130048581Y-160850746D02*
X130110896Y-160975376D01*
X130235525Y-161037690D01*
X131357189Y-161037690D01*
X130048581Y-159791397D02*
X130734043Y-159791397D01*
X130858672Y-159853712D01*
X130920987Y-159978341D01*
X130920987Y-160227600D01*
X130858672Y-160352229D01*
X130110896Y-159791397D02*
X130048581Y-159916026D01*
X130048581Y-160227600D01*
X130110896Y-160352229D01*
X130235525Y-160414544D01*
X130360155Y-160414544D01*
X130484784Y-160352229D01*
X130547099Y-160227600D01*
X130547099Y-159916026D01*
X130609413Y-159791397D01*
X130110896Y-158607418D02*
X130048581Y-158732048D01*
X130048581Y-158981306D01*
X130110896Y-159105936D01*
X130173211Y-159168250D01*
X130297840Y-159230565D01*
X130671728Y-159230565D01*
X130796357Y-159168250D01*
X130858672Y-159105936D01*
X130920987Y-158981306D01*
X130920987Y-158732048D01*
X130858672Y-158607418D01*
X130048581Y-158046586D02*
X131357189Y-158046586D01*
X130547099Y-157921957D02*
X130048581Y-157548069D01*
X130920987Y-157548069D02*
X130422469Y-158046586D01*
X130920987Y-156114832D02*
X130048581Y-155865573D01*
X130671728Y-155616314D01*
X130048581Y-155367056D01*
X130920987Y-155117797D01*
X130048581Y-154619280D02*
X130920987Y-154619280D01*
X131357189Y-154619280D02*
X131294875Y-154681594D01*
X131232560Y-154619280D01*
X131294875Y-154556965D01*
X131357189Y-154619280D01*
X131232560Y-154619280D01*
X130048581Y-153996133D02*
X130920987Y-153996133D01*
X130671728Y-153996133D02*
X130796357Y-153933818D01*
X130858672Y-153871504D01*
X130920987Y-153746874D01*
X130920987Y-153622245D01*
X130110896Y-152687525D02*
X130048581Y-152812154D01*
X130048581Y-153061413D01*
X130110896Y-153186042D01*
X130235525Y-153248357D01*
X130734043Y-153248357D01*
X130858672Y-153186042D01*
X130920987Y-153061413D01*
X130920987Y-152812154D01*
X130858672Y-152687525D01*
X130734043Y-152625210D01*
X130609413Y-152625210D01*
X130484784Y-153248357D01*
X118994461Y-61763967D02*
X118994461Y-60455359D01*
X118994461Y-60953876D02*
X118869832Y-60891562D01*
X118620573Y-60891562D01*
X118495944Y-60953876D01*
X118433629Y-61016191D01*
X118371315Y-61140820D01*
X118371315Y-61514708D01*
X118433629Y-61639338D01*
X118495944Y-61701652D01*
X118620573Y-61763967D01*
X118869832Y-61763967D01*
X118994461Y-61701652D01*
X117249651Y-61763967D02*
X117249651Y-61078506D01*
X117311965Y-60953876D01*
X117436595Y-60891562D01*
X117685853Y-60891562D01*
X117810483Y-60953876D01*
X117249651Y-61701652D02*
X117374280Y-61763967D01*
X117685853Y-61763967D01*
X117810483Y-61701652D01*
X117872797Y-61577023D01*
X117872797Y-61452394D01*
X117810483Y-61327764D01*
X117685853Y-61265450D01*
X117374280Y-61265450D01*
X117249651Y-61203135D01*
X116813448Y-60891562D02*
X116314931Y-60891562D01*
X116626504Y-60455359D02*
X116626504Y-61577023D01*
X116564189Y-61701652D01*
X116439560Y-61763967D01*
X116314931Y-61763967D01*
X116065672Y-60891562D02*
X115567155Y-60891562D01*
X115878728Y-60455359D02*
X115878728Y-61577023D01*
X115816413Y-61701652D01*
X115691784Y-61763967D01*
X115567155Y-61763967D01*
X114944008Y-61763967D02*
X115068637Y-61701652D01*
X115130952Y-61577023D01*
X115130952Y-60455359D01*
X113946973Y-61701652D02*
X114071603Y-61763967D01*
X114320861Y-61763967D01*
X114445491Y-61701652D01*
X114507805Y-61577023D01*
X114507805Y-61078506D01*
X114445491Y-60953876D01*
X114320861Y-60891562D01*
X114071603Y-60891562D01*
X113946973Y-60953876D01*
X113884659Y-61078506D01*
X113884659Y-61203135D01*
X114507805Y-61327764D01*
X113323827Y-61763967D02*
X113323827Y-60455359D01*
X113323827Y-60953876D02*
X113199197Y-60891562D01*
X112949939Y-60891562D01*
X112825309Y-60953876D01*
X112762995Y-61016191D01*
X112700680Y-61140820D01*
X112700680Y-61514708D01*
X112762995Y-61639338D01*
X112825309Y-61701652D01*
X112949939Y-61763967D01*
X113199197Y-61763967D01*
X113323827Y-61701652D01*
X112139848Y-61763967D02*
X112139848Y-60891562D01*
X112139848Y-60455359D02*
X112202163Y-60517674D01*
X112139848Y-60579988D01*
X112077533Y-60517674D01*
X112139848Y-60455359D01*
X112139848Y-60579988D01*
X111703645Y-60891562D02*
X111205128Y-60891562D01*
X111516701Y-60455359D02*
X111516701Y-61577023D01*
X111454387Y-61701652D01*
X111329757Y-61763967D01*
X111205128Y-61763967D01*
X110831240Y-61701652D02*
X110706611Y-61763967D01*
X110457352Y-61763967D01*
X110332723Y-61701652D01*
X110270408Y-61577023D01*
X110270408Y-61514708D01*
X110332723Y-61390079D01*
X110457352Y-61327764D01*
X110644296Y-61327764D01*
X110768925Y-61265450D01*
X110831240Y-61140820D01*
X110831240Y-61078506D01*
X110768925Y-60953876D01*
X110644296Y-60891562D01*
X110457352Y-60891562D01*
X110332723Y-60953876D01*
X109709576Y-61639338D02*
X109647261Y-61701652D01*
X109709576Y-61763967D01*
X109771891Y-61701652D01*
X109709576Y-61639338D01*
X109709576Y-61763967D01*
X108899485Y-61763967D02*
X109024115Y-61701652D01*
X109086429Y-61639338D01*
X109148744Y-61514708D01*
X109148744Y-61140820D01*
X109086429Y-61016191D01*
X109024115Y-60953876D01*
X108899485Y-60891562D01*
X108712541Y-60891562D01*
X108587912Y-60953876D01*
X108525597Y-61016191D01*
X108463283Y-61140820D01*
X108463283Y-61514708D01*
X108525597Y-61639338D01*
X108587912Y-61701652D01*
X108712541Y-61763967D01*
X108899485Y-61763967D01*
X107902451Y-61763967D02*
X107902451Y-60891562D01*
X107902451Y-61140820D02*
X107840136Y-61016191D01*
X107777821Y-60953876D01*
X107653192Y-60891562D01*
X107528563Y-60891562D01*
X106531528Y-60891562D02*
X106531528Y-61950911D01*
X106593843Y-62075540D01*
X106656157Y-62137855D01*
X106780787Y-62200170D01*
X106967731Y-62200170D01*
X107092360Y-62137855D01*
X106531528Y-61701652D02*
X106656157Y-61763967D01*
X106905416Y-61763967D01*
X107030045Y-61701652D01*
X107092360Y-61639338D01*
X107154675Y-61514708D01*
X107154675Y-61140820D01*
X107092360Y-61016191D01*
X107030045Y-60953876D01*
X106905416Y-60891562D01*
X106656157Y-60891562D01*
X106531528Y-60953876D01*
X118994461Y-62998421D02*
X118994461Y-64120085D01*
X119056776Y-64244714D01*
X119181405Y-64307029D01*
X119243720Y-64307029D01*
X118994461Y-62562218D02*
X119056776Y-62624533D01*
X118994461Y-62686847D01*
X118932147Y-62624533D01*
X118994461Y-62562218D01*
X118994461Y-62686847D01*
X117872797Y-63808511D02*
X117997427Y-63870826D01*
X118246685Y-63870826D01*
X118371315Y-63808511D01*
X118433629Y-63683882D01*
X118433629Y-63185365D01*
X118371315Y-63060735D01*
X118246685Y-62998421D01*
X117997427Y-62998421D01*
X117872797Y-63060735D01*
X117810483Y-63185365D01*
X117810483Y-63309994D01*
X118433629Y-63434623D01*
X117062707Y-63870826D02*
X117187336Y-63808511D01*
X117249651Y-63683882D01*
X117249651Y-62562218D01*
X116377245Y-63870826D02*
X116501875Y-63808511D01*
X116564189Y-63683882D01*
X116564189Y-62562218D01*
X115380211Y-63808511D02*
X115504840Y-63870826D01*
X115754099Y-63870826D01*
X115878728Y-63808511D01*
X115941043Y-63683882D01*
X115941043Y-63185365D01*
X115878728Y-63060735D01*
X115754099Y-62998421D01*
X115504840Y-62998421D01*
X115380211Y-63060735D01*
X115317896Y-63185365D01*
X115317896Y-63309994D01*
X115941043Y-63434623D01*
X114757064Y-63870826D02*
X114757064Y-62998421D01*
X114757064Y-63247679D02*
X114694749Y-63123050D01*
X114632435Y-63060735D01*
X114507805Y-62998421D01*
X114383176Y-62998421D01*
X113448456Y-63808511D02*
X113573085Y-63870826D01*
X113822344Y-63870826D01*
X113946973Y-63808511D01*
X114009288Y-63683882D01*
X114009288Y-63185365D01*
X113946973Y-63060735D01*
X113822344Y-62998421D01*
X113573085Y-62998421D01*
X113448456Y-63060735D01*
X113386141Y-63185365D01*
X113386141Y-63309994D01*
X114009288Y-63434623D01*
X112825309Y-63870826D02*
X112825309Y-62998421D01*
X112825309Y-62562218D02*
X112887624Y-62624533D01*
X112825309Y-62686847D01*
X112762995Y-62624533D01*
X112825309Y-62562218D01*
X112825309Y-62686847D01*
X112389107Y-62998421D02*
X111890589Y-62998421D01*
X112202163Y-62562218D02*
X112202163Y-63683882D01*
X112139848Y-63808511D01*
X112015219Y-63870826D01*
X111890589Y-63870826D01*
X111454387Y-63870826D02*
X111454387Y-62562218D01*
X110893555Y-63870826D02*
X110893555Y-63185365D01*
X110955869Y-63060735D01*
X111080499Y-62998421D01*
X111267443Y-62998421D01*
X111392072Y-63060735D01*
X111454387Y-63123050D01*
X110270408Y-63746197D02*
X110208093Y-63808511D01*
X110270408Y-63870826D01*
X110332723Y-63808511D01*
X110270408Y-63746197D01*
X110270408Y-63870826D01*
X109647261Y-62998421D02*
X109647261Y-63870826D01*
X109647261Y-63123050D02*
X109584947Y-63060735D01*
X109460317Y-62998421D01*
X109273373Y-62998421D01*
X109148744Y-63060735D01*
X109086429Y-63185365D01*
X109086429Y-63870826D01*
X108276339Y-63870826D02*
X108400968Y-63808511D01*
X108463283Y-63683882D01*
X108463283Y-62562218D01*
X118994461Y-65977685D02*
X118994461Y-65105280D01*
X118994461Y-64669077D02*
X119056776Y-64731392D01*
X118994461Y-64793706D01*
X118932147Y-64731392D01*
X118994461Y-64669077D01*
X118994461Y-64793706D01*
X118371315Y-65977685D02*
X118371315Y-64669077D01*
X118371315Y-65167594D02*
X118246685Y-65105280D01*
X117997427Y-65105280D01*
X117872797Y-65167594D01*
X117810483Y-65229909D01*
X117748168Y-65354538D01*
X117748168Y-65728426D01*
X117810483Y-65853056D01*
X117872797Y-65915370D01*
X117997427Y-65977685D01*
X118246685Y-65977685D01*
X118371315Y-65915370D01*
X117000392Y-65977685D02*
X117125021Y-65915370D01*
X117187336Y-65853056D01*
X117249651Y-65728426D01*
X117249651Y-65354538D01*
X117187336Y-65229909D01*
X117125021Y-65167594D01*
X117000392Y-65105280D01*
X116813448Y-65105280D01*
X116688819Y-65167594D01*
X116626504Y-65229909D01*
X116564189Y-65354538D01*
X116564189Y-65728426D01*
X116626504Y-65853056D01*
X116688819Y-65915370D01*
X116813448Y-65977685D01*
X117000392Y-65977685D01*
X116003357Y-65977685D02*
X116003357Y-65105280D01*
X116003357Y-64669077D02*
X116065672Y-64731392D01*
X116003357Y-64793706D01*
X115941043Y-64731392D01*
X116003357Y-64669077D01*
X116003357Y-64793706D01*
X115380211Y-65977685D02*
X115380211Y-64669077D01*
X115380211Y-65167594D02*
X115255581Y-65105280D01*
X115006323Y-65105280D01*
X114881693Y-65167594D01*
X114819379Y-65229909D01*
X114757064Y-65354538D01*
X114757064Y-65728426D01*
X114819379Y-65853056D01*
X114881693Y-65915370D01*
X115006323Y-65977685D01*
X115255581Y-65977685D01*
X115380211Y-65915370D01*
X113697715Y-65915370D02*
X113822344Y-65977685D01*
X114071603Y-65977685D01*
X114196232Y-65915370D01*
X114258547Y-65790741D01*
X114258547Y-65292224D01*
X114196232Y-65167594D01*
X114071603Y-65105280D01*
X113822344Y-65105280D01*
X113697715Y-65167594D01*
X113635400Y-65292224D01*
X113635400Y-65416853D01*
X114258547Y-65541482D01*
X112887624Y-65977685D02*
X113012253Y-65915370D01*
X113074568Y-65790741D01*
X113074568Y-64669077D01*
X112389107Y-65977685D02*
X112389107Y-65105280D01*
X112389107Y-64669077D02*
X112451421Y-64731392D01*
X112389107Y-64793706D01*
X112326792Y-64731392D01*
X112389107Y-64669077D01*
X112389107Y-64793706D01*
X111765960Y-65105280D02*
X111765960Y-65977685D01*
X111765960Y-65229909D02*
X111703645Y-65167594D01*
X111579016Y-65105280D01*
X111392072Y-65105280D01*
X111267443Y-65167594D01*
X111205128Y-65292224D01*
X111205128Y-65977685D01*
X110021149Y-65105280D02*
X110021149Y-66164629D01*
X110083464Y-66289258D01*
X110145779Y-66351573D01*
X110270408Y-66413888D01*
X110457352Y-66413888D01*
X110581981Y-66351573D01*
X110021149Y-65915370D02*
X110145779Y-65977685D01*
X110395037Y-65977685D01*
X110519667Y-65915370D01*
X110581981Y-65853056D01*
X110644296Y-65728426D01*
X110644296Y-65354538D01*
X110581981Y-65229909D01*
X110519667Y-65167594D01*
X110395037Y-65105280D01*
X110145779Y-65105280D01*
X110021149Y-65167594D01*
X109460317Y-65915370D02*
X109335688Y-65977685D01*
X109086429Y-65977685D01*
X108961800Y-65915370D01*
X108899485Y-65790741D01*
X108899485Y-65728426D01*
X108961800Y-65603797D01*
X109086429Y-65541482D01*
X109273373Y-65541482D01*
X109398003Y-65479168D01*
X109460317Y-65354538D01*
X109460317Y-65292224D01*
X109398003Y-65167594D01*
X109273373Y-65105280D01*
X109086429Y-65105280D01*
X108961800Y-65167594D01*
X108338653Y-65853056D02*
X108276339Y-65915370D01*
X108338653Y-65977685D01*
X108400968Y-65915370D01*
X108338653Y-65853056D01*
X108338653Y-65977685D01*
X107715507Y-65105280D02*
X107715507Y-65977685D01*
X107715507Y-65229909D02*
X107653192Y-65167594D01*
X107528563Y-65105280D01*
X107341619Y-65105280D01*
X107216989Y-65167594D01*
X107154675Y-65292224D01*
X107154675Y-65977685D01*
X106344584Y-65977685D02*
X106469213Y-65915370D01*
X106531528Y-65790741D01*
X106531528Y-64669077D01*
X147987222Y-75814461D02*
X149295830Y-75814461D01*
X148797313Y-75814461D02*
X148859628Y-75689832D01*
X148859628Y-75440573D01*
X148797313Y-75315944D01*
X148734998Y-75253629D01*
X148610369Y-75191315D01*
X148236481Y-75191315D01*
X148111852Y-75253629D01*
X148049537Y-75315944D01*
X147987222Y-75440573D01*
X147987222Y-75689832D01*
X148049537Y-75814461D01*
X147987222Y-74069651D02*
X148672684Y-74069651D01*
X148797313Y-74131965D01*
X148859628Y-74256595D01*
X148859628Y-74505853D01*
X148797313Y-74630483D01*
X148049537Y-74069651D02*
X147987222Y-74194280D01*
X147987222Y-74505853D01*
X148049537Y-74630483D01*
X148174166Y-74692797D01*
X148298796Y-74692797D01*
X148423425Y-74630483D01*
X148485740Y-74505853D01*
X148485740Y-74194280D01*
X148548054Y-74069651D01*
X148859628Y-73633448D02*
X148859628Y-73134931D01*
X149295830Y-73446504D02*
X148174166Y-73446504D01*
X148049537Y-73384189D01*
X147987222Y-73259560D01*
X147987222Y-73134931D01*
X148859628Y-72885672D02*
X148859628Y-72387155D01*
X149295830Y-72698728D02*
X148174166Y-72698728D01*
X148049537Y-72636413D01*
X147987222Y-72511784D01*
X147987222Y-72387155D01*
X147987222Y-71764008D02*
X148049537Y-71888637D01*
X148174166Y-71950952D01*
X149295830Y-71950952D01*
X148049537Y-70766973D02*
X147987222Y-70891603D01*
X147987222Y-71140861D01*
X148049537Y-71265491D01*
X148174166Y-71327805D01*
X148672684Y-71327805D01*
X148797313Y-71265491D01*
X148859628Y-71140861D01*
X148859628Y-70891603D01*
X148797313Y-70766973D01*
X148672684Y-70704659D01*
X148548054Y-70704659D01*
X148423425Y-71327805D01*
X147987222Y-70143827D02*
X149295830Y-70143827D01*
X148797313Y-70143827D02*
X148859628Y-70019197D01*
X148859628Y-69769939D01*
X148797313Y-69645309D01*
X148734998Y-69582995D01*
X148610369Y-69520680D01*
X148236481Y-69520680D01*
X148111852Y-69582995D01*
X148049537Y-69645309D01*
X147987222Y-69769939D01*
X147987222Y-70019197D01*
X148049537Y-70143827D01*
X147987222Y-68959848D02*
X148859628Y-68959848D01*
X149295830Y-68959848D02*
X149233516Y-69022163D01*
X149171201Y-68959848D01*
X149233516Y-68897533D01*
X149295830Y-68959848D01*
X149171201Y-68959848D01*
X148859628Y-68523645D02*
X148859628Y-68025128D01*
X149295830Y-68336701D02*
X148174166Y-68336701D01*
X148049537Y-68274387D01*
X147987222Y-68149757D01*
X147987222Y-68025128D01*
X148049537Y-67651240D02*
X147987222Y-67526611D01*
X147987222Y-67277352D01*
X148049537Y-67152723D01*
X148174166Y-67090408D01*
X148236481Y-67090408D01*
X148361110Y-67152723D01*
X148423425Y-67277352D01*
X148423425Y-67464296D01*
X148485740Y-67588925D01*
X148610369Y-67651240D01*
X148672684Y-67651240D01*
X148797313Y-67588925D01*
X148859628Y-67464296D01*
X148859628Y-67277352D01*
X148797313Y-67152723D01*
X148111852Y-66529576D02*
X148049537Y-66467261D01*
X147987222Y-66529576D01*
X148049537Y-66591891D01*
X148111852Y-66529576D01*
X147987222Y-66529576D01*
X147987222Y-65719485D02*
X148049537Y-65844115D01*
X148111852Y-65906429D01*
X148236481Y-65968744D01*
X148610369Y-65968744D01*
X148734998Y-65906429D01*
X148797313Y-65844115D01*
X148859628Y-65719485D01*
X148859628Y-65532541D01*
X148797313Y-65407912D01*
X148734998Y-65345597D01*
X148610369Y-65283283D01*
X148236481Y-65283283D01*
X148111852Y-65345597D01*
X148049537Y-65407912D01*
X147987222Y-65532541D01*
X147987222Y-65719485D01*
X147987222Y-64722451D02*
X148859628Y-64722451D01*
X148610369Y-64722451D02*
X148734998Y-64660136D01*
X148797313Y-64597821D01*
X148859628Y-64473192D01*
X148859628Y-64348563D01*
X148859628Y-63351528D02*
X147800278Y-63351528D01*
X147675649Y-63413843D01*
X147613334Y-63476157D01*
X147551020Y-63600787D01*
X147551020Y-63787731D01*
X147613334Y-63912360D01*
X148049537Y-63351528D02*
X147987222Y-63476157D01*
X147987222Y-63725416D01*
X148049537Y-63850045D01*
X148111852Y-63912360D01*
X148236481Y-63974675D01*
X148610369Y-63974675D01*
X148734998Y-63912360D01*
X148797313Y-63850045D01*
X148859628Y-63725416D01*
X148859628Y-63476157D01*
X148797313Y-63351528D01*
X141854461Y-47793967D02*
X141854461Y-46485359D01*
X141542888Y-46485359D01*
X141355944Y-46547674D01*
X141231315Y-46672303D01*
X141169000Y-46796932D01*
X141106685Y-47046191D01*
X141106685Y-47233135D01*
X141169000Y-47482394D01*
X141231315Y-47607023D01*
X141355944Y-47731652D01*
X141542888Y-47793967D01*
X141854461Y-47793967D01*
X140047336Y-47731652D02*
X140171965Y-47793967D01*
X140421224Y-47793967D01*
X140545853Y-47731652D01*
X140608168Y-47607023D01*
X140608168Y-47108506D01*
X140545853Y-46983876D01*
X140421224Y-46921562D01*
X140171965Y-46921562D01*
X140047336Y-46983876D01*
X139985021Y-47108506D01*
X139985021Y-47233135D01*
X140608168Y-47357764D01*
X139486504Y-47731652D02*
X139361875Y-47793967D01*
X139112616Y-47793967D01*
X138987987Y-47731652D01*
X138925672Y-47607023D01*
X138925672Y-47544708D01*
X138987987Y-47420079D01*
X139112616Y-47357764D01*
X139299560Y-47357764D01*
X139424189Y-47295450D01*
X139486504Y-47170820D01*
X139486504Y-47108506D01*
X139424189Y-46983876D01*
X139299560Y-46921562D01*
X139112616Y-46921562D01*
X138987987Y-46983876D01*
X138364840Y-47793967D02*
X138364840Y-46921562D01*
X138364840Y-46485359D02*
X138427155Y-46547674D01*
X138364840Y-46609988D01*
X138302525Y-46547674D01*
X138364840Y-46485359D01*
X138364840Y-46609988D01*
X137180861Y-46921562D02*
X137180861Y-47980911D01*
X137243176Y-48105540D01*
X137305491Y-48167855D01*
X137430120Y-48230170D01*
X137617064Y-48230170D01*
X137741693Y-48167855D01*
X137180861Y-47731652D02*
X137305491Y-47793967D01*
X137554749Y-47793967D01*
X137679379Y-47731652D01*
X137741693Y-47669338D01*
X137804008Y-47544708D01*
X137804008Y-47170820D01*
X137741693Y-47046191D01*
X137679379Y-46983876D01*
X137554749Y-46921562D01*
X137305491Y-46921562D01*
X137180861Y-46983876D01*
X136557715Y-46921562D02*
X136557715Y-47793967D01*
X136557715Y-47046191D02*
X136495400Y-46983876D01*
X136370771Y-46921562D01*
X136183827Y-46921562D01*
X136059197Y-46983876D01*
X135996883Y-47108506D01*
X135996883Y-47793967D01*
X134875219Y-47731652D02*
X134999848Y-47793967D01*
X135249107Y-47793967D01*
X135373736Y-47731652D01*
X135436051Y-47607023D01*
X135436051Y-47108506D01*
X135373736Y-46983876D01*
X135249107Y-46921562D01*
X134999848Y-46921562D01*
X134875219Y-46983876D01*
X134812904Y-47108506D01*
X134812904Y-47233135D01*
X135436051Y-47357764D01*
X133691240Y-47793967D02*
X133691240Y-46485359D01*
X133691240Y-47731652D02*
X133815869Y-47793967D01*
X134065128Y-47793967D01*
X134189757Y-47731652D01*
X134252072Y-47669338D01*
X134314387Y-47544708D01*
X134314387Y-47170820D01*
X134252072Y-47046191D01*
X134189757Y-46983876D01*
X134065128Y-46921562D01*
X133815869Y-46921562D01*
X133691240Y-46983876D01*
X132071059Y-47793967D02*
X132071059Y-46485359D01*
X132071059Y-46983876D02*
X131946429Y-46921562D01*
X131697171Y-46921562D01*
X131572541Y-46983876D01*
X131510227Y-47046191D01*
X131447912Y-47170820D01*
X131447912Y-47544708D01*
X131510227Y-47669338D01*
X131572541Y-47731652D01*
X131697171Y-47793967D01*
X131946429Y-47793967D01*
X132071059Y-47731652D01*
X131011709Y-46921562D02*
X130700136Y-47793967D01*
X130388563Y-46921562D02*
X130700136Y-47793967D01*
X130824765Y-48105540D01*
X130887080Y-48167855D01*
X131011709Y-48230170D01*
X141480573Y-48592218D02*
X141480573Y-49526938D01*
X141542888Y-49713882D01*
X141667517Y-49838511D01*
X141854461Y-49900826D01*
X141979091Y-49900826D01*
X140358909Y-49838511D02*
X140483539Y-49900826D01*
X140732797Y-49900826D01*
X140857427Y-49838511D01*
X140919741Y-49713882D01*
X140919741Y-49215365D01*
X140857427Y-49090735D01*
X140732797Y-49028421D01*
X140483539Y-49028421D01*
X140358909Y-49090735D01*
X140296595Y-49215365D01*
X140296595Y-49339994D01*
X140919741Y-49464623D01*
X139548819Y-49900826D02*
X139673448Y-49838511D01*
X139735763Y-49713882D01*
X139735763Y-48592218D01*
X138863357Y-49900826D02*
X138987987Y-49838511D01*
X139050301Y-49713882D01*
X139050301Y-48592218D01*
X137866323Y-49838511D02*
X137990952Y-49900826D01*
X138240211Y-49900826D01*
X138364840Y-49838511D01*
X138427155Y-49713882D01*
X138427155Y-49215365D01*
X138364840Y-49090735D01*
X138240211Y-49028421D01*
X137990952Y-49028421D01*
X137866323Y-49090735D01*
X137804008Y-49215365D01*
X137804008Y-49339994D01*
X138427155Y-49464623D01*
X135498365Y-49900826D02*
X135934568Y-49277679D01*
X136246141Y-49900826D02*
X136246141Y-48592218D01*
X135747624Y-48592218D01*
X135622995Y-48654533D01*
X135560680Y-48716847D01*
X135498365Y-48841477D01*
X135498365Y-49028421D01*
X135560680Y-49153050D01*
X135622995Y-49215365D01*
X135747624Y-49277679D01*
X136246141Y-49277679D01*
X134439016Y-49838511D02*
X134563645Y-49900826D01*
X134812904Y-49900826D01*
X134937533Y-49838511D01*
X134999848Y-49713882D01*
X134999848Y-49215365D01*
X134937533Y-49090735D01*
X134812904Y-49028421D01*
X134563645Y-49028421D01*
X134439016Y-49090735D01*
X134376701Y-49215365D01*
X134376701Y-49339994D01*
X134999848Y-49464623D01*
X133815869Y-49900826D02*
X133815869Y-49028421D01*
X133815869Y-48592218D02*
X133878184Y-48654533D01*
X133815869Y-48716847D01*
X133753555Y-48654533D01*
X133815869Y-48592218D01*
X133815869Y-48716847D01*
X133379667Y-49028421D02*
X132881149Y-49028421D01*
X133192723Y-48592218D02*
X133192723Y-49713882D01*
X133130408Y-49838511D01*
X133005779Y-49900826D01*
X132881149Y-49900826D01*
X132444947Y-49900826D02*
X132444947Y-48592218D01*
X131884115Y-49900826D02*
X131884115Y-49215365D01*
X131946429Y-49090735D01*
X132071059Y-49028421D01*
X132258003Y-49028421D01*
X132382632Y-49090735D01*
X132444947Y-49153050D01*
X141916776Y-51945370D02*
X141729832Y-52007685D01*
X141418259Y-52007685D01*
X141293629Y-51945370D01*
X141231315Y-51883056D01*
X141169000Y-51758426D01*
X141169000Y-51633797D01*
X141231315Y-51509168D01*
X141293629Y-51446853D01*
X141418259Y-51384538D01*
X141667517Y-51322224D01*
X141792147Y-51259909D01*
X141854461Y-51197594D01*
X141916776Y-51072965D01*
X141916776Y-50948336D01*
X141854461Y-50823706D01*
X141792147Y-50761392D01*
X141667517Y-50699077D01*
X141355944Y-50699077D01*
X141169000Y-50761392D01*
X140109651Y-51945370D02*
X140234280Y-52007685D01*
X140483539Y-52007685D01*
X140608168Y-51945370D01*
X140670483Y-51820741D01*
X140670483Y-51322224D01*
X140608168Y-51197594D01*
X140483539Y-51135280D01*
X140234280Y-51135280D01*
X140109651Y-51197594D01*
X140047336Y-51322224D01*
X140047336Y-51446853D01*
X140670483Y-51571482D01*
X139486504Y-51135280D02*
X139486504Y-52443888D01*
X139486504Y-51197594D02*
X139361875Y-51135280D01*
X139112616Y-51135280D01*
X138987987Y-51197594D01*
X138925672Y-51259909D01*
X138863357Y-51384538D01*
X138863357Y-51758426D01*
X138925672Y-51883056D01*
X138987987Y-51945370D01*
X139112616Y-52007685D01*
X139361875Y-52007685D01*
X139486504Y-51945370D01*
X138489469Y-51135280D02*
X137990952Y-51135280D01*
X138302525Y-50699077D02*
X138302525Y-51820741D01*
X138240211Y-51945370D01*
X138115581Y-52007685D01*
X137990952Y-52007685D01*
X137056232Y-51945370D02*
X137180861Y-52007685D01*
X137430120Y-52007685D01*
X137554749Y-51945370D01*
X137617064Y-51820741D01*
X137617064Y-51322224D01*
X137554749Y-51197594D01*
X137430120Y-51135280D01*
X137180861Y-51135280D01*
X137056232Y-51197594D01*
X136993917Y-51322224D01*
X136993917Y-51446853D01*
X137617064Y-51571482D01*
X136433085Y-52007685D02*
X136433085Y-51135280D01*
X136433085Y-51259909D02*
X136370771Y-51197594D01*
X136246141Y-51135280D01*
X136059197Y-51135280D01*
X135934568Y-51197594D01*
X135872253Y-51322224D01*
X135872253Y-52007685D01*
X135872253Y-51322224D02*
X135809939Y-51197594D01*
X135685309Y-51135280D01*
X135498365Y-51135280D01*
X135373736Y-51197594D01*
X135311421Y-51322224D01*
X135311421Y-52007685D01*
X134688275Y-52007685D02*
X134688275Y-50699077D01*
X134688275Y-51197594D02*
X134563645Y-51135280D01*
X134314387Y-51135280D01*
X134189757Y-51197594D01*
X134127443Y-51259909D01*
X134065128Y-51384538D01*
X134065128Y-51758426D01*
X134127443Y-51883056D01*
X134189757Y-51945370D01*
X134314387Y-52007685D01*
X134563645Y-52007685D01*
X134688275Y-51945370D01*
X133005779Y-51945370D02*
X133130408Y-52007685D01*
X133379667Y-52007685D01*
X133504296Y-51945370D01*
X133566611Y-51820741D01*
X133566611Y-51322224D01*
X133504296Y-51197594D01*
X133379667Y-51135280D01*
X133130408Y-51135280D01*
X133005779Y-51197594D01*
X132943464Y-51322224D01*
X132943464Y-51446853D01*
X133566611Y-51571482D01*
X132382632Y-52007685D02*
X132382632Y-51135280D01*
X132382632Y-51384538D02*
X132320317Y-51259909D01*
X132258003Y-51197594D01*
X132133373Y-51135280D01*
X132008744Y-51135280D01*
X130637821Y-50823706D02*
X130575507Y-50761392D01*
X130450877Y-50699077D01*
X130139304Y-50699077D01*
X130014675Y-50761392D01*
X129952360Y-50823706D01*
X129890045Y-50948336D01*
X129890045Y-51072965D01*
X129952360Y-51259909D01*
X130700136Y-52007685D01*
X129890045Y-52007685D01*
X129079955Y-50699077D02*
X128955325Y-50699077D01*
X128830696Y-50761392D01*
X128768381Y-50823706D01*
X128706067Y-50948336D01*
X128643752Y-51197594D01*
X128643752Y-51509168D01*
X128706067Y-51758426D01*
X128768381Y-51883056D01*
X128830696Y-51945370D01*
X128955325Y-52007685D01*
X129079955Y-52007685D01*
X129204584Y-51945370D01*
X129266899Y-51883056D01*
X129329213Y-51758426D01*
X129391528Y-51509168D01*
X129391528Y-51197594D01*
X129329213Y-50948336D01*
X129266899Y-50823706D01*
X129204584Y-50761392D01*
X129079955Y-50699077D01*
X128145235Y-50823706D02*
X128082920Y-50761392D01*
X127958291Y-50699077D01*
X127646717Y-50699077D01*
X127522088Y-50761392D01*
X127459773Y-50823706D01*
X127397459Y-50948336D01*
X127397459Y-51072965D01*
X127459773Y-51259909D01*
X128207549Y-52007685D01*
X127397459Y-52007685D01*
X126898941Y-50823706D02*
X126836627Y-50761392D01*
X126711997Y-50699077D01*
X126400424Y-50699077D01*
X126275795Y-50761392D01*
X126213480Y-50823706D01*
X126151165Y-50948336D01*
X126151165Y-51072965D01*
X126213480Y-51259909D01*
X126961256Y-52007685D01*
X126151165Y-52007685D01*
X141418259Y-43702224D02*
X141231315Y-43764538D01*
X141169000Y-43826853D01*
X141106685Y-43951482D01*
X141106685Y-44138426D01*
X141169000Y-44263056D01*
X141231315Y-44325370D01*
X141355944Y-44387685D01*
X141854461Y-44387685D01*
X141854461Y-43079077D01*
X141418259Y-43079077D01*
X141293629Y-43141392D01*
X141231315Y-43203706D01*
X141169000Y-43328336D01*
X141169000Y-43452965D01*
X141231315Y-43577594D01*
X141293629Y-43639909D01*
X141418259Y-43702224D01*
X141854461Y-43702224D01*
X139985021Y-44387685D02*
X139985021Y-43702224D01*
X140047336Y-43577594D01*
X140171965Y-43515280D01*
X140421224Y-43515280D01*
X140545853Y-43577594D01*
X139985021Y-44325370D02*
X140109651Y-44387685D01*
X140421224Y-44387685D01*
X140545853Y-44325370D01*
X140608168Y-44200741D01*
X140608168Y-44076112D01*
X140545853Y-43951482D01*
X140421224Y-43889168D01*
X140109651Y-43889168D01*
X139985021Y-43826853D01*
X139548819Y-43515280D02*
X139050301Y-43515280D01*
X139361875Y-43079077D02*
X139361875Y-44200741D01*
X139299560Y-44325370D01*
X139174931Y-44387685D01*
X139050301Y-44387685D01*
X138801043Y-43515280D02*
X138302525Y-43515280D01*
X138614099Y-43079077D02*
X138614099Y-44200741D01*
X138551784Y-44325370D01*
X138427155Y-44387685D01*
X138302525Y-44387685D01*
X137679379Y-44387685D02*
X137804008Y-44325370D01*
X137866323Y-44200741D01*
X137866323Y-43079077D01*
X136682344Y-44325370D02*
X136806973Y-44387685D01*
X137056232Y-44387685D01*
X137180861Y-44325370D01*
X137243176Y-44200741D01*
X137243176Y-43702224D01*
X137180861Y-43577594D01*
X137056232Y-43515280D01*
X136806973Y-43515280D01*
X136682344Y-43577594D01*
X136620029Y-43702224D01*
X136620029Y-43826853D01*
X137243176Y-43951482D01*
X135622995Y-43702224D02*
X135436051Y-43764538D01*
X135373736Y-43826853D01*
X135311421Y-43951482D01*
X135311421Y-44138426D01*
X135373736Y-44263056D01*
X135436051Y-44325370D01*
X135560680Y-44387685D01*
X136059197Y-44387685D01*
X136059197Y-43079077D01*
X135622995Y-43079077D01*
X135498365Y-43141392D01*
X135436051Y-43203706D01*
X135373736Y-43328336D01*
X135373736Y-43452965D01*
X135436051Y-43577594D01*
X135498365Y-43639909D01*
X135622995Y-43702224D01*
X136059197Y-43702224D01*
X134750589Y-44387685D02*
X134750589Y-43515280D01*
X134750589Y-43079077D02*
X134812904Y-43141392D01*
X134750589Y-43203706D01*
X134688275Y-43141392D01*
X134750589Y-43079077D01*
X134750589Y-43203706D01*
X134314387Y-43515280D02*
X133815869Y-43515280D01*
X134127443Y-43079077D02*
X134127443Y-44200741D01*
X134065128Y-44325370D01*
X133940499Y-44387685D01*
X133815869Y-44387685D01*
X133441981Y-44325370D02*
X133317352Y-44387685D01*
X133068093Y-44387685D01*
X132943464Y-44325370D01*
X132881149Y-44200741D01*
X132881149Y-44138426D01*
X132943464Y-44013797D01*
X133068093Y-43951482D01*
X133255037Y-43951482D01*
X133379667Y-43889168D01*
X133441981Y-43764538D01*
X133441981Y-43702224D01*
X133379667Y-43577594D01*
X133255037Y-43515280D01*
X133068093Y-43515280D01*
X132943464Y-43577594D01*
X131323283Y-44387685D02*
X131323283Y-43079077D01*
X130824765Y-43079077D01*
X130700136Y-43141392D01*
X130637821Y-43203706D01*
X130575507Y-43328336D01*
X130575507Y-43515280D01*
X130637821Y-43639909D01*
X130700136Y-43702224D01*
X130824765Y-43764538D01*
X131323283Y-43764538D01*
X129266899Y-44263056D02*
X129329213Y-44325370D01*
X129516157Y-44387685D01*
X129640787Y-44387685D01*
X129827731Y-44325370D01*
X129952360Y-44200741D01*
X130014675Y-44076112D01*
X130076989Y-43826853D01*
X130076989Y-43639909D01*
X130014675Y-43390650D01*
X129952360Y-43266021D01*
X129827731Y-43141392D01*
X129640787Y-43079077D01*
X129516157Y-43079077D01*
X129329213Y-43141392D01*
X129266899Y-43203706D01*
X128269864Y-43702224D02*
X128082920Y-43764538D01*
X128020605Y-43826853D01*
X127958291Y-43951482D01*
X127958291Y-44138426D01*
X128020605Y-44263056D01*
X128082920Y-44325370D01*
X128207549Y-44387685D01*
X128706067Y-44387685D01*
X128706067Y-43079077D01*
X128269864Y-43079077D01*
X128145235Y-43141392D01*
X128082920Y-43203706D01*
X128020605Y-43328336D01*
X128020605Y-43452965D01*
X128082920Y-43577594D01*
X128145235Y-43639909D01*
X128269864Y-43702224D01*
X128706067Y-43702224D01*
X126587368Y-43079077D02*
X126151165Y-44387685D01*
X125714963Y-43079077D01*
X124717928Y-43515280D02*
X124717928Y-44387685D01*
X125029501Y-43016762D02*
X125341075Y-43951482D01*
X124530984Y-43951482D01*
X124032467Y-44263056D02*
X123970152Y-44325370D01*
X124032467Y-44387685D01*
X124094781Y-44325370D01*
X124032467Y-44263056D01*
X124032467Y-44387685D01*
X123160061Y-43079077D02*
X123035432Y-43079077D01*
X122910803Y-43141392D01*
X122848488Y-43203706D01*
X122786173Y-43328336D01*
X122723859Y-43577594D01*
X122723859Y-43889168D01*
X122786173Y-44138426D01*
X122848488Y-44263056D01*
X122910803Y-44325370D01*
X123035432Y-44387685D01*
X123160061Y-44387685D01*
X123284691Y-44325370D01*
X123347005Y-44263056D01*
X123409320Y-44138426D01*
X123471635Y-43889168D01*
X123471635Y-43577594D01*
X123409320Y-43328336D01*
X123347005Y-43203706D01*
X123284691Y-43141392D01*
X123160061Y-43079077D01*
D11*
G36*
X163671254Y-44370621D02*
G01*
X163115629Y-44370621D01*
X163115629Y-43814996D01*
X163671254Y-43814996D01*
X163671254Y-44370621D01*
G37*
X163671254Y-44370621D02*
X163115629Y-44370621D01*
X163115629Y-43814996D01*
X163671254Y-43814996D01*
X163671254Y-44370621D01*
G36*
X164226879Y-45481871D02*
G01*
X163671254Y-45481871D01*
X163671254Y-44370621D01*
X164226879Y-44370621D01*
X164226879Y-45481871D01*
G37*
X164226879Y-45481871D02*
X163671254Y-45481871D01*
X163671254Y-44370621D01*
X164226879Y-44370621D01*
X164226879Y-45481871D01*
G36*
X163115629Y-45481871D02*
G01*
X163671254Y-45481871D01*
X163671254Y-46037496D01*
X162560005Y-46037496D01*
X162560005Y-44926246D01*
X163115629Y-44926246D01*
X163115629Y-45481871D01*
G37*
X163115629Y-45481871D02*
X163671254Y-45481871D01*
X163671254Y-46037496D01*
X162560005Y-46037496D01*
X162560005Y-44926246D01*
X163115629Y-44926246D01*
X163115629Y-45481871D01*
G36*
X167560629Y-48259996D02*
G01*
X166449379Y-48259996D01*
X166449379Y-47704371D01*
X167560629Y-47704371D01*
X167560629Y-48259996D01*
G37*
X167560629Y-48259996D02*
X166449379Y-48259996D01*
X166449379Y-47704371D01*
X167560629Y-47704371D01*
X167560629Y-48259996D01*
G36*
X163115629Y-43814996D02*
G01*
X162560005Y-43814996D01*
X162560005Y-43259371D01*
X163115629Y-43259371D01*
X163115629Y-43814996D01*
G37*
X163115629Y-43814996D02*
X162560005Y-43814996D01*
X162560005Y-43259371D01*
X163115629Y-43259371D01*
X163115629Y-43814996D01*
G36*
X162560005Y-44370621D02*
G01*
X162004379Y-44370621D01*
X162004379Y-43814996D01*
X162560005Y-43814996D01*
X162560005Y-44370621D01*
G37*
X162560005Y-44370621D02*
X162004379Y-44370621D01*
X162004379Y-43814996D01*
X162560005Y-43814996D01*
X162560005Y-44370621D01*
G36*
X165338129Y-42703746D02*
G01*
X164782504Y-42703746D01*
X164782504Y-42148121D01*
X165338129Y-42148121D01*
X165338129Y-42703746D01*
G37*
X165338129Y-42703746D02*
X164782504Y-42703746D01*
X164782504Y-42148121D01*
X165338129Y-42148121D01*
X165338129Y-42703746D01*
G36*
X163671254Y-43259371D02*
G01*
X163115629Y-43259371D01*
X163115629Y-42703746D01*
X163671254Y-42703746D01*
X163671254Y-43259371D01*
G37*
X163671254Y-43259371D02*
X163115629Y-43259371D01*
X163115629Y-42703746D01*
X163671254Y-42703746D01*
X163671254Y-43259371D01*
G36*
X164782504Y-43814996D02*
G01*
X164226879Y-43814996D01*
X164226879Y-43259371D01*
X164782504Y-43259371D01*
X164782504Y-43814996D01*
G37*
X164782504Y-43814996D02*
X164226879Y-43814996D01*
X164226879Y-43259371D01*
X164782504Y-43259371D01*
X164782504Y-43814996D01*
G36*
X167560629Y-47148746D02*
G01*
X166449379Y-47148746D01*
X166449379Y-46593121D01*
X167560629Y-46593121D01*
X167560629Y-47148746D01*
G37*
X167560629Y-47148746D02*
X166449379Y-47148746D01*
X166449379Y-46593121D01*
X167560629Y-46593121D01*
X167560629Y-47148746D01*
G36*
X154809037Y-44898464D02*
G01*
X154809037Y-44370621D01*
X155336880Y-44370621D01*
X157003754Y-44370621D01*
X157003754Y-42703746D01*
X155336880Y-42703746D01*
X155336880Y-44370621D01*
X154809037Y-44370621D01*
X154809037Y-42175902D01*
X157531599Y-42175902D01*
X157531599Y-44898464D01*
X154809037Y-44898464D01*
G37*
X154809037Y-44898464D02*
X154809037Y-44370621D01*
X155336880Y-44370621D01*
X157003754Y-44370621D01*
X157003754Y-42703746D01*
X155336880Y-42703746D01*
X155336880Y-44370621D01*
X154809037Y-44370621D01*
X154809037Y-42175902D01*
X157531599Y-42175902D01*
X157531599Y-44898464D01*
X154809037Y-44898464D01*
G36*
X167032786Y-44898464D02*
G01*
X167032786Y-44370621D01*
X167560629Y-44370621D01*
X169227504Y-44370621D01*
X169227504Y-42703746D01*
X167560629Y-42703746D01*
X167560629Y-44370621D01*
X167032786Y-44370621D01*
X167032786Y-42175902D01*
X169755348Y-42175902D01*
X169755348Y-44898464D01*
X167032786Y-44898464D01*
G37*
X167032786Y-44898464D02*
X167032786Y-44370621D01*
X167560629Y-44370621D01*
X169227504Y-44370621D01*
X169227504Y-42703746D01*
X167560629Y-42703746D01*
X167560629Y-44370621D01*
X167032786Y-44370621D01*
X167032786Y-42175902D01*
X169755348Y-42175902D01*
X169755348Y-44898464D01*
X167032786Y-44898464D01*
G36*
X167005004Y-51593746D02*
G01*
X166449379Y-51593746D01*
X166449379Y-51038120D01*
X167005004Y-51038120D01*
X167005004Y-51593746D01*
G37*
X167005004Y-51593746D02*
X166449379Y-51593746D01*
X166449379Y-51038120D01*
X167005004Y-51038120D01*
X167005004Y-51593746D01*
G36*
X165893754Y-52149370D02*
G01*
X165338129Y-52149370D01*
X165338129Y-51038120D01*
X165893754Y-51038120D01*
X165893754Y-52149370D01*
G37*
X165893754Y-52149370D02*
X165338129Y-52149370D01*
X165338129Y-51038120D01*
X165893754Y-51038120D01*
X165893754Y-52149370D01*
G36*
X167005004Y-52704995D02*
G01*
X166449379Y-52704995D01*
X166449379Y-52149370D01*
X167005004Y-52149370D01*
X167005004Y-52704995D01*
G37*
X167005004Y-52704995D02*
X166449379Y-52704995D01*
X166449379Y-52149370D01*
X167005004Y-52149370D01*
X167005004Y-52704995D01*
G36*
X165338129Y-54371870D02*
G01*
X164782504Y-54371870D01*
X164782504Y-53816245D01*
X165338129Y-53816245D01*
X165338129Y-54371870D01*
G37*
X165338129Y-54371870D02*
X164782504Y-54371870D01*
X164782504Y-53816245D01*
X165338129Y-53816245D01*
X165338129Y-54371870D01*
G36*
X163671254Y-54371870D02*
G01*
X164226879Y-54371870D01*
X164226879Y-54927496D01*
X163115629Y-54927496D01*
X163115629Y-52704995D01*
X163671254Y-52704995D01*
X163671254Y-54371870D01*
G37*
X163671254Y-54371870D02*
X164226879Y-54371870D01*
X164226879Y-54927496D01*
X163115629Y-54927496D01*
X163115629Y-52704995D01*
X163671254Y-52704995D01*
X163671254Y-54371870D01*
G36*
X159781880Y-51038120D02*
G01*
X159226255Y-51038120D01*
X159226255Y-50482495D01*
X159781880Y-50482495D01*
X159781880Y-51038120D01*
G37*
X159781880Y-51038120D02*
X159226255Y-51038120D01*
X159226255Y-50482495D01*
X159781880Y-50482495D01*
X159781880Y-51038120D01*
G36*
X157003754Y-54927496D02*
G01*
X157003754Y-54371870D01*
X157559380Y-54371870D01*
X158115005Y-54371870D01*
X158115005Y-53816245D01*
X157559380Y-53816245D01*
X157559380Y-54371870D01*
X157003754Y-54371870D01*
X157003754Y-53260621D01*
X158670629Y-53260621D01*
X158670629Y-54927496D01*
X157003754Y-54927496D01*
G37*
X157003754Y-54927496D02*
X157003754Y-54371870D01*
X157559380Y-54371870D01*
X158115005Y-54371870D01*
X158115005Y-53816245D01*
X157559380Y-53816245D01*
X157559380Y-54371870D01*
X157003754Y-54371870D01*
X157003754Y-53260621D01*
X158670629Y-53260621D01*
X158670629Y-54927496D01*
X157003754Y-54927496D01*
G36*
X158115005Y-56038745D02*
G01*
X158670629Y-56038745D01*
X158670629Y-56594370D01*
X157559380Y-56594370D01*
X157559380Y-55483120D01*
X158115005Y-55483120D01*
X158115005Y-56038745D01*
G37*
X158115005Y-56038745D02*
X158670629Y-56038745D01*
X158670629Y-56594370D01*
X157559380Y-56594370D01*
X157559380Y-55483120D01*
X158115005Y-55483120D01*
X158115005Y-56038745D01*
G36*
X167032786Y-57122213D02*
G01*
X167032786Y-56594370D01*
X167560629Y-56594370D01*
X169227504Y-56594370D01*
X169227504Y-54927496D01*
X167560629Y-54927496D01*
X167560629Y-56594370D01*
X167032786Y-56594370D01*
X167032786Y-54399651D01*
X169755348Y-54399651D01*
X169755348Y-57122213D01*
X167032786Y-57122213D01*
G37*
X167032786Y-57122213D02*
X167032786Y-56594370D01*
X167560629Y-56594370D01*
X169227504Y-56594370D01*
X169227504Y-54927496D01*
X167560629Y-54927496D01*
X167560629Y-56594370D01*
X167032786Y-56594370D01*
X167032786Y-54399651D01*
X169755348Y-54399651D01*
X169755348Y-57122213D01*
X167032786Y-57122213D01*
G36*
X153114381Y-58816869D02*
G01*
X153114381Y-57149996D01*
X154225630Y-57149996D01*
X154781254Y-57149996D01*
X154781254Y-56594370D01*
X155336880Y-56594370D01*
X155336880Y-57149996D01*
X155892505Y-57149996D01*
X155892505Y-57705620D01*
X157003754Y-57705620D01*
X157003754Y-57149996D01*
X156448130Y-57149996D01*
X156448130Y-56594370D01*
X155892505Y-56594370D01*
X155892505Y-56038745D01*
X155336880Y-56038745D01*
X155336880Y-55483120D01*
X154781254Y-55483120D01*
X154781254Y-56038745D01*
X154225630Y-56038745D01*
X154225630Y-57149996D01*
X153114381Y-57149996D01*
X153114381Y-54927496D01*
X154225630Y-54927496D01*
X155336880Y-54927496D01*
X155336880Y-54371870D01*
X154225630Y-54371870D01*
X154225630Y-54927496D01*
X153114381Y-54927496D01*
X153114381Y-52149370D01*
X154225630Y-52149370D01*
X154781254Y-52149370D01*
X154781254Y-51593746D01*
X155892505Y-51593746D01*
X155892505Y-52149370D01*
X155336880Y-52149370D01*
X155336880Y-52704995D01*
X154781254Y-52704995D01*
X154781254Y-53260621D01*
X155892505Y-53260621D01*
X155892505Y-54371870D01*
X156448130Y-54371870D01*
X156448130Y-54927496D01*
X155892505Y-54927496D01*
X155892505Y-55483120D01*
X157003754Y-55483120D01*
X157003754Y-56038745D01*
X156448130Y-56038745D01*
X156448130Y-56594370D01*
X157003754Y-56594370D01*
X157003754Y-57149996D01*
X158115005Y-57149996D01*
X158115005Y-57705620D01*
X160893130Y-57705620D01*
X160893130Y-57149996D01*
X161448755Y-57149996D01*
X162560005Y-57149996D01*
X162560005Y-57705620D01*
X163671254Y-57705620D01*
X163671254Y-57149996D01*
X164226879Y-57149996D01*
X164226879Y-57705620D01*
X164782504Y-57705620D01*
X165338129Y-57705620D01*
X165893754Y-57705620D01*
X166449379Y-57705620D01*
X170338754Y-57705620D01*
X170338754Y-53816245D01*
X166449379Y-53816245D01*
X166449379Y-57705620D01*
X165893754Y-57705620D01*
X165893754Y-57149996D01*
X165338129Y-57149996D01*
X165338129Y-57705620D01*
X164782504Y-57705620D01*
X164782504Y-57149996D01*
X165338129Y-57149996D01*
X165338129Y-56038745D01*
X164782504Y-56038745D01*
X164782504Y-56594370D01*
X163115629Y-56594370D01*
X163115629Y-57149996D01*
X162560005Y-57149996D01*
X162560005Y-56594370D01*
X161448755Y-56594370D01*
X161448755Y-57149996D01*
X160893130Y-57149996D01*
X160337504Y-57149996D01*
X160337504Y-56594370D01*
X159781880Y-56594370D01*
X159781880Y-57149996D01*
X158670629Y-57149996D01*
X158670629Y-56594370D01*
X159226255Y-56594370D01*
X159226255Y-56038745D01*
X159781880Y-56038745D01*
X159781880Y-55483120D01*
X160337504Y-55483120D01*
X160337504Y-54927496D01*
X160893130Y-54927496D01*
X160893130Y-56594370D01*
X161448755Y-56594370D01*
X161448755Y-55483120D01*
X162004379Y-55483120D01*
X162004379Y-56038745D01*
X162560005Y-56038745D01*
X162560005Y-56594370D01*
X163115629Y-56594370D01*
X163115629Y-56038745D01*
X163671254Y-56038745D01*
X163671254Y-55483120D01*
X164226879Y-55483120D01*
X164226879Y-56038745D01*
X164782504Y-56038745D01*
X164782504Y-54927496D01*
X165338129Y-54927496D01*
X165338129Y-56038745D01*
X165893754Y-56038745D01*
X165893754Y-52704995D01*
X166449379Y-52704995D01*
X166449379Y-53260621D01*
X170338754Y-53260621D01*
X170338754Y-49926871D01*
X169783129Y-49926871D01*
X169783129Y-51593746D01*
X168671879Y-51593746D01*
X168671879Y-52149370D01*
X169227504Y-52149370D01*
X169227504Y-52704995D01*
X168671879Y-52704995D01*
X168671879Y-53260621D01*
X168116254Y-53260621D01*
X168116254Y-52149370D01*
X167560629Y-52149370D01*
X167560629Y-51593746D01*
X168116254Y-51593746D01*
X168116254Y-51038120D01*
X167560629Y-51038120D01*
X167560629Y-50482495D01*
X168116254Y-50482495D01*
X168116254Y-51038120D01*
X168671879Y-51038120D01*
X168671879Y-50482495D01*
X168116254Y-50482495D01*
X168116254Y-49926871D01*
X168671879Y-49926871D01*
X168671879Y-50482495D01*
X169227504Y-50482495D01*
X169227504Y-49371245D01*
X169783129Y-49371245D01*
X169783129Y-48815621D01*
X168116254Y-48815621D01*
X168116254Y-49926871D01*
X167560629Y-49926871D01*
X167560629Y-50482495D01*
X166449379Y-50482495D01*
X166449379Y-49926871D01*
X167005004Y-49926871D01*
X167005004Y-49371245D01*
X166449379Y-49371245D01*
X166449379Y-48815621D01*
X165893754Y-48815621D01*
X165893754Y-49371245D01*
X165338129Y-49371245D01*
X165338129Y-50482495D01*
X164226879Y-50482495D01*
X164226879Y-51038120D01*
X164782504Y-51038120D01*
X164782504Y-51593746D01*
X164226879Y-51593746D01*
X164226879Y-51038120D01*
X163671254Y-51038120D01*
X163671254Y-51593746D01*
X164226879Y-51593746D01*
X164226879Y-52149370D01*
X164782504Y-52149370D01*
X164782504Y-52704995D01*
X163671254Y-52704995D01*
X163671254Y-52149370D01*
X163115629Y-52149370D01*
X163115629Y-51593746D01*
X162004379Y-51593746D01*
X162004379Y-52149370D01*
X162560005Y-52149370D01*
X162560005Y-55483120D01*
X162004379Y-55483120D01*
X162004379Y-54927496D01*
X161448755Y-54927496D01*
X161448755Y-54371870D01*
X162004379Y-54371870D01*
X162004379Y-53816245D01*
X161448755Y-53816245D01*
X161448755Y-53260621D01*
X160893130Y-53260621D01*
X160893130Y-52704995D01*
X162004379Y-52704995D01*
X162004379Y-52149370D01*
X161448755Y-52149370D01*
X161448755Y-51593746D01*
X160893130Y-51593746D01*
X160893130Y-52704995D01*
X160337504Y-52704995D01*
X160337504Y-53260621D01*
X160893130Y-53260621D01*
X160893130Y-54371870D01*
X159781880Y-54371870D01*
X159781880Y-53816245D01*
X159226255Y-53816245D01*
X159226255Y-53260621D01*
X159781880Y-53260621D01*
X159781880Y-51593746D01*
X160337504Y-51593746D01*
X160337504Y-50482495D01*
X159781880Y-50482495D01*
X159781880Y-49371245D01*
X160337504Y-49371245D01*
X160337504Y-49926871D01*
X160893130Y-49926871D01*
X160893130Y-50482495D01*
X161448755Y-50482495D01*
X161448755Y-51038120D01*
X162004379Y-51038120D01*
X162004379Y-50482495D01*
X161448755Y-50482495D01*
X161448755Y-49926871D01*
X162004379Y-49926871D01*
X162004379Y-50482495D01*
X163115629Y-50482495D01*
X163115629Y-49926871D01*
X163671254Y-49926871D01*
X163671254Y-49371245D01*
X164226879Y-49371245D01*
X164226879Y-49926871D01*
X164782504Y-49926871D01*
X164782504Y-48815621D01*
X163671254Y-48815621D01*
X163671254Y-49371245D01*
X163115629Y-49371245D01*
X163115629Y-49926871D01*
X162560005Y-49926871D01*
X162560005Y-49371245D01*
X161448755Y-49371245D01*
X161448755Y-49926871D01*
X160893130Y-49926871D01*
X160893130Y-49371245D01*
X160337504Y-49371245D01*
X160337504Y-48815621D01*
X159781880Y-48815621D01*
X159781880Y-49371245D01*
X159226255Y-49371245D01*
X159226255Y-49926871D01*
X158670629Y-49926871D01*
X158670629Y-49371245D01*
X158115005Y-49371245D01*
X158115005Y-48815621D01*
X158670629Y-48815621D01*
X159226255Y-48815621D01*
X159226255Y-48259996D01*
X158670629Y-48259996D01*
X158670629Y-48815621D01*
X158115005Y-48815621D01*
X158115005Y-48259996D01*
X157003754Y-48259996D01*
X157003754Y-48815621D01*
X157559380Y-48815621D01*
X157559380Y-49371245D01*
X157003754Y-49371245D01*
X157003754Y-48815621D01*
X154781254Y-48815621D01*
X154781254Y-47704371D01*
X154225630Y-47704371D01*
X154225630Y-50482495D01*
X154781254Y-50482495D01*
X154781254Y-49371245D01*
X155336880Y-49371245D01*
X155336880Y-50482495D01*
X155892505Y-50482495D01*
X155892505Y-49371245D01*
X157003754Y-49371245D01*
X157003754Y-49926871D01*
X156448130Y-49926871D01*
X156448130Y-50482495D01*
X155892505Y-50482495D01*
X155892505Y-51038120D01*
X154781254Y-51038120D01*
X154781254Y-51593746D01*
X154225630Y-51593746D01*
X154225630Y-52149370D01*
X153114381Y-52149370D01*
X153114381Y-46593121D01*
X154225630Y-46593121D01*
X154781254Y-46593121D01*
X154781254Y-47148746D01*
X155336880Y-47148746D01*
X155336880Y-47704371D01*
X155892505Y-47704371D01*
X155892505Y-48259996D01*
X156448130Y-48259996D01*
X156448130Y-47704371D01*
X155892505Y-47704371D01*
X155892505Y-47148746D01*
X156448130Y-47148746D01*
X157003754Y-47148746D01*
X157003754Y-47704371D01*
X157559380Y-47704371D01*
X158115005Y-47704371D01*
X158670629Y-47704371D01*
X158670629Y-47148746D01*
X158115005Y-47148746D01*
X158115005Y-47704371D01*
X157559380Y-47704371D01*
X157559380Y-46593121D01*
X158115005Y-46593121D01*
X159226255Y-46593121D01*
X159226255Y-47148746D01*
X159781880Y-47148746D01*
X159781880Y-48259996D01*
X160893130Y-48259996D01*
X160893130Y-47704371D01*
X160337504Y-47704371D01*
X160337504Y-47148746D01*
X159781880Y-47148746D01*
X159781880Y-46593121D01*
X160337504Y-46593121D01*
X162004379Y-46593121D01*
X162004379Y-47704371D01*
X161448755Y-47704371D01*
X161448755Y-48259996D01*
X162004379Y-48259996D01*
X162004379Y-48815621D01*
X163671254Y-48815621D01*
X163671254Y-48259996D01*
X164226879Y-48259996D01*
X164226879Y-47704371D01*
X164782504Y-47704371D01*
X164782504Y-46593121D01*
X165893754Y-46593121D01*
X165893754Y-47704371D01*
X165338129Y-47704371D01*
X165338129Y-48815621D01*
X165893754Y-48815621D01*
X165893754Y-48259996D01*
X166449379Y-48259996D01*
X166449379Y-48815621D01*
X168116254Y-48815621D01*
X168116254Y-48259996D01*
X168671879Y-48259996D01*
X169227504Y-48259996D01*
X169783129Y-48259996D01*
X170338754Y-48259996D01*
X170338754Y-47704371D01*
X169783129Y-47704371D01*
X169783129Y-48259996D01*
X169227504Y-48259996D01*
X169227504Y-47148746D01*
X169783129Y-47148746D01*
X170338754Y-47148746D01*
X170338754Y-46037496D01*
X169783129Y-46037496D01*
X169783129Y-47148746D01*
X169227504Y-47148746D01*
X169227504Y-46593121D01*
X168671879Y-46593121D01*
X168671879Y-48259996D01*
X168116254Y-48259996D01*
X168116254Y-47704371D01*
X167560629Y-47704371D01*
X167560629Y-47148746D01*
X168116254Y-47148746D01*
X168116254Y-46593121D01*
X168671879Y-46593121D01*
X168671879Y-46037496D01*
X165338129Y-46037496D01*
X165338129Y-45481871D01*
X165893754Y-45481871D01*
X166449379Y-45481871D01*
X170338754Y-45481871D01*
X170338754Y-41592496D01*
X166449379Y-41592496D01*
X166449379Y-45481871D01*
X165893754Y-45481871D01*
X165893754Y-44926246D01*
X165338129Y-44926246D01*
X165338129Y-45481871D01*
X164782504Y-45481871D01*
X164782504Y-44926246D01*
X165338129Y-44926246D01*
X165338129Y-44370621D01*
X165893754Y-44370621D01*
X165893754Y-43814996D01*
X165338129Y-43814996D01*
X165338129Y-43259371D01*
X165893754Y-43259371D01*
X165893754Y-41592496D01*
X164782504Y-41592496D01*
X164782504Y-42148121D01*
X163671254Y-42148121D01*
X163671254Y-41592496D01*
X161448755Y-41592496D01*
X161448755Y-42703746D01*
X162004379Y-42703746D01*
X162004379Y-43259371D01*
X161448755Y-43259371D01*
X161448755Y-44370621D01*
X162004379Y-44370621D01*
X162004379Y-46037496D01*
X160337504Y-46037496D01*
X160337504Y-46593121D01*
X159781880Y-46593121D01*
X159781880Y-45481871D01*
X160337504Y-45481871D01*
X160893130Y-45481871D01*
X161448755Y-45481871D01*
X161448755Y-44926246D01*
X160893130Y-44926246D01*
X160893130Y-45481871D01*
X160337504Y-45481871D01*
X160337504Y-44926246D01*
X159781880Y-44926246D01*
X159781880Y-45481871D01*
X159226255Y-45481871D01*
X159226255Y-44926246D01*
X158670629Y-44926246D01*
X158670629Y-45481871D01*
X159226255Y-45481871D01*
X159226255Y-46037496D01*
X158115005Y-46037496D01*
X158115005Y-46593121D01*
X157559380Y-46593121D01*
X157003754Y-46593121D01*
X157003754Y-46037496D01*
X156448130Y-46037496D01*
X156448130Y-47148746D01*
X155892505Y-47148746D01*
X155892505Y-46037496D01*
X154225630Y-46037496D01*
X154225630Y-46593121D01*
X153114381Y-46593121D01*
X153114381Y-45481871D01*
X154225630Y-45481871D01*
X158115005Y-45481871D01*
X158115005Y-42148121D01*
X158670629Y-42148121D01*
X159226255Y-42148121D01*
X159226255Y-42703746D01*
X159781880Y-42703746D01*
X159781880Y-43259371D01*
X160337504Y-43259371D01*
X160337504Y-43814996D01*
X159226255Y-43814996D01*
X159226255Y-44370621D01*
X160337504Y-44370621D01*
X160337504Y-43814996D01*
X160893130Y-43814996D01*
X160893130Y-43259371D01*
X160337504Y-43259371D01*
X160337504Y-42703746D01*
X159781880Y-42703746D01*
X159781880Y-42148121D01*
X160337504Y-42148121D01*
X160337504Y-42703746D01*
X160893130Y-42703746D01*
X160893130Y-42148121D01*
X160337504Y-42148121D01*
X160337504Y-41592496D01*
X159781880Y-41592496D01*
X159781880Y-42148121D01*
X159226255Y-42148121D01*
X159226255Y-41592496D01*
X158670629Y-41592496D01*
X158670629Y-42148121D01*
X158115005Y-42148121D01*
X158115005Y-41592496D01*
X154225630Y-41592496D01*
X154225630Y-45481871D01*
X153114381Y-45481871D01*
X153114381Y-40481246D01*
X171450004Y-40481246D01*
X171450004Y-58816869D01*
X153114381Y-58816869D01*
G37*
X153114381Y-58816869D02*
X153114381Y-57149996D01*
X154225630Y-57149996D01*
X154781254Y-57149996D01*
X154781254Y-56594370D01*
X155336880Y-56594370D01*
X155336880Y-57149996D01*
X155892505Y-57149996D01*
X155892505Y-57705620D01*
X157003754Y-57705620D01*
X157003754Y-57149996D01*
X156448130Y-57149996D01*
X156448130Y-56594370D01*
X155892505Y-56594370D01*
X155892505Y-56038745D01*
X155336880Y-56038745D01*
X155336880Y-55483120D01*
X154781254Y-55483120D01*
X154781254Y-56038745D01*
X154225630Y-56038745D01*
X154225630Y-57149996D01*
X153114381Y-57149996D01*
X153114381Y-54927496D01*
X154225630Y-54927496D01*
X155336880Y-54927496D01*
X155336880Y-54371870D01*
X154225630Y-54371870D01*
X154225630Y-54927496D01*
X153114381Y-54927496D01*
X153114381Y-52149370D01*
X154225630Y-52149370D01*
X154781254Y-52149370D01*
X154781254Y-51593746D01*
X155892505Y-51593746D01*
X155892505Y-52149370D01*
X155336880Y-52149370D01*
X155336880Y-52704995D01*
X154781254Y-52704995D01*
X154781254Y-53260621D01*
X155892505Y-53260621D01*
X155892505Y-54371870D01*
X156448130Y-54371870D01*
X156448130Y-54927496D01*
X155892505Y-54927496D01*
X155892505Y-55483120D01*
X157003754Y-55483120D01*
X157003754Y-56038745D01*
X156448130Y-56038745D01*
X156448130Y-56594370D01*
X157003754Y-56594370D01*
X157003754Y-57149996D01*
X158115005Y-57149996D01*
X158115005Y-57705620D01*
X160893130Y-57705620D01*
X160893130Y-57149996D01*
X161448755Y-57149996D01*
X162560005Y-57149996D01*
X162560005Y-57705620D01*
X163671254Y-57705620D01*
X163671254Y-57149996D01*
X164226879Y-57149996D01*
X164226879Y-57705620D01*
X164782504Y-57705620D01*
X165338129Y-57705620D01*
X165893754Y-57705620D01*
X166449379Y-57705620D01*
X170338754Y-57705620D01*
X170338754Y-53816245D01*
X166449379Y-53816245D01*
X166449379Y-57705620D01*
X165893754Y-57705620D01*
X165893754Y-57149996D01*
X165338129Y-57149996D01*
X165338129Y-57705620D01*
X164782504Y-57705620D01*
X164782504Y-57149996D01*
X165338129Y-57149996D01*
X165338129Y-56038745D01*
X164782504Y-56038745D01*
X164782504Y-56594370D01*
X163115629Y-56594370D01*
X163115629Y-57149996D01*
X162560005Y-57149996D01*
X162560005Y-56594370D01*
X161448755Y-56594370D01*
X161448755Y-57149996D01*
X160893130Y-57149996D01*
X160337504Y-57149996D01*
X160337504Y-56594370D01*
X159781880Y-56594370D01*
X159781880Y-57149996D01*
X158670629Y-57149996D01*
X158670629Y-56594370D01*
X159226255Y-56594370D01*
X159226255Y-56038745D01*
X159781880Y-56038745D01*
X159781880Y-55483120D01*
X160337504Y-55483120D01*
X160337504Y-54927496D01*
X160893130Y-54927496D01*
X160893130Y-56594370D01*
X161448755Y-56594370D01*
X161448755Y-55483120D01*
X162004379Y-55483120D01*
X162004379Y-56038745D01*
X162560005Y-56038745D01*
X162560005Y-56594370D01*
X163115629Y-56594370D01*
X163115629Y-56038745D01*
X163671254Y-56038745D01*
X163671254Y-55483120D01*
X164226879Y-55483120D01*
X164226879Y-56038745D01*
X164782504Y-56038745D01*
X164782504Y-54927496D01*
X165338129Y-54927496D01*
X165338129Y-56038745D01*
X165893754Y-56038745D01*
X165893754Y-52704995D01*
X166449379Y-52704995D01*
X166449379Y-53260621D01*
X170338754Y-53260621D01*
X170338754Y-49926871D01*
X169783129Y-49926871D01*
X169783129Y-51593746D01*
X168671879Y-51593746D01*
X168671879Y-52149370D01*
X169227504Y-52149370D01*
X169227504Y-52704995D01*
X168671879Y-52704995D01*
X168671879Y-53260621D01*
X168116254Y-53260621D01*
X168116254Y-52149370D01*
X167560629Y-52149370D01*
X167560629Y-51593746D01*
X168116254Y-51593746D01*
X168116254Y-51038120D01*
X167560629Y-51038120D01*
X167560629Y-50482495D01*
X168116254Y-50482495D01*
X168116254Y-51038120D01*
X168671879Y-51038120D01*
X168671879Y-50482495D01*
X168116254Y-50482495D01*
X168116254Y-49926871D01*
X168671879Y-49926871D01*
X168671879Y-50482495D01*
X169227504Y-50482495D01*
X169227504Y-49371245D01*
X169783129Y-49371245D01*
X169783129Y-48815621D01*
X168116254Y-48815621D01*
X168116254Y-49926871D01*
X167560629Y-49926871D01*
X167560629Y-50482495D01*
X166449379Y-50482495D01*
X166449379Y-49926871D01*
X167005004Y-49926871D01*
X167005004Y-49371245D01*
X166449379Y-49371245D01*
X166449379Y-48815621D01*
X165893754Y-48815621D01*
X165893754Y-49371245D01*
X165338129Y-49371245D01*
X165338129Y-50482495D01*
X164226879Y-50482495D01*
X164226879Y-51038120D01*
X164782504Y-51038120D01*
X164782504Y-51593746D01*
X164226879Y-51593746D01*
X164226879Y-51038120D01*
X163671254Y-51038120D01*
X163671254Y-51593746D01*
X164226879Y-51593746D01*
X164226879Y-52149370D01*
X164782504Y-52149370D01*
X164782504Y-52704995D01*
X163671254Y-52704995D01*
X163671254Y-52149370D01*
X163115629Y-52149370D01*
X163115629Y-51593746D01*
X162004379Y-51593746D01*
X162004379Y-52149370D01*
X162560005Y-52149370D01*
X162560005Y-55483120D01*
X162004379Y-55483120D01*
X162004379Y-54927496D01*
X161448755Y-54927496D01*
X161448755Y-54371870D01*
X162004379Y-54371870D01*
X162004379Y-53816245D01*
X161448755Y-53816245D01*
X161448755Y-53260621D01*
X160893130Y-53260621D01*
X160893130Y-52704995D01*
X162004379Y-52704995D01*
X162004379Y-52149370D01*
X161448755Y-52149370D01*
X161448755Y-51593746D01*
X160893130Y-51593746D01*
X160893130Y-52704995D01*
X160337504Y-52704995D01*
X160337504Y-53260621D01*
X160893130Y-53260621D01*
X160893130Y-54371870D01*
X159781880Y-54371870D01*
X159781880Y-53816245D01*
X159226255Y-53816245D01*
X159226255Y-53260621D01*
X159781880Y-53260621D01*
X159781880Y-51593746D01*
X160337504Y-51593746D01*
X160337504Y-50482495D01*
X159781880Y-50482495D01*
X159781880Y-49371245D01*
X160337504Y-49371245D01*
X160337504Y-49926871D01*
X160893130Y-49926871D01*
X160893130Y-50482495D01*
X161448755Y-50482495D01*
X161448755Y-51038120D01*
X162004379Y-51038120D01*
X162004379Y-50482495D01*
X161448755Y-50482495D01*
X161448755Y-49926871D01*
X162004379Y-49926871D01*
X162004379Y-50482495D01*
X163115629Y-50482495D01*
X163115629Y-49926871D01*
X163671254Y-49926871D01*
X163671254Y-49371245D01*
X164226879Y-49371245D01*
X164226879Y-49926871D01*
X164782504Y-49926871D01*
X164782504Y-48815621D01*
X163671254Y-48815621D01*
X163671254Y-49371245D01*
X163115629Y-49371245D01*
X163115629Y-49926871D01*
X162560005Y-49926871D01*
X162560005Y-49371245D01*
X161448755Y-49371245D01*
X161448755Y-49926871D01*
X160893130Y-49926871D01*
X160893130Y-49371245D01*
X160337504Y-49371245D01*
X160337504Y-48815621D01*
X159781880Y-48815621D01*
X159781880Y-49371245D01*
X159226255Y-49371245D01*
X159226255Y-49926871D01*
X158670629Y-49926871D01*
X158670629Y-49371245D01*
X158115005Y-49371245D01*
X158115005Y-48815621D01*
X158670629Y-48815621D01*
X159226255Y-48815621D01*
X159226255Y-48259996D01*
X158670629Y-48259996D01*
X158670629Y-48815621D01*
X158115005Y-48815621D01*
X158115005Y-48259996D01*
X157003754Y-48259996D01*
X157003754Y-48815621D01*
X157559380Y-48815621D01*
X157559380Y-49371245D01*
X157003754Y-49371245D01*
X157003754Y-48815621D01*
X154781254Y-48815621D01*
X154781254Y-47704371D01*
X154225630Y-47704371D01*
X154225630Y-50482495D01*
X154781254Y-50482495D01*
X154781254Y-49371245D01*
X155336880Y-49371245D01*
X155336880Y-50482495D01*
X155892505Y-50482495D01*
X155892505Y-49371245D01*
X157003754Y-49371245D01*
X157003754Y-49926871D01*
X156448130Y-49926871D01*
X156448130Y-50482495D01*
X155892505Y-50482495D01*
X155892505Y-51038120D01*
X154781254Y-51038120D01*
X154781254Y-51593746D01*
X154225630Y-51593746D01*
X154225630Y-52149370D01*
X153114381Y-52149370D01*
X153114381Y-46593121D01*
X154225630Y-46593121D01*
X154781254Y-46593121D01*
X154781254Y-47148746D01*
X155336880Y-47148746D01*
X155336880Y-47704371D01*
X155892505Y-47704371D01*
X155892505Y-48259996D01*
X156448130Y-48259996D01*
X156448130Y-47704371D01*
X155892505Y-47704371D01*
X155892505Y-47148746D01*
X156448130Y-47148746D01*
X157003754Y-47148746D01*
X157003754Y-47704371D01*
X157559380Y-47704371D01*
X158115005Y-47704371D01*
X158670629Y-47704371D01*
X158670629Y-47148746D01*
X158115005Y-47148746D01*
X158115005Y-47704371D01*
X157559380Y-47704371D01*
X157559380Y-46593121D01*
X158115005Y-46593121D01*
X159226255Y-46593121D01*
X159226255Y-47148746D01*
X159781880Y-47148746D01*
X159781880Y-48259996D01*
X160893130Y-48259996D01*
X160893130Y-47704371D01*
X160337504Y-47704371D01*
X160337504Y-47148746D01*
X159781880Y-47148746D01*
X159781880Y-46593121D01*
X160337504Y-46593121D01*
X162004379Y-46593121D01*
X162004379Y-47704371D01*
X161448755Y-47704371D01*
X161448755Y-48259996D01*
X162004379Y-48259996D01*
X162004379Y-48815621D01*
X163671254Y-48815621D01*
X163671254Y-48259996D01*
X164226879Y-48259996D01*
X164226879Y-47704371D01*
X164782504Y-47704371D01*
X164782504Y-46593121D01*
X165893754Y-46593121D01*
X165893754Y-47704371D01*
X165338129Y-47704371D01*
X165338129Y-48815621D01*
X165893754Y-48815621D01*
X165893754Y-48259996D01*
X166449379Y-48259996D01*
X166449379Y-48815621D01*
X168116254Y-48815621D01*
X168116254Y-48259996D01*
X168671879Y-48259996D01*
X169227504Y-48259996D01*
X169783129Y-48259996D01*
X170338754Y-48259996D01*
X170338754Y-47704371D01*
X169783129Y-47704371D01*
X169783129Y-48259996D01*
X169227504Y-48259996D01*
X169227504Y-47148746D01*
X169783129Y-47148746D01*
X170338754Y-47148746D01*
X170338754Y-46037496D01*
X169783129Y-46037496D01*
X169783129Y-47148746D01*
X169227504Y-47148746D01*
X169227504Y-46593121D01*
X168671879Y-46593121D01*
X168671879Y-48259996D01*
X168116254Y-48259996D01*
X168116254Y-47704371D01*
X167560629Y-47704371D01*
X167560629Y-47148746D01*
X168116254Y-47148746D01*
X168116254Y-46593121D01*
X168671879Y-46593121D01*
X168671879Y-46037496D01*
X165338129Y-46037496D01*
X165338129Y-45481871D01*
X165893754Y-45481871D01*
X166449379Y-45481871D01*
X170338754Y-45481871D01*
X170338754Y-41592496D01*
X166449379Y-41592496D01*
X166449379Y-45481871D01*
X165893754Y-45481871D01*
X165893754Y-44926246D01*
X165338129Y-44926246D01*
X165338129Y-45481871D01*
X164782504Y-45481871D01*
X164782504Y-44926246D01*
X165338129Y-44926246D01*
X165338129Y-44370621D01*
X165893754Y-44370621D01*
X165893754Y-43814996D01*
X165338129Y-43814996D01*
X165338129Y-43259371D01*
X165893754Y-43259371D01*
X165893754Y-41592496D01*
X164782504Y-41592496D01*
X164782504Y-42148121D01*
X163671254Y-42148121D01*
X163671254Y-41592496D01*
X161448755Y-41592496D01*
X161448755Y-42703746D01*
X162004379Y-42703746D01*
X162004379Y-43259371D01*
X161448755Y-43259371D01*
X161448755Y-44370621D01*
X162004379Y-44370621D01*
X162004379Y-46037496D01*
X160337504Y-46037496D01*
X160337504Y-46593121D01*
X159781880Y-46593121D01*
X159781880Y-45481871D01*
X160337504Y-45481871D01*
X160893130Y-45481871D01*
X161448755Y-45481871D01*
X161448755Y-44926246D01*
X160893130Y-44926246D01*
X160893130Y-45481871D01*
X160337504Y-45481871D01*
X160337504Y-44926246D01*
X159781880Y-44926246D01*
X159781880Y-45481871D01*
X159226255Y-45481871D01*
X159226255Y-44926246D01*
X158670629Y-44926246D01*
X158670629Y-45481871D01*
X159226255Y-45481871D01*
X159226255Y-46037496D01*
X158115005Y-46037496D01*
X158115005Y-46593121D01*
X157559380Y-46593121D01*
X157003754Y-46593121D01*
X157003754Y-46037496D01*
X156448130Y-46037496D01*
X156448130Y-47148746D01*
X155892505Y-47148746D01*
X155892505Y-46037496D01*
X154225630Y-46037496D01*
X154225630Y-46593121D01*
X153114381Y-46593121D01*
X153114381Y-45481871D01*
X154225630Y-45481871D01*
X158115005Y-45481871D01*
X158115005Y-42148121D01*
X158670629Y-42148121D01*
X159226255Y-42148121D01*
X159226255Y-42703746D01*
X159781880Y-42703746D01*
X159781880Y-43259371D01*
X160337504Y-43259371D01*
X160337504Y-43814996D01*
X159226255Y-43814996D01*
X159226255Y-44370621D01*
X160337504Y-44370621D01*
X160337504Y-43814996D01*
X160893130Y-43814996D01*
X160893130Y-43259371D01*
X160337504Y-43259371D01*
X160337504Y-42703746D01*
X159781880Y-42703746D01*
X159781880Y-42148121D01*
X160337504Y-42148121D01*
X160337504Y-42703746D01*
X160893130Y-42703746D01*
X160893130Y-42148121D01*
X160337504Y-42148121D01*
X160337504Y-41592496D01*
X159781880Y-41592496D01*
X159781880Y-42148121D01*
X159226255Y-42148121D01*
X159226255Y-41592496D01*
X158670629Y-41592496D01*
X158670629Y-42148121D01*
X158115005Y-42148121D01*
X158115005Y-41592496D01*
X154225630Y-41592496D01*
X154225630Y-45481871D01*
X153114381Y-45481871D01*
X153114381Y-40481246D01*
X171450004Y-40481246D01*
X171450004Y-58816869D01*
X153114381Y-58816869D01*
G36*
X156448130Y-51593746D02*
G01*
X157003754Y-51593746D01*
X157003754Y-51038120D01*
X156448130Y-51038120D01*
X156448130Y-50482495D01*
X158670629Y-50482495D01*
X158670629Y-51038120D01*
X158115005Y-51038120D01*
X158115005Y-51593746D01*
X159226255Y-51593746D01*
X159226255Y-52704995D01*
X157559380Y-52704995D01*
X157559380Y-52149370D01*
X158115005Y-52149370D01*
X158115005Y-51593746D01*
X157559380Y-51593746D01*
X157559380Y-52149370D01*
X156448130Y-52149370D01*
X156448130Y-51593746D01*
X155892505Y-51593746D01*
X155892505Y-51038120D01*
X156448130Y-51038120D01*
X156448130Y-51593746D01*
G37*
X156448130Y-51593746D02*
X157003754Y-51593746D01*
X157003754Y-51038120D01*
X156448130Y-51038120D01*
X156448130Y-50482495D01*
X158670629Y-50482495D01*
X158670629Y-51038120D01*
X158115005Y-51038120D01*
X158115005Y-51593746D01*
X159226255Y-51593746D01*
X159226255Y-52704995D01*
X157559380Y-52704995D01*
X157559380Y-52149370D01*
X158115005Y-52149370D01*
X158115005Y-51593746D01*
X157559380Y-51593746D01*
X157559380Y-52149370D01*
X156448130Y-52149370D01*
X156448130Y-51593746D01*
X155892505Y-51593746D01*
X155892505Y-51038120D01*
X156448130Y-51038120D01*
X156448130Y-51593746D01*
G36*
X164782504Y-46593121D02*
G01*
X164226879Y-46593121D01*
X164226879Y-47704371D01*
X163115629Y-47704371D01*
X163115629Y-48259996D01*
X162560005Y-48259996D01*
X162560005Y-46593121D01*
X163115629Y-46593121D01*
X163115629Y-47148746D01*
X163671254Y-47148746D01*
X163671254Y-46037496D01*
X164782504Y-46037496D01*
X164782504Y-46593121D01*
G37*
X164782504Y-46593121D02*
X164226879Y-46593121D01*
X164226879Y-47704371D01*
X163115629Y-47704371D01*
X163115629Y-48259996D01*
X162560005Y-48259996D01*
X162560005Y-46593121D01*
X163115629Y-46593121D01*
X163115629Y-47148746D01*
X163671254Y-47148746D01*
X163671254Y-46037496D01*
X164782504Y-46037496D01*
X164782504Y-46593121D01*
D12*
X169755348Y-54399651D02*
X169755348Y-57122213D01*
X169755348Y-57122213D02*
X169755348Y-57122213D01*
X169755348Y-57122213D02*
X167032786Y-57122213D01*
X167032786Y-57122213D02*
X167032786Y-57122213D01*
X167032786Y-57122213D02*
X167032786Y-54399651D01*
X167032786Y-54399651D02*
X167032786Y-54399651D01*
X167032786Y-54399651D02*
X169755348Y-54399651D01*
X157531599Y-42175902D02*
X157531599Y-44898464D01*
X157531599Y-44898464D02*
X157531599Y-44898464D01*
X157531599Y-44898464D02*
X154809037Y-44898464D01*
X154809037Y-44898464D02*
X154809037Y-44898464D01*
X154809037Y-44898464D02*
X154809037Y-42175902D01*
X154809037Y-42175902D02*
X154809037Y-42175902D01*
X154809037Y-42175902D02*
X157531599Y-42175902D01*
X169755348Y-42175902D02*
X169755348Y-44898464D01*
X169755348Y-44898464D02*
X169755348Y-44898464D01*
X169755348Y-44898464D02*
X167032786Y-44898464D01*
X167032786Y-44898464D02*
X167032786Y-44898464D01*
X167032786Y-44898464D02*
X167032786Y-42175902D01*
X167032786Y-42175902D02*
X167032786Y-42175902D01*
X167032786Y-42175902D02*
X169755348Y-42175902D01*
M02*
