M48
; DRILL file {KiCad (6.0.7-1)-1} date 2022 September 07, Wednesday 09:16:32
; FORMAT={3:3/ absolute / metric / suppress leading zeros}
; #@! TF.CreationDate,2022-09-07T09:16:32+02:00
; #@! TF.GenerationSoftware,Kicad,Pcbnew,(6.0.7-1)-1
; #@! TF.FileFunction,MixedPlating,1,2
FMAT,2
METRIC,TZ
; #@! TA.AperFunction,Plated,PTH,ViaDrill
T1C0.350
; #@! TA.AperFunction,Plated,PTH,ViaDrill
T2C0.400
; #@! TA.AperFunction,Plated,PTH,ComponentDrill
T3C0.660
; #@! TA.AperFunction,Plated,PTH,ComponentDrill
T4C0.800
; #@! TA.AperFunction,Plated,PTH,ComponentDrill
T5C0.813
; #@! TA.AperFunction,Plated,PTH,ComponentDrill
T6C1.000
; #@! TA.AperFunction,Plated,PTH,ComponentDrill
T7C1.016
; #@! TA.AperFunction,NonPlated,NPTH,ComponentDrill
T8C3.200
; #@! TA.AperFunction,NonPlated,NPTH,ComponentDrill
T9C3.500
; #@! TA.AperFunction,NonPlated,NPTH,ComponentDrill
T10C15.000
%
G90
G05
T1
X102210Y-134607
X109753Y-70714
X109753Y-133921
X110439Y-99174
X110782Y-71399
X113449Y-108306
X113983Y-105804
X116726Y-99174
X116954Y-50025
X118897Y-111747
X120155Y-71171
X120269Y-72085
X120269Y-106261
X120561Y-63729
X120561Y-64999
X120561Y-66269
X120561Y-67539
X120561Y-68809
X120561Y-70079
X120561Y-98019
X120561Y-99289
X120561Y-100559
X120561Y-101829
X120561Y-103099
X120561Y-104369
X122441Y-121806
X124269Y-145466
X125298Y-116205
X125870Y-105918
X126556Y-117691
X127356Y-116891
X129985Y-111519
X130086Y-61824
X130086Y-64364
X130086Y-66904
X130086Y-69444
X130086Y-71984
X130086Y-74524
X130086Y-96114
X130086Y-98654
X130086Y-101194
X130086Y-103734
X130086Y-106274
X130086Y-108814
X132499Y-111519
X133299Y-147523
X133528Y-109118
X135585Y-58712
X136957Y-132664
X137414Y-56883
X141529Y-121691
X141529Y-127406
X142786Y-131521
X142900Y-123977
X142990Y-119558
X143358Y-58712
X143675Y-122276
X143701Y-93802
X144158Y-87401
X144158Y-117691
X144158Y-132664
X145072Y-116891
X146558Y-122834
X146672Y-131750
X147587Y-121806
X148501Y-112776
X149415Y-122149
X149987Y-121349
X150559Y-87859
X151016Y-130835
X151473Y-115519
X152159Y-121349
X152844Y-86144
X157480Y-48311
X163703Y-143751
X166916Y-64364
X166916Y-66904
X166916Y-69444
X166916Y-71984
X166916Y-74524
X166916Y-77064
X166916Y-98654
X166916Y-101194
X166916Y-103734
X166916Y-106274
X166916Y-108814
X166916Y-111354
X167475Y-114719
X167818Y-71399
X169189Y-146495
X169875Y-147180
X170332Y-121463
X172276Y-116091
X173304Y-119520
X173304Y-123406
X175133Y-147180
X176162Y-112205
X176390Y-47396
X176441Y-68809
X176441Y-70079
X176441Y-71349
X176441Y-72619
X176441Y-73889
X176441Y-75159
X176441Y-103099
X176441Y-104369
X176441Y-105639
X176441Y-106909
X176441Y-108179
X176441Y-109449
X176733Y-100774
X176848Y-66142
X177533Y-114719
X178219Y-110604
X179743Y-96886
X180048Y-101460
X180276Y-66827
X182334Y-49568
X186220Y-67513
X186220Y-101575
X191364Y-80086
T2
X101600Y-77470
X131500Y-79000
X134800Y-87000
X135000Y-79000
X139300Y-83400
X139900Y-86800
X140000Y-53000
X181500Y-53130
X190000Y-61500
X194000Y-63000
T3
X98235Y-72238
X98235Y-75830
X98235Y-134178
X98235Y-137770
X101827Y-72238
X101827Y-137770
X115735Y-54738
X115735Y-58330
X115735Y-151678
X115735Y-155270
X119327Y-54738
X119327Y-155270
X120561Y-137644
X123101Y-135104
X125641Y-137644
X171361Y-137644
X173901Y-135104
X176441Y-137644
X177675Y-54738
X177675Y-155270
X181267Y-54738
X181267Y-58330
X181267Y-151678
X181267Y-155270
X195175Y-72238
X195175Y-137770
X198767Y-72238
X198767Y-75830
X198767Y-134178
X198767Y-137770
T4
X92794Y-69271
X92794Y-140736
X95269Y-66796
X95269Y-143211
X110294Y-51771
X110294Y-158236
X112769Y-49296
X112769Y-160711
X146501Y-143750
X148501Y-143750
X150501Y-143750
X184234Y-49296
X184234Y-160711
X186709Y-51771
X186709Y-158236
X201734Y-66796
X201734Y-143211
X204209Y-69271
X204209Y-140736
T5
X89183Y-75422
X89183Y-134586
X90979Y-73626
X90979Y-136382
X98291Y-63774
X98291Y-146233
X100087Y-61978
X100087Y-148030
X101883Y-60182
X101883Y-149826
X103679Y-58386
X103679Y-151622
X105475Y-56590
X105475Y-153418
X107271Y-54793
X107271Y-155214
X117123Y-47482
X117123Y-162526
X118919Y-45686
X118919Y-164322
X124371Y-83414
X126911Y-83414
X129451Y-83414
X131991Y-83414
X134531Y-83414
X137071Y-83414
X138341Y-61824
X138341Y-64364
X138341Y-66904
X138341Y-69444
X138341Y-71984
X138341Y-74524
X138341Y-96114
X138341Y-98654
X138341Y-101194
X138341Y-103734
X138341Y-106274
X138341Y-108814
X141389Y-61824
X141389Y-64364
X141389Y-66904
X141389Y-69444
X141389Y-71984
X141389Y-74524
X141516Y-96114
X141516Y-98654
X141516Y-101194
X141516Y-103734
X141516Y-106274
X141516Y-108814
X142151Y-129388
X144691Y-61824
X144691Y-64364
X144691Y-66904
X144691Y-69444
X144691Y-71984
X144691Y-74524
X144691Y-77064
X144691Y-96114
X144691Y-98654
X144691Y-101194
X144691Y-103734
X144691Y-106274
X144691Y-108814
X144691Y-111354
X144691Y-129388
X147231Y-129388
X149771Y-129388
X152311Y-61824
X152311Y-64364
X152311Y-66904
X152311Y-69444
X152311Y-71984
X152311Y-74524
X152311Y-77064
X152311Y-96114
X152311Y-98654
X152311Y-101194
X152311Y-103734
X152311Y-106274
X152311Y-108814
X152311Y-111354
X152311Y-129388
X154851Y-129388
X155486Y-98654
X155486Y-101194
X155486Y-103734
X155486Y-106274
X155486Y-108814
X155486Y-111354
X155613Y-64364
X155613Y-66904
X155613Y-69444
X155613Y-71984
X155613Y-74524
X155613Y-77064
X158661Y-64364
X158661Y-66904
X158661Y-69444
X158661Y-71984
X158661Y-74524
X158661Y-77064
X158661Y-98654
X158661Y-101194
X158661Y-103734
X158661Y-106274
X158661Y-108814
X158661Y-111354
X161201Y-83414
X163741Y-83414
X166281Y-83414
X168821Y-83414
X171361Y-83414
X173901Y-83414
X178083Y-45686
X178083Y-164322
X179879Y-47482
X179879Y-162526
X189731Y-54793
X189731Y-155214
X191527Y-56590
X191527Y-153418
X193323Y-58386
X193323Y-151622
X195119Y-60182
X195119Y-149826
X196915Y-61978
X196915Y-148030
X198711Y-63774
X198711Y-146233
X206023Y-73626
X206023Y-136382
X207819Y-75422
X207819Y-134586
T6
X144501Y-143750
X152501Y-143750
T7
X120561Y-116434
X120561Y-118974
X128211Y-152594
X128211Y-156594
X130721Y-164694
X133261Y-164694
X168791Y-152594
X168791Y-156594
X176441Y-116434
X176441Y-118974
T8
X85501Y-105004
X148501Y-42004
X211501Y-105004
T9
X130211Y-132864
X138501Y-155004
X158501Y-155004
X166791Y-132864
T10
X148501Y-165004
T0
M30
