%TF.GenerationSoftware,KiCad,Pcbnew,(6.0.7)*%
%TF.CreationDate,2022-09-06T19:29:11+02:00*%
%TF.ProjectId,BattleBits_V4,42617474-6c65-4426-9974-735f56342e6b,rev?*%
%TF.SameCoordinates,Original*%
%TF.FileFunction,Paste,Top*%
%TF.FilePolarity,Positive*%
%FSLAX46Y46*%
G04 Gerber Fmt 4.6, Leading zero omitted, Abs format (unit mm)*
G04 Created by KiCad (PCBNEW (6.0.7)) date 2022-09-06 19:29:11*
%MOMM*%
%LPD*%
G01*
G04 APERTURE LIST*
%ADD10R,1.800000X1.600000*%
%ADD11R,1.200000X1.400000*%
%ADD12R,1.600000X0.600000*%
%ADD13R,1.600000X1.800000*%
%ADD14R,1.200000X0.700000*%
%ADD15R,2.032000X0.660400*%
%ADD16R,1.498600X2.006600*%
%ADD17R,3.810000X2.006600*%
%ADD18R,2.200000X0.600000*%
%ADD19R,2.540000X2.540000*%
%ADD20R,0.660400X2.032000*%
%ADD21R,0.700000X1.200000*%
G04 APERTURE END LIST*
D10*
%TO.C,R17*%
X154940000Y-50523600D03*
X154940000Y-47723600D03*
%TD*%
D11*
%TO.C,D16*%
X134761100Y-106273600D03*
X131761100Y-106273600D03*
%TD*%
%TO.C,D10*%
X162241100Y-71983600D03*
X165241100Y-71983600D03*
%TD*%
D12*
%TO.C,IC9*%
X125701100Y-147548600D03*
X125701100Y-146278600D03*
X125701100Y-145008600D03*
X125701100Y-143738600D03*
X120501100Y-143738600D03*
X120501100Y-145008600D03*
X120501100Y-146278600D03*
X120501100Y-147548600D03*
%TD*%
D13*
%TO.C,R15*%
X129280000Y-87413600D03*
X132080000Y-87413600D03*
%TD*%
%TO.C,R16*%
X166151100Y-87413600D03*
X168951100Y-87413600D03*
%TD*%
D10*
%TO.C,C2*%
X143421100Y-139423600D03*
X143421100Y-136623600D03*
%TD*%
%TO.C,C1*%
X153581100Y-136623600D03*
X153581100Y-139423600D03*
%TD*%
%TO.C,R18*%
X142240000Y-47723600D03*
X142240000Y-50523600D03*
%TD*%
%TO.C,R8*%
X173901100Y-126243600D03*
X173901100Y-129043600D03*
%TD*%
D11*
%TO.C,D21*%
X162241100Y-98653600D03*
X165241100Y-98653600D03*
%TD*%
D14*
%TO.C,U$6*%
X122871100Y-99923600D03*
X122871100Y-101193600D03*
X122871100Y-102463600D03*
X122871100Y-103733600D03*
X122871100Y-105003600D03*
X125871100Y-105003600D03*
X125871100Y-103733600D03*
X125871100Y-102463600D03*
X125871100Y-101193600D03*
X125871100Y-99923600D03*
%TD*%
D15*
%TO.C,IC2*%
X112407700Y-63728600D03*
X112407700Y-64998600D03*
X112407700Y-66268600D03*
X112407700Y-67538600D03*
X112407700Y-68808600D03*
X112407700Y-70078600D03*
X112407700Y-71348600D03*
X112407700Y-72618600D03*
X118554500Y-72618600D03*
X118554500Y-71348600D03*
X118554500Y-70078600D03*
X118554500Y-68808600D03*
X118554500Y-67538600D03*
X118554500Y-66268600D03*
X118554500Y-64998600D03*
X118554500Y-63728600D03*
%TD*%
D10*
%TO.C,R9*%
X123101100Y-126243600D03*
X123101100Y-129043600D03*
%TD*%
D14*
%TO.C,U$3*%
X141921100Y-54203600D03*
X141921100Y-55473600D03*
X141921100Y-56743600D03*
X141921100Y-58013600D03*
X141921100Y-59283600D03*
X144921100Y-59283600D03*
X144921100Y-58013600D03*
X144921100Y-56743600D03*
X144921100Y-55473600D03*
X144921100Y-54203600D03*
%TD*%
%TO.C,U$19*%
X122871100Y-65633600D03*
X122871100Y-66903600D03*
X122871100Y-68173600D03*
X122871100Y-69443600D03*
X122871100Y-70713600D03*
X125871100Y-70713600D03*
X125871100Y-69443600D03*
X125871100Y-68173600D03*
X125871100Y-66903600D03*
X125871100Y-65633600D03*
%TD*%
D11*
%TO.C,D18*%
X134761100Y-101193600D03*
X131761100Y-101193600D03*
%TD*%
D15*
%TO.C,IC5*%
X112407700Y-98018600D03*
X112407700Y-99288600D03*
X112407700Y-100558600D03*
X112407700Y-101828600D03*
X112407700Y-103098600D03*
X112407700Y-104368600D03*
X112407700Y-105638600D03*
X112407700Y-106908600D03*
X118554500Y-106908600D03*
X118554500Y-105638600D03*
X118554500Y-104368600D03*
X118554500Y-103098600D03*
X118554500Y-101828600D03*
X118554500Y-100558600D03*
X118554500Y-99288600D03*
X118554500Y-98018600D03*
%TD*%
D16*
%TO.C,IC10*%
X146240500Y-139903200D03*
X148526500Y-139903200D03*
X150812500Y-139903200D03*
D17*
X148501100Y-133604000D03*
%TD*%
D11*
%TO.C,D3*%
X134761100Y-69443600D03*
X131761100Y-69443600D03*
%TD*%
D14*
%TO.C,U$9*%
X174131100Y-107543600D03*
X174131100Y-106273600D03*
X174131100Y-105003600D03*
X174131100Y-103733600D03*
X174131100Y-102463600D03*
X171131100Y-102463600D03*
X171131100Y-103733600D03*
X171131100Y-105003600D03*
X171131100Y-106273600D03*
X171131100Y-107543600D03*
%TD*%
D11*
%TO.C,D25*%
X162241100Y-108813600D03*
X165241100Y-108813600D03*
%TD*%
D14*
%TO.C,U$11*%
X141921100Y-88493600D03*
X141921100Y-89763600D03*
X141921100Y-91033600D03*
X141921100Y-92303600D03*
X141921100Y-93573600D03*
X144921100Y-93573600D03*
X144921100Y-92303600D03*
X144921100Y-91033600D03*
X144921100Y-89763600D03*
X144921100Y-88493600D03*
%TD*%
D11*
%TO.C,D4*%
X134761100Y-66903600D03*
X131761100Y-66903600D03*
%TD*%
%TO.C,D22*%
X162241100Y-101193600D03*
X165241100Y-101193600D03*
%TD*%
%TO.C,D2*%
X134761100Y-71983600D03*
X131761100Y-71983600D03*
%TD*%
D10*
%TO.C,R13*%
X142240000Y-81759600D03*
X142240000Y-84559600D03*
%TD*%
D11*
%TO.C,D26*%
X162241100Y-111353600D03*
X165241100Y-111353600D03*
%TD*%
D12*
%TO.C,IC8*%
X171301100Y-143738600D03*
X171301100Y-145008600D03*
X171301100Y-146278600D03*
X171301100Y-147548600D03*
X176501100Y-147548600D03*
X176501100Y-146278600D03*
X176501100Y-145008600D03*
X176501100Y-143738600D03*
%TD*%
D10*
%TO.C,R12*%
X154940000Y-84559600D03*
X154940000Y-81759600D03*
%TD*%
D11*
%TO.C,D20*%
X134761100Y-96113600D03*
X131761100Y-96113600D03*
%TD*%
D18*
%TO.C,IC12*%
X151101100Y-86969600D03*
X151101100Y-85699600D03*
X151101100Y-84429600D03*
X151101100Y-83159600D03*
X151101100Y-81889600D03*
X151101100Y-80619600D03*
X151101100Y-79349600D03*
X145901100Y-79349600D03*
X145901100Y-80619600D03*
X145901100Y-81889600D03*
X145901100Y-83159600D03*
X145901100Y-84429600D03*
X145901100Y-85699600D03*
X145901100Y-86969600D03*
%TD*%
%TO.C,IC11*%
X145901100Y-45313600D03*
X145901100Y-46583600D03*
X145901100Y-47853600D03*
X145901100Y-49123600D03*
X145901100Y-50393600D03*
X145901100Y-51663600D03*
X145901100Y-52933600D03*
X151101100Y-52933600D03*
X151101100Y-51663600D03*
X151101100Y-50393600D03*
X151101100Y-49123600D03*
X151101100Y-47853600D03*
X151101100Y-46583600D03*
X151101100Y-45313600D03*
%TD*%
D11*
%TO.C,D11*%
X162241100Y-74523600D03*
X165241100Y-74523600D03*
%TD*%
D15*
%TO.C,IC6*%
X184594500Y-109448600D03*
X184594500Y-108178600D03*
X184594500Y-106908600D03*
X184594500Y-105638600D03*
X184594500Y-104368600D03*
X184594500Y-103098600D03*
X184594500Y-101828600D03*
X184594500Y-100558600D03*
X178447700Y-100558600D03*
X178447700Y-101828600D03*
X178447700Y-103098600D03*
X178447700Y-104368600D03*
X178447700Y-105638600D03*
X178447700Y-106908600D03*
X178447700Y-108178600D03*
X178447700Y-109448600D03*
%TD*%
%TO.C,IC4*%
X184594500Y-75158600D03*
X184594500Y-73888600D03*
X184594500Y-72618600D03*
X184594500Y-71348600D03*
X184594500Y-70078600D03*
X184594500Y-68808600D03*
X184594500Y-67538600D03*
X184594500Y-66268600D03*
X178447700Y-66268600D03*
X178447700Y-67538600D03*
X178447700Y-68808600D03*
X178447700Y-70078600D03*
X178447700Y-71348600D03*
X178447700Y-72618600D03*
X178447700Y-73888600D03*
X178447700Y-75158600D03*
%TD*%
D11*
%TO.C,D8*%
X162241100Y-66903600D03*
X165241100Y-66903600D03*
%TD*%
D19*
%TO.C,D13*%
X138341100Y-147993100D03*
X138341100Y-143294100D03*
%TD*%
D11*
%TO.C,D17*%
X134761100Y-103733600D03*
X131761100Y-103733600D03*
%TD*%
D13*
%TO.C,C4*%
X131861100Y-143103600D03*
X134661100Y-143103600D03*
%TD*%
%TO.C,C3*%
X131861100Y-148183600D03*
X134661100Y-148183600D03*
%TD*%
%TO.C,C6*%
X165141100Y-148183600D03*
X162341100Y-148183600D03*
%TD*%
%TO.C,C5*%
X165141100Y-143103600D03*
X162341100Y-143103600D03*
%TD*%
D11*
%TO.C,D23*%
X162241100Y-103733600D03*
X165241100Y-103733600D03*
%TD*%
%TO.C,D19*%
X134761100Y-98653600D03*
X131761100Y-98653600D03*
%TD*%
D14*
%TO.C,U$20*%
X152081100Y-88493600D03*
X152081100Y-89763600D03*
X152081100Y-91033600D03*
X152081100Y-92303600D03*
X152081100Y-93573600D03*
X155081100Y-93573600D03*
X155081100Y-92303600D03*
X155081100Y-91033600D03*
X155081100Y-89763600D03*
X155081100Y-88493600D03*
%TD*%
D11*
%TO.C,D9*%
X162241100Y-69443600D03*
X165241100Y-69443600D03*
%TD*%
D20*
%TO.C,IC7*%
X152946100Y-119710200D03*
X151676100Y-119710200D03*
X150406100Y-119710200D03*
X149136100Y-119710200D03*
X147866100Y-119710200D03*
X146596100Y-119710200D03*
X145326100Y-119710200D03*
X144056100Y-119710200D03*
X144056100Y-125857000D03*
X145326100Y-125857000D03*
X146596100Y-125857000D03*
X147866100Y-125857000D03*
X149136100Y-125857000D03*
X150406100Y-125857000D03*
X151676100Y-125857000D03*
X152946100Y-125857000D03*
%TD*%
D11*
%TO.C,D12*%
X162241100Y-77063600D03*
X165241100Y-77063600D03*
%TD*%
%TO.C,D15*%
X134761100Y-108813600D03*
X131761100Y-108813600D03*
%TD*%
%TO.C,D5*%
X134761100Y-64363600D03*
X131761100Y-64363600D03*
%TD*%
D14*
%TO.C,U$5*%
X174131100Y-73253600D03*
X174131100Y-71983600D03*
X174131100Y-70713600D03*
X174131100Y-69443600D03*
X174131100Y-68173600D03*
X171131100Y-68173600D03*
X171131100Y-69443600D03*
X171131100Y-70713600D03*
X171131100Y-71983600D03*
X171131100Y-73253600D03*
%TD*%
D11*
%TO.C,D7*%
X162241100Y-64363600D03*
X165241100Y-64363600D03*
%TD*%
D14*
%TO.C,U$10*%
X152081100Y-54203600D03*
X152081100Y-55473600D03*
X152081100Y-56743600D03*
X152081100Y-58013600D03*
X152081100Y-59283600D03*
X155081100Y-59283600D03*
X155081100Y-58013600D03*
X155081100Y-56743600D03*
X155081100Y-55473600D03*
X155081100Y-54203600D03*
%TD*%
D11*
%TO.C,D24*%
X162241100Y-106273600D03*
X165241100Y-106273600D03*
%TD*%
%TO.C,D1*%
X134761100Y-74523600D03*
X131761100Y-74523600D03*
%TD*%
%TO.C,D6*%
X134761100Y-61823600D03*
X131761100Y-61823600D03*
%TD*%
D21*
%TO.C,U$4*%
X145961100Y-116917600D03*
X147231100Y-116917600D03*
X148501100Y-116917600D03*
X149771100Y-116917600D03*
X151041100Y-116917600D03*
X151041100Y-113917600D03*
X149771100Y-113917600D03*
X148501100Y-113917600D03*
X147231100Y-113917600D03*
X145961100Y-113917600D03*
%TD*%
M02*
