%TF.GenerationSoftware,KiCad,Pcbnew,(6.0.7)*%
%TF.CreationDate,2022-09-06T19:29:11+02:00*%
%TF.ProjectId,BattleBits_V4,42617474-6c65-4426-9974-735f56342e6b,rev?*%
%TF.SameCoordinates,Original*%
%TF.FileFunction,Other,User*%
%FSLAX46Y46*%
G04 Gerber Fmt 4.6, Leading zero omitted, Abs format (unit mm)*
G04 Created by KiCad (PCBNEW (6.0.7)) date 2022-09-06 19:29:11*
%MOMM*%
%LPD*%
G01*
G04 APERTURE LIST*
%ADD10C,0.113792*%
%ADD11C,0.152400*%
%ADD12C,0.304800*%
%ADD13C,0.142240*%
%ADD14C,0.160000*%
%ADD15C,0.081280*%
G04 APERTURE END LIST*
D10*
X108295685Y-141434461D02*
X106987077Y-141434461D01*
X107610224Y-141434461D02*
X107610224Y-140686685D01*
X108295685Y-140686685D02*
X106987077Y-140686685D01*
X107797168Y-140063539D02*
X107797168Y-139066504D01*
X107610224Y-138007155D02*
X107672538Y-137820211D01*
X107734853Y-137757896D01*
X107859482Y-137695581D01*
X108046426Y-137695581D01*
X108171056Y-137757896D01*
X108233370Y-137820211D01*
X108295685Y-137944840D01*
X108295685Y-138443357D01*
X106987077Y-138443357D01*
X106987077Y-138007155D01*
X107049392Y-137882525D01*
X107111706Y-137820211D01*
X107236336Y-137757896D01*
X107360965Y-137757896D01*
X107485594Y-137820211D01*
X107547909Y-137882525D01*
X107610224Y-138007155D01*
X107610224Y-138443357D01*
X108295685Y-137134749D02*
X107423280Y-137134749D01*
X107672538Y-137134749D02*
X107547909Y-137072435D01*
X107485594Y-137010120D01*
X107423280Y-136885491D01*
X107423280Y-136760861D01*
X108295685Y-136324659D02*
X107423280Y-136324659D01*
X106987077Y-136324659D02*
X107049392Y-136386973D01*
X107111706Y-136324659D01*
X107049392Y-136262344D01*
X106987077Y-136324659D01*
X107111706Y-136324659D01*
X108295685Y-135140680D02*
X106987077Y-135140680D01*
X108233370Y-135140680D02*
X108295685Y-135265309D01*
X108295685Y-135514568D01*
X108233370Y-135639197D01*
X108171056Y-135701512D01*
X108046426Y-135763827D01*
X107672538Y-135763827D01*
X107547909Y-135701512D01*
X107485594Y-135639197D01*
X107423280Y-135514568D01*
X107423280Y-135265309D01*
X107485594Y-135140680D01*
X107423280Y-133956701D02*
X108482629Y-133956701D01*
X108607258Y-134019016D01*
X108669573Y-134081331D01*
X108731888Y-134205960D01*
X108731888Y-134392904D01*
X108669573Y-134517533D01*
X108233370Y-133956701D02*
X108295685Y-134081331D01*
X108295685Y-134330589D01*
X108233370Y-134455219D01*
X108171056Y-134517533D01*
X108046426Y-134579848D01*
X107672538Y-134579848D01*
X107547909Y-134517533D01*
X107485594Y-134455219D01*
X107423280Y-134330589D01*
X107423280Y-134081331D01*
X107485594Y-133956701D01*
X108233370Y-132835037D02*
X108295685Y-132959667D01*
X108295685Y-133208925D01*
X108233370Y-133333555D01*
X108108741Y-133395869D01*
X107610224Y-133395869D01*
X107485594Y-133333555D01*
X107423280Y-133208925D01*
X107423280Y-132959667D01*
X107485594Y-132835037D01*
X107610224Y-132772723D01*
X107734853Y-132772723D01*
X107859482Y-133395869D01*
X108295685Y-131214856D02*
X107423280Y-131214856D01*
X107547909Y-131214856D02*
X107485594Y-131152541D01*
X107423280Y-131027912D01*
X107423280Y-130840968D01*
X107485594Y-130716339D01*
X107610224Y-130654024D01*
X108295685Y-130654024D01*
X107610224Y-130654024D02*
X107485594Y-130591709D01*
X107423280Y-130467080D01*
X107423280Y-130280136D01*
X107485594Y-130155507D01*
X107610224Y-130093192D01*
X108295685Y-130093192D01*
X108295685Y-129283101D02*
X108233370Y-129407731D01*
X108171056Y-129470045D01*
X108046426Y-129532360D01*
X107672538Y-129532360D01*
X107547909Y-129470045D01*
X107485594Y-129407731D01*
X107423280Y-129283101D01*
X107423280Y-129096157D01*
X107485594Y-128971528D01*
X107547909Y-128909213D01*
X107672538Y-128846899D01*
X108046426Y-128846899D01*
X108171056Y-128909213D01*
X108233370Y-128971528D01*
X108295685Y-129096157D01*
X108295685Y-129283101D01*
X107423280Y-128473011D02*
X107423280Y-127974493D01*
X106987077Y-128286067D02*
X108108741Y-128286067D01*
X108233370Y-128223752D01*
X108295685Y-128099123D01*
X108295685Y-127974493D01*
X108295685Y-127351347D02*
X108233370Y-127475976D01*
X108171056Y-127538291D01*
X108046426Y-127600605D01*
X107672538Y-127600605D01*
X107547909Y-127538291D01*
X107485594Y-127475976D01*
X107423280Y-127351347D01*
X107423280Y-127164403D01*
X107485594Y-127039773D01*
X107547909Y-126977459D01*
X107672538Y-126915144D01*
X108046426Y-126915144D01*
X108171056Y-126977459D01*
X108233370Y-127039773D01*
X108295685Y-127164403D01*
X108295685Y-127351347D01*
X108295685Y-126354312D02*
X107423280Y-126354312D01*
X107672538Y-126354312D02*
X107547909Y-126291997D01*
X107485594Y-126229683D01*
X107423280Y-126105053D01*
X107423280Y-125980424D01*
X108295685Y-123986355D02*
X106987077Y-123986355D01*
X108233370Y-123986355D02*
X108295685Y-124110984D01*
X108295685Y-124360243D01*
X108233370Y-124484872D01*
X108171056Y-124547187D01*
X108046426Y-124609501D01*
X107672538Y-124609501D01*
X107547909Y-124547187D01*
X107485594Y-124484872D01*
X107423280Y-124360243D01*
X107423280Y-124110984D01*
X107485594Y-123986355D01*
X108295685Y-123363208D02*
X107423280Y-123363208D01*
X107672538Y-123363208D02*
X107547909Y-123300893D01*
X107485594Y-123238579D01*
X107423280Y-123113949D01*
X107423280Y-122989320D01*
X108295685Y-122553117D02*
X107423280Y-122553117D01*
X106987077Y-122553117D02*
X107049392Y-122615432D01*
X107111706Y-122553117D01*
X107049392Y-122490803D01*
X106987077Y-122553117D01*
X107111706Y-122553117D01*
X107423280Y-122054600D02*
X108295685Y-121743027D01*
X107423280Y-121431453D01*
X108233370Y-120434419D02*
X108295685Y-120559048D01*
X108295685Y-120808307D01*
X108233370Y-120932936D01*
X108108741Y-120995251D01*
X107610224Y-120995251D01*
X107485594Y-120932936D01*
X107423280Y-120808307D01*
X107423280Y-120559048D01*
X107485594Y-120434419D01*
X107610224Y-120372104D01*
X107734853Y-120372104D01*
X107859482Y-120995251D01*
X108295685Y-119811272D02*
X107423280Y-119811272D01*
X107672538Y-119811272D02*
X107547909Y-119748957D01*
X107485594Y-119686643D01*
X107423280Y-119562013D01*
X107423280Y-119437384D01*
D11*
X161844934Y-85940159D02*
X163095000Y-85940000D01*
X163095000Y-85940000D02*
X165635000Y-85940000D01*
X166270000Y-85305000D02*
X165635000Y-85940000D01*
X163730000Y-85305000D02*
X163095000Y-85940000D01*
X136348255Y-85997969D02*
X133860000Y-86000000D01*
X135160000Y-86000000D02*
X132620000Y-86000000D01*
X131985000Y-85365000D02*
X132620000Y-86000000D01*
X134525000Y-85365000D02*
X135160000Y-86000000D01*
D12*
X119280000Y-82130000D02*
X120550000Y-80860000D01*
D10*
X176398594Y-95229077D02*
X177146370Y-95229077D01*
X176772482Y-96537685D02*
X176772482Y-95229077D01*
X177582572Y-96537685D02*
X177582572Y-95665280D01*
X177582572Y-95914538D02*
X177644887Y-95789909D01*
X177707202Y-95727594D01*
X177831831Y-95665280D01*
X177956460Y-95665280D01*
X178953495Y-96537685D02*
X178953495Y-95852224D01*
X178891180Y-95727594D01*
X178766551Y-95665280D01*
X178517292Y-95665280D01*
X178392663Y-95727594D01*
X178953495Y-96475370D02*
X178828866Y-96537685D01*
X178517292Y-96537685D01*
X178392663Y-96475370D01*
X178330348Y-96350741D01*
X178330348Y-96226112D01*
X178392663Y-96101482D01*
X178517292Y-96039168D01*
X178828866Y-96039168D01*
X178953495Y-95976853D01*
X179576642Y-95665280D02*
X179576642Y-96537685D01*
X179576642Y-95789909D02*
X179638956Y-95727594D01*
X179763586Y-95665280D01*
X179950530Y-95665280D01*
X180075159Y-95727594D01*
X180137474Y-95852224D01*
X180137474Y-96537685D01*
X180698306Y-96475370D02*
X180822935Y-96537685D01*
X181072194Y-96537685D01*
X181196823Y-96475370D01*
X181259138Y-96350741D01*
X181259138Y-96288426D01*
X181196823Y-96163797D01*
X181072194Y-96101482D01*
X180885250Y-96101482D01*
X180760620Y-96039168D01*
X180698306Y-95914538D01*
X180698306Y-95852224D01*
X180760620Y-95727594D01*
X180885250Y-95665280D01*
X181072194Y-95665280D01*
X181196823Y-95727594D01*
X181819970Y-96537685D02*
X181819970Y-95665280D01*
X181819970Y-95229077D02*
X181757655Y-95291392D01*
X181819970Y-95353706D01*
X181882284Y-95291392D01*
X181819970Y-95229077D01*
X181819970Y-95353706D01*
X182380802Y-96475370D02*
X182505431Y-96537685D01*
X182754690Y-96537685D01*
X182879319Y-96475370D01*
X182941634Y-96350741D01*
X182941634Y-96288426D01*
X182879319Y-96163797D01*
X182754690Y-96101482D01*
X182567746Y-96101482D01*
X182443116Y-96039168D01*
X182380802Y-95914538D01*
X182380802Y-95852224D01*
X182443116Y-95727594D01*
X182567746Y-95665280D01*
X182754690Y-95665280D01*
X182879319Y-95727594D01*
X183315522Y-95665280D02*
X183814039Y-95665280D01*
X183502466Y-95229077D02*
X183502466Y-96350741D01*
X183564780Y-96475370D01*
X183689410Y-96537685D01*
X183814039Y-96537685D01*
X184437186Y-96537685D02*
X184312556Y-96475370D01*
X184250242Y-96413056D01*
X184187927Y-96288426D01*
X184187927Y-95914538D01*
X184250242Y-95789909D01*
X184312556Y-95727594D01*
X184437186Y-95665280D01*
X184624130Y-95665280D01*
X184748759Y-95727594D01*
X184811074Y-95789909D01*
X184873388Y-95914538D01*
X184873388Y-96288426D01*
X184811074Y-96413056D01*
X184748759Y-96475370D01*
X184624130Y-96537685D01*
X184437186Y-96537685D01*
X185434220Y-96537685D02*
X185434220Y-95665280D01*
X185434220Y-95914538D02*
X185496535Y-95789909D01*
X185558850Y-95727594D01*
X185683479Y-95665280D01*
X185808108Y-95665280D01*
X187179031Y-96163797D02*
X187802178Y-96163797D01*
X187054402Y-96537685D02*
X187490604Y-95229077D01*
X187926807Y-96537685D01*
X188363010Y-96537685D02*
X188363010Y-95665280D01*
X188363010Y-95914538D02*
X188425324Y-95789909D01*
X188487639Y-95727594D01*
X188612268Y-95665280D01*
X188736898Y-95665280D01*
X189173100Y-96537685D02*
X189173100Y-95665280D01*
X189173100Y-95914538D02*
X189235415Y-95789909D01*
X189297730Y-95727594D01*
X189422359Y-95665280D01*
X189546988Y-95665280D01*
X190544023Y-96537685D02*
X190544023Y-95852224D01*
X190481708Y-95727594D01*
X190357079Y-95665280D01*
X190107820Y-95665280D01*
X189983191Y-95727594D01*
X190544023Y-96475370D02*
X190419394Y-96537685D01*
X190107820Y-96537685D01*
X189983191Y-96475370D01*
X189920876Y-96350741D01*
X189920876Y-96226112D01*
X189983191Y-96101482D01*
X190107820Y-96039168D01*
X190419394Y-96039168D01*
X190544023Y-95976853D01*
X191042540Y-95665280D02*
X191354114Y-96537685D01*
X191665687Y-95665280D02*
X191354114Y-96537685D01*
X191229484Y-96849258D01*
X191167170Y-96911573D01*
X191042540Y-96973888D01*
D12*
X105310000Y-59905000D02*
X107300000Y-59905000D01*
D11*
X124360000Y-83400000D02*
X124360000Y-85305000D01*
X130075000Y-89750000D02*
X127535000Y-89750000D01*
D12*
X103405000Y-148170000D02*
X103405000Y-146265000D01*
X103405000Y-63715000D02*
X98325000Y-68795000D01*
X118010000Y-46570000D02*
X116740000Y-45300000D01*
X103405000Y-58000000D02*
X105310000Y-59905000D01*
X184685000Y-158965000D02*
X184685000Y-155155000D01*
X208180000Y-70700000D02*
X199290000Y-61810000D01*
X88800000Y-136740000D02*
X88800000Y-139280000D01*
X193575000Y-148170000D02*
X193575000Y-146265000D01*
X197131000Y-148170000D02*
X197004000Y-148043000D01*
D11*
X174525000Y-85940000D02*
X177065000Y-85940000D01*
D12*
X172620000Y-77050000D02*
X172620000Y-74510000D01*
X145315000Y-127215000D02*
X129440000Y-127215000D01*
D11*
X163730000Y-83400000D02*
X163730000Y-85305000D01*
D12*
X115470000Y-98640000D02*
X115470000Y-96100000D01*
X152300000Y-46570000D02*
X165000000Y-46570000D01*
X180240000Y-164680000D02*
X182780000Y-164680000D01*
X148490000Y-96100000D02*
X149760000Y-94830000D01*
D11*
X126900000Y-85305000D02*
X126265000Y-85940000D01*
D12*
X130710000Y-77050000D02*
X143410000Y-77050000D01*
D11*
X171985000Y-85940000D02*
X174525000Y-85940000D01*
D12*
X98325000Y-141185000D02*
X103405000Y-146265000D01*
D11*
X166270000Y-83400000D02*
X166270000Y-85305000D01*
D12*
X112300000Y-54900000D02*
X107300000Y-59905000D01*
D11*
X126265000Y-85940000D02*
X123725000Y-85940000D01*
X129440000Y-83400000D02*
X129440000Y-85305000D01*
D12*
X114200000Y-164680000D02*
X105310000Y-155790000D01*
X130710000Y-111340000D02*
X143410000Y-111340000D01*
D11*
X168810000Y-83400000D02*
X168810000Y-85305000D01*
D12*
X198655000Y-68795000D02*
X193575000Y-63715000D01*
X116740000Y-164680000D02*
X114200000Y-164680000D01*
X153449000Y-152990000D02*
X155475000Y-150964000D01*
D11*
X131980000Y-83400000D02*
X131980000Y-85305000D01*
D12*
X93880000Y-68160000D02*
X94515000Y-68795000D01*
X152300000Y-130390000D02*
X152300000Y-129120000D01*
D11*
X168810000Y-85305000D02*
X169445000Y-85940000D01*
D12*
X114200000Y-94830000D02*
X104800000Y-94830000D01*
X124360000Y-74510000D02*
X123700000Y-75200000D01*
X182780000Y-164680000D02*
X191670000Y-155790000D01*
X191670000Y-150075000D02*
X189765000Y-150075000D01*
X177700000Y-82130000D02*
X172620000Y-77050000D01*
D11*
X171350000Y-83400000D02*
X171350000Y-85305000D01*
X137060000Y-83400000D02*
X137060000Y-85305000D01*
D12*
X112295000Y-158965000D02*
X112295000Y-155155000D01*
X90070000Y-135470000D02*
X88800000Y-136740000D01*
D11*
X134520000Y-83400000D02*
X134520000Y-85305000D01*
X173890000Y-85305000D02*
X174525000Y-85940000D01*
D12*
X202465000Y-141185000D02*
X198655000Y-141185000D01*
X184685000Y-155155000D02*
X189765000Y-150075000D01*
X208180000Y-139280000D02*
X199290000Y-148170000D01*
X149760000Y-94830000D02*
X170080000Y-94830000D01*
X149760000Y-129120000D02*
X151665000Y-127215000D01*
X107215000Y-150075000D02*
X112295000Y-155155000D01*
X88800000Y-73240000D02*
X88800000Y-70700000D01*
X191670000Y-59905000D02*
X189765000Y-59905000D01*
X109120000Y-141820000D02*
X109120000Y-120230000D01*
X182780000Y-45300000D02*
X191670000Y-54190000D01*
D11*
X171350000Y-85305000D02*
X171985000Y-85940000D01*
D12*
X206910000Y-74510000D02*
X208180000Y-73240000D01*
D11*
X168175000Y-89750000D02*
X177065000Y-89750000D01*
D12*
X112295000Y-51100000D02*
X112300000Y-54900000D01*
X186590000Y-141820000D02*
X186590000Y-120230000D01*
X147220000Y-129120000D02*
X145315000Y-127215000D01*
X148490000Y-61810000D02*
X149760000Y-60540000D01*
X149760000Y-60540000D02*
X170080000Y-60540000D01*
X195480000Y-150075000D02*
X193575000Y-148170000D01*
X90070000Y-74510000D02*
X88800000Y-73240000D01*
X115470000Y-96100000D02*
X114200000Y-94830000D01*
X181510000Y-98640000D02*
X182780000Y-97370000D01*
X199290000Y-61810000D02*
X197004000Y-61810000D01*
D11*
X124360000Y-85305000D02*
X123725000Y-85940000D01*
D12*
X191670000Y-153504000D02*
X191543000Y-153377000D01*
X191670000Y-56349000D02*
X191543000Y-56476000D01*
X151665000Y-127215000D02*
X167540000Y-127215000D01*
X184685000Y-51015000D02*
X184685000Y-54825000D01*
X178970000Y-163410000D02*
X180240000Y-164680000D01*
X122300000Y-75200000D02*
X120550000Y-77050000D01*
D11*
X132615000Y-89750000D02*
X130075000Y-89750000D01*
D12*
X105310000Y-54190000D02*
X105310000Y-56476000D01*
X101500000Y-59905000D02*
X103405000Y-61810000D01*
D11*
X137060000Y-85305000D02*
X132615000Y-89750000D01*
D12*
X105310000Y-153631000D02*
X105437000Y-153504000D01*
X166270000Y-96100000D02*
X152300000Y-96100000D01*
X185320000Y-50380000D02*
X184685000Y-51015000D01*
D11*
X169445000Y-85940000D02*
X171985000Y-85940000D01*
D12*
X124360000Y-71970000D02*
X124360000Y-74510000D01*
X94515000Y-141185000D02*
X98325000Y-141185000D01*
D11*
X161190000Y-85305000D02*
X165635000Y-89750000D01*
D12*
X120550000Y-80860000D02*
X120550000Y-77050000D01*
D11*
X126900000Y-83400000D02*
X126900000Y-85305000D01*
X119915000Y-89750000D02*
X127535000Y-89750000D01*
X165635000Y-89750000D02*
X168175000Y-89750000D01*
D12*
X208180000Y-136740000D02*
X208180000Y-139280000D01*
X112930000Y-145630000D02*
X109120000Y-141820000D01*
X180240000Y-45300000D02*
X182780000Y-45300000D01*
X88800000Y-70700000D02*
X97690000Y-61810000D01*
X178970000Y-46570000D02*
X180240000Y-45300000D01*
X105310000Y-155790000D02*
X105310000Y-153631000D01*
X103405000Y-61810000D02*
X103405000Y-63715000D01*
X116740000Y-45300000D02*
X114200000Y-45300000D01*
X88800000Y-139280000D02*
X97690000Y-148170000D01*
X202465000Y-68795000D02*
X198655000Y-68795000D01*
X191670000Y-82130000D02*
X177700000Y-82130000D01*
X203100000Y-141820000D02*
X202465000Y-141185000D01*
X197004000Y-61810000D02*
X196877000Y-61937000D01*
X101500000Y-150075000D02*
X103405000Y-148170000D01*
X147220000Y-152996000D02*
X143537000Y-152996000D01*
X182780000Y-97370000D02*
X191670000Y-97370000D01*
X191670000Y-54190000D02*
X191670000Y-56349000D01*
X203100000Y-68160000D02*
X202465000Y-68795000D01*
X185320000Y-159600000D02*
X184685000Y-158965000D01*
X118010000Y-163410000D02*
X116740000Y-164680000D01*
X93880000Y-141820000D02*
X94515000Y-141185000D01*
X193575000Y-151980000D02*
X191670000Y-150075000D01*
X119280000Y-82130000D02*
X104800000Y-82130000D01*
X97690000Y-61810000D02*
X99849000Y-61810000D01*
X177700000Y-145630000D02*
X182780000Y-145630000D01*
D11*
X176176000Y-139026000D02*
G75*
G03*
X171604000Y-139026000I-2286000J0D01*
G01*
D12*
X182780000Y-145630000D02*
X186590000Y-141820000D01*
D11*
X123725000Y-85940000D02*
X119915000Y-85940000D01*
D12*
X193575000Y-58000000D02*
X191670000Y-59905000D01*
X94515000Y-68795000D02*
X98325000Y-68795000D01*
X189765000Y-59905000D02*
X184685000Y-54825000D01*
X191670000Y-155790000D02*
X191670000Y-153504000D01*
X149490000Y-152990000D02*
X153449000Y-152990000D01*
X105310000Y-150075000D02*
X107215000Y-150075000D01*
D11*
X161190000Y-83400000D02*
X161190000Y-85305000D01*
D12*
X208180000Y-73240000D02*
X208180000Y-70700000D01*
X152300000Y-80860000D02*
X165000000Y-80860000D01*
D11*
X128805000Y-85940000D02*
X126265000Y-85940000D01*
D12*
X144680000Y-130390000D02*
X144680000Y-129120000D01*
D11*
X125376000Y-139026000D02*
G75*
G03*
X120804000Y-139026000I-2286000J0D01*
G01*
D12*
X166270000Y-61810000D02*
X153570000Y-61810000D01*
X99976000Y-148170000D02*
X100103000Y-148043000D01*
X206910000Y-135470000D02*
X208180000Y-136740000D01*
X199290000Y-148170000D02*
X197131000Y-148170000D01*
X97690000Y-148170000D02*
X99976000Y-148170000D01*
X193575000Y-61810000D02*
X193575000Y-63715000D01*
D11*
X173890000Y-83400000D02*
X173890000Y-85305000D01*
D12*
X99849000Y-61810000D02*
X99976000Y-61937000D01*
X144680000Y-130390000D02*
X134520000Y-140550000D01*
X123700000Y-75200000D02*
X122300000Y-75200000D01*
X193575000Y-146265000D02*
X198655000Y-141185000D01*
X181510000Y-101180000D02*
X181510000Y-98640000D01*
X111660000Y-159600000D02*
X112295000Y-158965000D01*
X105310000Y-56476000D02*
X105437000Y-56603000D01*
X111600000Y-50400000D02*
X112295000Y-51100000D01*
X114200000Y-45300000D02*
X105310000Y-54190000D01*
X142140000Y-129120000D02*
X131980000Y-139280000D01*
X103405000Y-151980000D02*
X105310000Y-150075000D01*
X195480000Y-59905000D02*
X193575000Y-61810000D01*
X162460000Y-140550000D02*
X152300000Y-130390000D01*
X119280000Y-145630000D02*
X112930000Y-145630000D01*
D11*
X129440000Y-85305000D02*
X128805000Y-85940000D01*
D12*
X165000000Y-139280000D02*
X154840000Y-129120000D01*
X143537000Y-152996000D02*
X141505000Y-150964000D01*
D10*
X168560741Y-72561989D02*
X167812965Y-72561989D01*
X168186853Y-72561989D02*
X168186853Y-71253381D01*
X168062224Y-71440325D01*
X167937594Y-71564954D01*
X167812965Y-71627269D01*
X169370832Y-71253381D02*
X169495461Y-71253381D01*
X169620090Y-71315696D01*
X169682405Y-71378010D01*
X169744720Y-71502640D01*
X169807034Y-71751898D01*
X169807034Y-72063472D01*
X169744720Y-72312730D01*
X169682405Y-72437360D01*
X169620090Y-72499674D01*
X169495461Y-72561989D01*
X169370832Y-72561989D01*
X169246202Y-72499674D01*
X169183888Y-72437360D01*
X169121573Y-72312730D01*
X169059258Y-72063472D01*
X169059258Y-71751898D01*
X169121573Y-71502640D01*
X169183888Y-71378010D01*
X169246202Y-71315696D01*
X169370832Y-71253381D01*
X168560741Y-67481989D02*
X167812965Y-67481989D01*
X168186853Y-67481989D02*
X168186853Y-66173381D01*
X168062224Y-66360325D01*
X167937594Y-66484954D01*
X167812965Y-66547269D01*
X169059258Y-66298010D02*
X169121573Y-66235696D01*
X169246202Y-66173381D01*
X169557776Y-66173381D01*
X169682405Y-66235696D01*
X169744720Y-66298010D01*
X169807034Y-66422640D01*
X169807034Y-66547269D01*
X169744720Y-66734213D01*
X168996944Y-67481989D01*
X169807034Y-67481989D01*
X168560741Y-70021989D02*
X167812965Y-70021989D01*
X168186853Y-70021989D02*
X168186853Y-68713381D01*
X168062224Y-68900325D01*
X167937594Y-69024954D01*
X167812965Y-69087269D01*
X169807034Y-70021989D02*
X169059258Y-70021989D01*
X169433146Y-70021989D02*
X169433146Y-68713381D01*
X169308517Y-68900325D01*
X169183888Y-69024954D01*
X169059258Y-69087269D01*
X127733797Y-110623381D02*
X128606202Y-110623381D01*
X128045370Y-111931989D01*
X128481573Y-105543381D02*
X127858426Y-105543381D01*
X127796112Y-106166528D01*
X127858426Y-106104213D01*
X127983056Y-106041898D01*
X128294629Y-106041898D01*
X128419258Y-106104213D01*
X128481573Y-106166528D01*
X128543888Y-106291157D01*
X128543888Y-106602730D01*
X128481573Y-106727360D01*
X128419258Y-106789674D01*
X128294629Y-106851989D01*
X127983056Y-106851989D01*
X127858426Y-106789674D01*
X127796112Y-106727360D01*
X127796112Y-63758010D02*
X127858426Y-63695696D01*
X127983056Y-63633381D01*
X128294629Y-63633381D01*
X128419258Y-63695696D01*
X128481573Y-63758010D01*
X128543888Y-63882640D01*
X128543888Y-64007269D01*
X128481573Y-64194213D01*
X127733797Y-64941989D01*
X128543888Y-64941989D01*
X104811347Y-89033381D02*
X105247549Y-90341989D01*
X105683752Y-89033381D01*
X106119955Y-90341989D02*
X106119955Y-89033381D01*
X106431528Y-89033381D01*
X106618472Y-89095696D01*
X106743101Y-89220325D01*
X106805416Y-89344954D01*
X106867731Y-89594213D01*
X106867731Y-89781157D01*
X106805416Y-90030416D01*
X106743101Y-90155045D01*
X106618472Y-90279674D01*
X106431528Y-90341989D01*
X106119955Y-90341989D01*
X107428563Y-90341989D02*
X107428563Y-89033381D01*
X107740136Y-89033381D01*
X107927080Y-89095696D01*
X108051709Y-89220325D01*
X108114024Y-89344954D01*
X108176339Y-89594213D01*
X108176339Y-89781157D01*
X108114024Y-90030416D01*
X108051709Y-90155045D01*
X107927080Y-90279674D01*
X107740136Y-90341989D01*
X107428563Y-90341989D01*
X110668925Y-88971066D02*
X109547261Y-90653562D01*
X112725309Y-90341989D02*
X112102163Y-90341989D01*
X112102163Y-89033381D01*
X113348456Y-90341989D02*
X113223827Y-90279674D01*
X113161512Y-90217360D01*
X113099197Y-90092730D01*
X113099197Y-89718842D01*
X113161512Y-89594213D01*
X113223827Y-89531898D01*
X113348456Y-89469584D01*
X113535400Y-89469584D01*
X113660029Y-89531898D01*
X113722344Y-89594213D01*
X113784659Y-89718842D01*
X113784659Y-90092730D01*
X113722344Y-90217360D01*
X113660029Y-90279674D01*
X113535400Y-90341989D01*
X113348456Y-90341989D01*
X114906323Y-89469584D02*
X114906323Y-90528933D01*
X114844008Y-90653562D01*
X114781693Y-90715877D01*
X114657064Y-90778192D01*
X114470120Y-90778192D01*
X114345491Y-90715877D01*
X114906323Y-90279674D02*
X114781693Y-90341989D01*
X114532435Y-90341989D01*
X114407805Y-90279674D01*
X114345491Y-90217360D01*
X114283176Y-90092730D01*
X114283176Y-89718842D01*
X114345491Y-89594213D01*
X114407805Y-89531898D01*
X114532435Y-89469584D01*
X114781693Y-89469584D01*
X114906323Y-89531898D01*
X115529469Y-90341989D02*
X115529469Y-89469584D01*
X115529469Y-89033381D02*
X115467155Y-89095696D01*
X115529469Y-89158010D01*
X115591784Y-89095696D01*
X115529469Y-89033381D01*
X115529469Y-89158010D01*
X116713448Y-90279674D02*
X116588819Y-90341989D01*
X116339560Y-90341989D01*
X116214931Y-90279674D01*
X116152616Y-90217360D01*
X116090301Y-90092730D01*
X116090301Y-89718842D01*
X116152616Y-89594213D01*
X116214931Y-89531898D01*
X116339560Y-89469584D01*
X116588819Y-89469584D01*
X116713448Y-89531898D01*
X118956776Y-90341989D02*
X118209000Y-90341989D01*
X118582888Y-90341989D02*
X118582888Y-89033381D01*
X118458259Y-89220325D01*
X118333629Y-89344954D01*
X118209000Y-89407269D01*
X128419258Y-73793381D02*
X128170000Y-73793381D01*
X128045370Y-73855696D01*
X127983056Y-73918010D01*
X127858426Y-74104954D01*
X127796112Y-74354213D01*
X127796112Y-74852730D01*
X127858426Y-74977360D01*
X127920741Y-75039674D01*
X128045370Y-75101989D01*
X128294629Y-75101989D01*
X128419258Y-75039674D01*
X128481573Y-74977360D01*
X128543888Y-74852730D01*
X128543888Y-74541157D01*
X128481573Y-74416528D01*
X128419258Y-74354213D01*
X128294629Y-74291898D01*
X128045370Y-74291898D01*
X127920741Y-74354213D01*
X127858426Y-74416528D01*
X127796112Y-74541157D01*
X168560741Y-99231989D02*
X167812965Y-99231989D01*
X168186853Y-99231989D02*
X168186853Y-97923381D01*
X168062224Y-98110325D01*
X167937594Y-98234954D01*
X167812965Y-98297269D01*
X168996944Y-97923381D02*
X169807034Y-97923381D01*
X169370832Y-98421898D01*
X169557776Y-98421898D01*
X169682405Y-98484213D01*
X169744720Y-98546528D01*
X169807034Y-98671157D01*
X169807034Y-98982730D01*
X169744720Y-99107360D01*
X169682405Y-99169674D01*
X169557776Y-99231989D01*
X169183888Y-99231989D01*
X169059258Y-99169674D01*
X168996944Y-99107360D01*
X127796112Y-98048010D02*
X127858426Y-97985696D01*
X127983056Y-97923381D01*
X128294629Y-97923381D01*
X128419258Y-97985696D01*
X128481573Y-98048010D01*
X128543888Y-98172640D01*
X128543888Y-98297269D01*
X128481573Y-98484213D01*
X127733797Y-99231989D01*
X128543888Y-99231989D01*
D13*
X173266853Y-119076840D02*
X174513146Y-119076840D01*
D10*
X168685370Y-111184213D02*
X168560741Y-111121898D01*
X168498426Y-111059584D01*
X168436112Y-110934954D01*
X168436112Y-110872640D01*
X168498426Y-110748010D01*
X168560741Y-110685696D01*
X168685370Y-110623381D01*
X168934629Y-110623381D01*
X169059258Y-110685696D01*
X169121573Y-110748010D01*
X169183888Y-110872640D01*
X169183888Y-110934954D01*
X169121573Y-111059584D01*
X169059258Y-111121898D01*
X168934629Y-111184213D01*
X168685370Y-111184213D01*
X168560741Y-111246528D01*
X168498426Y-111308842D01*
X168436112Y-111433472D01*
X168436112Y-111682730D01*
X168498426Y-111807360D01*
X168560741Y-111869674D01*
X168685370Y-111931989D01*
X168934629Y-111931989D01*
X169059258Y-111869674D01*
X169121573Y-111807360D01*
X169183888Y-111682730D01*
X169183888Y-111433472D01*
X169121573Y-111308842D01*
X169059258Y-111246528D01*
X168934629Y-111184213D01*
X168560741Y-62401989D02*
X167812965Y-62401989D01*
X168186853Y-62401989D02*
X168186853Y-61093381D01*
X168062224Y-61280325D01*
X167937594Y-61404954D01*
X167812965Y-61467269D01*
X169682405Y-61529584D02*
X169682405Y-62401989D01*
X169370832Y-61031066D02*
X169059258Y-61965786D01*
X169869349Y-61965786D01*
X128419258Y-108083381D02*
X128170000Y-108083381D01*
X128045370Y-108145696D01*
X127983056Y-108208010D01*
X127858426Y-108394954D01*
X127796112Y-108644213D01*
X127796112Y-109142730D01*
X127858426Y-109267360D01*
X127920741Y-109329674D01*
X128045370Y-109391989D01*
X128294629Y-109391989D01*
X128419258Y-109329674D01*
X128481573Y-109267360D01*
X128543888Y-109142730D01*
X128543888Y-108831157D01*
X128481573Y-108706528D01*
X128419258Y-108644213D01*
X128294629Y-108581898D01*
X128045370Y-108581898D01*
X127920741Y-108644213D01*
X127858426Y-108706528D01*
X127796112Y-108831157D01*
X105933314Y-81305685D02*
X105497111Y-80682538D01*
X105185538Y-81305685D02*
X105185538Y-79997077D01*
X105684055Y-79997077D01*
X105808684Y-80059392D01*
X105870999Y-80121706D01*
X105933314Y-80246336D01*
X105933314Y-80433280D01*
X105870999Y-80557909D01*
X105808684Y-80620224D01*
X105684055Y-80682538D01*
X105185538Y-80682538D01*
X106992663Y-81243370D02*
X106868034Y-81305685D01*
X106618775Y-81305685D01*
X106494146Y-81243370D01*
X106431831Y-81118741D01*
X106431831Y-80620224D01*
X106494146Y-80495594D01*
X106618775Y-80433280D01*
X106868034Y-80433280D01*
X106992663Y-80495594D01*
X107054978Y-80620224D01*
X107054978Y-80744853D01*
X106431831Y-80869482D01*
X107553495Y-81243370D02*
X107678124Y-81305685D01*
X107927383Y-81305685D01*
X108052012Y-81243370D01*
X108114327Y-81118741D01*
X108114327Y-81056426D01*
X108052012Y-80931797D01*
X107927383Y-80869482D01*
X107740439Y-80869482D01*
X107615810Y-80807168D01*
X107553495Y-80682538D01*
X107553495Y-80620224D01*
X107615810Y-80495594D01*
X107740439Y-80433280D01*
X107927383Y-80433280D01*
X108052012Y-80495594D01*
X108675159Y-81305685D02*
X108675159Y-80433280D01*
X108675159Y-79997077D02*
X108612844Y-80059392D01*
X108675159Y-80121706D01*
X108737474Y-80059392D01*
X108675159Y-79997077D01*
X108675159Y-80121706D01*
X109235991Y-81243370D02*
X109360620Y-81305685D01*
X109609879Y-81305685D01*
X109734508Y-81243370D01*
X109796823Y-81118741D01*
X109796823Y-81056426D01*
X109734508Y-80931797D01*
X109609879Y-80869482D01*
X109422935Y-80869482D01*
X109298306Y-80807168D01*
X109235991Y-80682538D01*
X109235991Y-80620224D01*
X109298306Y-80495594D01*
X109422935Y-80433280D01*
X109609879Y-80433280D01*
X109734508Y-80495594D01*
X110170711Y-80433280D02*
X110669228Y-80433280D01*
X110357655Y-79997077D02*
X110357655Y-81118741D01*
X110419970Y-81243370D01*
X110544599Y-81305685D01*
X110669228Y-81305685D01*
X111292375Y-81305685D02*
X111167746Y-81243370D01*
X111105431Y-81181056D01*
X111043116Y-81056426D01*
X111043116Y-80682538D01*
X111105431Y-80557909D01*
X111167746Y-80495594D01*
X111292375Y-80433280D01*
X111479319Y-80433280D01*
X111603948Y-80495594D01*
X111666263Y-80557909D01*
X111728578Y-80682538D01*
X111728578Y-81056426D01*
X111666263Y-81181056D01*
X111603948Y-81243370D01*
X111479319Y-81305685D01*
X111292375Y-81305685D01*
X112289410Y-81305685D02*
X112289410Y-80433280D01*
X112289410Y-80682538D02*
X112351724Y-80557909D01*
X112414039Y-80495594D01*
X112538668Y-80433280D01*
X112663298Y-80433280D01*
X114034220Y-80931797D02*
X114657367Y-80931797D01*
X113909591Y-81305685D02*
X114345794Y-79997077D01*
X114781996Y-81305685D01*
X115218199Y-81305685D02*
X115218199Y-80433280D01*
X115218199Y-80682538D02*
X115280514Y-80557909D01*
X115342828Y-80495594D01*
X115467458Y-80433280D01*
X115592087Y-80433280D01*
X116028290Y-81305685D02*
X116028290Y-80433280D01*
X116028290Y-80682538D02*
X116090604Y-80557909D01*
X116152919Y-80495594D01*
X116277548Y-80433280D01*
X116402178Y-80433280D01*
X117399212Y-81305685D02*
X117399212Y-80620224D01*
X117336898Y-80495594D01*
X117212268Y-80433280D01*
X116963010Y-80433280D01*
X116838380Y-80495594D01*
X117399212Y-81243370D02*
X117274583Y-81305685D01*
X116963010Y-81305685D01*
X116838380Y-81243370D01*
X116776066Y-81118741D01*
X116776066Y-80994112D01*
X116838380Y-80869482D01*
X116963010Y-80807168D01*
X117274583Y-80807168D01*
X117399212Y-80744853D01*
X117897730Y-80433280D02*
X118209303Y-81305685D01*
X118520876Y-80433280D02*
X118209303Y-81305685D01*
X118084674Y-81617258D01*
X118022359Y-81679573D01*
X117897730Y-81741888D01*
D14*
X154525714Y-147032380D02*
X153474285Y-147032380D01*
X154000000Y-147032380D02*
X154000000Y-145192380D01*
X153824761Y-145455238D01*
X153649523Y-145630476D01*
X153474285Y-145718095D01*
D10*
X168560741Y-104311989D02*
X167812965Y-104311989D01*
X168186853Y-104311989D02*
X168186853Y-103003381D01*
X168062224Y-103190325D01*
X167937594Y-103314954D01*
X167812965Y-103377269D01*
X169807034Y-104311989D02*
X169059258Y-104311989D01*
X169433146Y-104311989D02*
X169433146Y-103003381D01*
X169308517Y-103190325D01*
X169183888Y-103314954D01*
X169059258Y-103377269D01*
X168560741Y-96691989D02*
X167812965Y-96691989D01*
X168186853Y-96691989D02*
X168186853Y-95383381D01*
X168062224Y-95570325D01*
X167937594Y-95694954D01*
X167812965Y-95757269D01*
X169682405Y-95819584D02*
X169682405Y-96691989D01*
X169370832Y-95321066D02*
X169059258Y-96255786D01*
X169869349Y-96255786D01*
X185765685Y-141434461D02*
X184457077Y-141434461D01*
X185080224Y-141434461D02*
X185080224Y-140686685D01*
X185765685Y-140686685D02*
X184457077Y-140686685D01*
X185267168Y-140063539D02*
X185267168Y-139066504D01*
X185080224Y-138007155D02*
X185142538Y-137820211D01*
X185204853Y-137757896D01*
X185329482Y-137695581D01*
X185516426Y-137695581D01*
X185641056Y-137757896D01*
X185703370Y-137820211D01*
X185765685Y-137944840D01*
X185765685Y-138443357D01*
X184457077Y-138443357D01*
X184457077Y-138007155D01*
X184519392Y-137882525D01*
X184581706Y-137820211D01*
X184706336Y-137757896D01*
X184830965Y-137757896D01*
X184955594Y-137820211D01*
X185017909Y-137882525D01*
X185080224Y-138007155D01*
X185080224Y-138443357D01*
X185765685Y-137134749D02*
X184893280Y-137134749D01*
X185142538Y-137134749D02*
X185017909Y-137072435D01*
X184955594Y-137010120D01*
X184893280Y-136885491D01*
X184893280Y-136760861D01*
X185765685Y-136324659D02*
X184893280Y-136324659D01*
X184457077Y-136324659D02*
X184519392Y-136386973D01*
X184581706Y-136324659D01*
X184519392Y-136262344D01*
X184457077Y-136324659D01*
X184581706Y-136324659D01*
X185765685Y-135140680D02*
X184457077Y-135140680D01*
X185703370Y-135140680D02*
X185765685Y-135265309D01*
X185765685Y-135514568D01*
X185703370Y-135639197D01*
X185641056Y-135701512D01*
X185516426Y-135763827D01*
X185142538Y-135763827D01*
X185017909Y-135701512D01*
X184955594Y-135639197D01*
X184893280Y-135514568D01*
X184893280Y-135265309D01*
X184955594Y-135140680D01*
X184893280Y-133956701D02*
X185952629Y-133956701D01*
X186077258Y-134019016D01*
X186139573Y-134081331D01*
X186201888Y-134205960D01*
X186201888Y-134392904D01*
X186139573Y-134517533D01*
X185703370Y-133956701D02*
X185765685Y-134081331D01*
X185765685Y-134330589D01*
X185703370Y-134455219D01*
X185641056Y-134517533D01*
X185516426Y-134579848D01*
X185142538Y-134579848D01*
X185017909Y-134517533D01*
X184955594Y-134455219D01*
X184893280Y-134330589D01*
X184893280Y-134081331D01*
X184955594Y-133956701D01*
X185703370Y-132835037D02*
X185765685Y-132959667D01*
X185765685Y-133208925D01*
X185703370Y-133333555D01*
X185578741Y-133395869D01*
X185080224Y-133395869D01*
X184955594Y-133333555D01*
X184893280Y-133208925D01*
X184893280Y-132959667D01*
X184955594Y-132835037D01*
X185080224Y-132772723D01*
X185204853Y-132772723D01*
X185329482Y-133395869D01*
X185765685Y-131214856D02*
X184893280Y-131214856D01*
X185017909Y-131214856D02*
X184955594Y-131152541D01*
X184893280Y-131027912D01*
X184893280Y-130840968D01*
X184955594Y-130716339D01*
X185080224Y-130654024D01*
X185765685Y-130654024D01*
X185080224Y-130654024D02*
X184955594Y-130591709D01*
X184893280Y-130467080D01*
X184893280Y-130280136D01*
X184955594Y-130155507D01*
X185080224Y-130093192D01*
X185765685Y-130093192D01*
X185765685Y-129283101D02*
X185703370Y-129407731D01*
X185641056Y-129470045D01*
X185516426Y-129532360D01*
X185142538Y-129532360D01*
X185017909Y-129470045D01*
X184955594Y-129407731D01*
X184893280Y-129283101D01*
X184893280Y-129096157D01*
X184955594Y-128971528D01*
X185017909Y-128909213D01*
X185142538Y-128846899D01*
X185516426Y-128846899D01*
X185641056Y-128909213D01*
X185703370Y-128971528D01*
X185765685Y-129096157D01*
X185765685Y-129283101D01*
X184893280Y-128473011D02*
X184893280Y-127974493D01*
X184457077Y-128286067D02*
X185578741Y-128286067D01*
X185703370Y-128223752D01*
X185765685Y-128099123D01*
X185765685Y-127974493D01*
X185765685Y-127351347D02*
X185703370Y-127475976D01*
X185641056Y-127538291D01*
X185516426Y-127600605D01*
X185142538Y-127600605D01*
X185017909Y-127538291D01*
X184955594Y-127475976D01*
X184893280Y-127351347D01*
X184893280Y-127164403D01*
X184955594Y-127039773D01*
X185017909Y-126977459D01*
X185142538Y-126915144D01*
X185516426Y-126915144D01*
X185641056Y-126977459D01*
X185703370Y-127039773D01*
X185765685Y-127164403D01*
X185765685Y-127351347D01*
X185765685Y-126354312D02*
X184893280Y-126354312D01*
X185142538Y-126354312D02*
X185017909Y-126291997D01*
X184955594Y-126229683D01*
X184893280Y-126105053D01*
X184893280Y-125980424D01*
X185765685Y-123986355D02*
X184457077Y-123986355D01*
X185703370Y-123986355D02*
X185765685Y-124110984D01*
X185765685Y-124360243D01*
X185703370Y-124484872D01*
X185641056Y-124547187D01*
X185516426Y-124609501D01*
X185142538Y-124609501D01*
X185017909Y-124547187D01*
X184955594Y-124484872D01*
X184893280Y-124360243D01*
X184893280Y-124110984D01*
X184955594Y-123986355D01*
X185765685Y-123363208D02*
X184893280Y-123363208D01*
X185142538Y-123363208D02*
X185017909Y-123300893D01*
X184955594Y-123238579D01*
X184893280Y-123113949D01*
X184893280Y-122989320D01*
X185765685Y-122553117D02*
X184893280Y-122553117D01*
X184457077Y-122553117D02*
X184519392Y-122615432D01*
X184581706Y-122553117D01*
X184519392Y-122490803D01*
X184457077Y-122553117D01*
X184581706Y-122553117D01*
X184893280Y-122054600D02*
X185765685Y-121743027D01*
X184893280Y-121431453D01*
X185703370Y-120434419D02*
X185765685Y-120559048D01*
X185765685Y-120808307D01*
X185703370Y-120932936D01*
X185578741Y-120995251D01*
X185080224Y-120995251D01*
X184955594Y-120932936D01*
X184893280Y-120808307D01*
X184893280Y-120559048D01*
X184955594Y-120434419D01*
X185080224Y-120372104D01*
X185204853Y-120372104D01*
X185329482Y-120995251D01*
X185765685Y-119811272D02*
X184893280Y-119811272D01*
X185142538Y-119811272D02*
X185017909Y-119748957D01*
X184955594Y-119686643D01*
X184893280Y-119562013D01*
X184893280Y-119437384D01*
D13*
X122466853Y-119076840D02*
X123713146Y-119076840D01*
D10*
X168560741Y-75101989D02*
X168810000Y-75101989D01*
X168934629Y-75039674D01*
X168996944Y-74977360D01*
X169121573Y-74790416D01*
X169183888Y-74541157D01*
X169183888Y-74042640D01*
X169121573Y-73918010D01*
X169059258Y-73855696D01*
X168934629Y-73793381D01*
X168685370Y-73793381D01*
X168560741Y-73855696D01*
X168498426Y-73918010D01*
X168436112Y-74042640D01*
X168436112Y-74354213D01*
X168498426Y-74478842D01*
X168560741Y-74541157D01*
X168685370Y-74603472D01*
X168934629Y-74603472D01*
X169059258Y-74541157D01*
X169121573Y-74478842D01*
X169183888Y-74354213D01*
X104798594Y-92729077D02*
X105546370Y-92729077D01*
X105172482Y-94037685D02*
X105172482Y-92729077D01*
X105982572Y-94037685D02*
X105982572Y-93165280D01*
X105982572Y-93414538D02*
X106044887Y-93289909D01*
X106107202Y-93227594D01*
X106231831Y-93165280D01*
X106356460Y-93165280D01*
X107353495Y-94037685D02*
X107353495Y-93352224D01*
X107291180Y-93227594D01*
X107166551Y-93165280D01*
X106917292Y-93165280D01*
X106792663Y-93227594D01*
X107353495Y-93975370D02*
X107228866Y-94037685D01*
X106917292Y-94037685D01*
X106792663Y-93975370D01*
X106730348Y-93850741D01*
X106730348Y-93726112D01*
X106792663Y-93601482D01*
X106917292Y-93539168D01*
X107228866Y-93539168D01*
X107353495Y-93476853D01*
X107976642Y-93165280D02*
X107976642Y-94037685D01*
X107976642Y-93289909D02*
X108038956Y-93227594D01*
X108163586Y-93165280D01*
X108350530Y-93165280D01*
X108475159Y-93227594D01*
X108537474Y-93352224D01*
X108537474Y-94037685D01*
X109098306Y-93975370D02*
X109222935Y-94037685D01*
X109472194Y-94037685D01*
X109596823Y-93975370D01*
X109659138Y-93850741D01*
X109659138Y-93788426D01*
X109596823Y-93663797D01*
X109472194Y-93601482D01*
X109285250Y-93601482D01*
X109160620Y-93539168D01*
X109098306Y-93414538D01*
X109098306Y-93352224D01*
X109160620Y-93227594D01*
X109285250Y-93165280D01*
X109472194Y-93165280D01*
X109596823Y-93227594D01*
X110219970Y-94037685D02*
X110219970Y-93165280D01*
X110219970Y-92729077D02*
X110157655Y-92791392D01*
X110219970Y-92853706D01*
X110282284Y-92791392D01*
X110219970Y-92729077D01*
X110219970Y-92853706D01*
X110780802Y-93975370D02*
X110905431Y-94037685D01*
X111154690Y-94037685D01*
X111279319Y-93975370D01*
X111341634Y-93850741D01*
X111341634Y-93788426D01*
X111279319Y-93663797D01*
X111154690Y-93601482D01*
X110967746Y-93601482D01*
X110843116Y-93539168D01*
X110780802Y-93414538D01*
X110780802Y-93352224D01*
X110843116Y-93227594D01*
X110967746Y-93165280D01*
X111154690Y-93165280D01*
X111279319Y-93227594D01*
X111715522Y-93165280D02*
X112214039Y-93165280D01*
X111902466Y-92729077D02*
X111902466Y-93850741D01*
X111964780Y-93975370D01*
X112089410Y-94037685D01*
X112214039Y-94037685D01*
X112837186Y-94037685D02*
X112712556Y-93975370D01*
X112650242Y-93913056D01*
X112587927Y-93788426D01*
X112587927Y-93414538D01*
X112650242Y-93289909D01*
X112712556Y-93227594D01*
X112837186Y-93165280D01*
X113024130Y-93165280D01*
X113148759Y-93227594D01*
X113211074Y-93289909D01*
X113273388Y-93414538D01*
X113273388Y-93788426D01*
X113211074Y-93913056D01*
X113148759Y-93975370D01*
X113024130Y-94037685D01*
X112837186Y-94037685D01*
X113834220Y-94037685D02*
X113834220Y-93165280D01*
X113834220Y-93414538D02*
X113896535Y-93289909D01*
X113958850Y-93227594D01*
X114083479Y-93165280D01*
X114208108Y-93165280D01*
X115579031Y-93663797D02*
X116202178Y-93663797D01*
X115454402Y-94037685D02*
X115890604Y-92729077D01*
X116326807Y-94037685D01*
X116763010Y-94037685D02*
X116763010Y-93165280D01*
X116763010Y-93414538D02*
X116825324Y-93289909D01*
X116887639Y-93227594D01*
X117012268Y-93165280D01*
X117136898Y-93165280D01*
X117573100Y-94037685D02*
X117573100Y-93165280D01*
X117573100Y-93414538D02*
X117635415Y-93289909D01*
X117697730Y-93227594D01*
X117822359Y-93165280D01*
X117946988Y-93165280D01*
X118944023Y-94037685D02*
X118944023Y-93352224D01*
X118881708Y-93227594D01*
X118757079Y-93165280D01*
X118507820Y-93165280D01*
X118383191Y-93227594D01*
X118944023Y-93975370D02*
X118819394Y-94037685D01*
X118507820Y-94037685D01*
X118383191Y-93975370D01*
X118320876Y-93850741D01*
X118320876Y-93726112D01*
X118383191Y-93601482D01*
X118507820Y-93539168D01*
X118819394Y-93539168D01*
X118944023Y-93476853D01*
X119442540Y-93165280D02*
X119754114Y-94037685D01*
X120065687Y-93165280D02*
X119754114Y-94037685D01*
X119629484Y-94349258D01*
X119567170Y-94411573D01*
X119442540Y-94473888D01*
X172628805Y-113398077D02*
X172878064Y-113398077D01*
X173002693Y-113460392D01*
X173127322Y-113585021D01*
X173189637Y-113834280D01*
X173189637Y-114270482D01*
X173127322Y-114519741D01*
X173002693Y-114644370D01*
X172878064Y-114706685D01*
X172628805Y-114706685D01*
X172504176Y-114644370D01*
X172379546Y-114519741D01*
X172317232Y-114270482D01*
X172317232Y-113834280D01*
X172379546Y-113585021D01*
X172504176Y-113460392D01*
X172628805Y-113398077D01*
X174311301Y-113834280D02*
X174311301Y-114706685D01*
X173750469Y-113834280D02*
X173750469Y-114519741D01*
X173812784Y-114644370D01*
X173937413Y-114706685D01*
X174124357Y-114706685D01*
X174248986Y-114644370D01*
X174311301Y-114582056D01*
X174747504Y-113834280D02*
X175246021Y-113834280D01*
X174934448Y-113398077D02*
X174934448Y-114519741D01*
X174996762Y-114644370D01*
X175121392Y-114706685D01*
X175246021Y-114706685D01*
X175682224Y-113834280D02*
X175682224Y-115142888D01*
X175682224Y-113896594D02*
X175806853Y-113834280D01*
X176056112Y-113834280D01*
X176180741Y-113896594D01*
X176243056Y-113958909D01*
X176305370Y-114083538D01*
X176305370Y-114457426D01*
X176243056Y-114582056D01*
X176180741Y-114644370D01*
X176056112Y-114706685D01*
X175806853Y-114706685D01*
X175682224Y-114644370D01*
X177427034Y-113834280D02*
X177427034Y-114706685D01*
X176866202Y-113834280D02*
X176866202Y-114519741D01*
X176928517Y-114644370D01*
X177053146Y-114706685D01*
X177240090Y-114706685D01*
X177364720Y-114644370D01*
X177427034Y-114582056D01*
X177863237Y-113834280D02*
X178361754Y-113834280D01*
X178050181Y-113398077D02*
X178050181Y-114519741D01*
X178112496Y-114644370D01*
X178237125Y-114706685D01*
X178361754Y-114706685D01*
X180231194Y-114021224D02*
X180418138Y-114083538D01*
X180480453Y-114145853D01*
X180542768Y-114270482D01*
X180542768Y-114457426D01*
X180480453Y-114582056D01*
X180418138Y-114644370D01*
X180293509Y-114706685D01*
X179794992Y-114706685D01*
X179794992Y-113398077D01*
X180231194Y-113398077D01*
X180355824Y-113460392D01*
X180418138Y-113522706D01*
X180480453Y-113647336D01*
X180480453Y-113771965D01*
X180418138Y-113896594D01*
X180355824Y-113958909D01*
X180231194Y-114021224D01*
X179794992Y-114021224D01*
X160928684Y-59715685D02*
X160305538Y-59715685D01*
X160305538Y-58407077D01*
X161551831Y-59715685D02*
X161427202Y-59653370D01*
X161364887Y-59591056D01*
X161302572Y-59466426D01*
X161302572Y-59092538D01*
X161364887Y-58967909D01*
X161427202Y-58905594D01*
X161551831Y-58843280D01*
X161738775Y-58843280D01*
X161863404Y-58905594D01*
X161925719Y-58967909D01*
X161988034Y-59092538D01*
X161988034Y-59466426D01*
X161925719Y-59591056D01*
X161863404Y-59653370D01*
X161738775Y-59715685D01*
X161551831Y-59715685D01*
X163109698Y-58843280D02*
X163109698Y-59902629D01*
X163047383Y-60027258D01*
X162985068Y-60089573D01*
X162860439Y-60151888D01*
X162673495Y-60151888D01*
X162548866Y-60089573D01*
X163109698Y-59653370D02*
X162985068Y-59715685D01*
X162735810Y-59715685D01*
X162611180Y-59653370D01*
X162548866Y-59591056D01*
X162486551Y-59466426D01*
X162486551Y-59092538D01*
X162548866Y-58967909D01*
X162611180Y-58905594D01*
X162735810Y-58843280D01*
X162985068Y-58843280D01*
X163109698Y-58905594D01*
X163732844Y-59715685D02*
X163732844Y-58843280D01*
X163732844Y-58407077D02*
X163670530Y-58469392D01*
X163732844Y-58531706D01*
X163795159Y-58469392D01*
X163732844Y-58407077D01*
X163732844Y-58531706D01*
X164916823Y-59653370D02*
X164792194Y-59715685D01*
X164542935Y-59715685D01*
X164418306Y-59653370D01*
X164355991Y-59591056D01*
X164293676Y-59466426D01*
X164293676Y-59092538D01*
X164355991Y-58967909D01*
X164418306Y-58905594D01*
X164542935Y-58843280D01*
X164792194Y-58843280D01*
X164916823Y-58905594D01*
X167160151Y-58469392D02*
X167035522Y-58407077D01*
X166848578Y-58407077D01*
X166661634Y-58469392D01*
X166537004Y-58594021D01*
X166474690Y-58718650D01*
X166412375Y-58967909D01*
X166412375Y-59154853D01*
X166474690Y-59404112D01*
X166537004Y-59528741D01*
X166661634Y-59653370D01*
X166848578Y-59715685D01*
X166973207Y-59715685D01*
X167160151Y-59653370D01*
X167222466Y-59591056D01*
X167222466Y-59154853D01*
X166973207Y-59154853D01*
X168344130Y-59715685D02*
X168344130Y-59030224D01*
X168281815Y-58905594D01*
X168157186Y-58843280D01*
X167907927Y-58843280D01*
X167783298Y-58905594D01*
X168344130Y-59653370D02*
X168219500Y-59715685D01*
X167907927Y-59715685D01*
X167783298Y-59653370D01*
X167720983Y-59528741D01*
X167720983Y-59404112D01*
X167783298Y-59279482D01*
X167907927Y-59217168D01*
X168219500Y-59217168D01*
X168344130Y-59154853D01*
X168780332Y-58843280D02*
X169278850Y-58843280D01*
X168967276Y-58407077D02*
X168967276Y-59528741D01*
X169029591Y-59653370D01*
X169154220Y-59715685D01*
X169278850Y-59715685D01*
X170213570Y-59653370D02*
X170088940Y-59715685D01*
X169839682Y-59715685D01*
X169715052Y-59653370D01*
X169652738Y-59528741D01*
X169652738Y-59030224D01*
X169715052Y-58905594D01*
X169839682Y-58843280D01*
X170088940Y-58843280D01*
X170213570Y-58905594D01*
X170275884Y-59030224D01*
X170275884Y-59154853D01*
X169652738Y-59279482D01*
X168560741Y-106851989D02*
X167812965Y-106851989D01*
X168186853Y-106851989D02*
X168186853Y-105543381D01*
X168062224Y-105730325D01*
X167937594Y-105854954D01*
X167812965Y-105917269D01*
X169370832Y-105543381D02*
X169495461Y-105543381D01*
X169620090Y-105605696D01*
X169682405Y-105668010D01*
X169744720Y-105792640D01*
X169807034Y-106041898D01*
X169807034Y-106353472D01*
X169744720Y-106602730D01*
X169682405Y-106727360D01*
X169620090Y-106789674D01*
X169495461Y-106851989D01*
X169370832Y-106851989D01*
X169246202Y-106789674D01*
X169183888Y-106727360D01*
X169121573Y-106602730D01*
X169059258Y-106353472D01*
X169059258Y-106041898D01*
X169121573Y-105792640D01*
X169183888Y-105668010D01*
X169246202Y-105605696D01*
X169370832Y-105543381D01*
X130803472Y-161754461D02*
X130803472Y-160757427D01*
X129993381Y-160321224D02*
X131301989Y-159885021D01*
X129993381Y-159448819D01*
X131426618Y-159324189D02*
X131426618Y-158327155D01*
X130616528Y-157579379D02*
X130678842Y-157392435D01*
X130741157Y-157330120D01*
X130865786Y-157267805D01*
X131052730Y-157267805D01*
X131177360Y-157330120D01*
X131239674Y-157392435D01*
X131301989Y-157517064D01*
X131301989Y-158015581D01*
X129993381Y-158015581D01*
X129993381Y-157579379D01*
X130055696Y-157454749D01*
X130118010Y-157392435D01*
X130242640Y-157330120D01*
X130367269Y-157330120D01*
X130491898Y-157392435D01*
X130554213Y-157454749D01*
X130616528Y-157579379D01*
X130616528Y-158015581D01*
X130928101Y-156769288D02*
X130928101Y-156146141D01*
X131301989Y-156893917D02*
X129993381Y-156457715D01*
X131301989Y-156021512D01*
X129993381Y-155772253D02*
X129993381Y-155024477D01*
X131301989Y-155398365D02*
X129993381Y-155398365D01*
X127733797Y-100463381D02*
X128543888Y-100463381D01*
X128107685Y-100961898D01*
X128294629Y-100961898D01*
X128419258Y-101024213D01*
X128481573Y-101086528D01*
X128543888Y-101211157D01*
X128543888Y-101522730D01*
X128481573Y-101647360D01*
X128419258Y-101709674D01*
X128294629Y-101771989D01*
X127920741Y-101771989D01*
X127796112Y-101709674D01*
X127733797Y-101647360D01*
X178770999Y-89095696D02*
X178646370Y-89033381D01*
X178459426Y-89033381D01*
X178272482Y-89095696D01*
X178147852Y-89220325D01*
X178085538Y-89344954D01*
X178023223Y-89594213D01*
X178023223Y-89781157D01*
X178085538Y-90030416D01*
X178147852Y-90155045D01*
X178272482Y-90279674D01*
X178459426Y-90341989D01*
X178584055Y-90341989D01*
X178770999Y-90279674D01*
X178833314Y-90217360D01*
X178833314Y-89781157D01*
X178584055Y-89781157D01*
X179394146Y-90341989D02*
X179394146Y-89033381D01*
X180141922Y-90341989D01*
X180141922Y-89033381D01*
X180765068Y-90341989D02*
X180765068Y-89033381D01*
X181076642Y-89033381D01*
X181263586Y-89095696D01*
X181388215Y-89220325D01*
X181450530Y-89344954D01*
X181512844Y-89594213D01*
X181512844Y-89781157D01*
X181450530Y-90030416D01*
X181388215Y-90155045D01*
X181263586Y-90279674D01*
X181076642Y-90341989D01*
X180765068Y-90341989D01*
X184005431Y-88971066D02*
X182883767Y-90653562D01*
X186061815Y-90341989D02*
X185438668Y-90341989D01*
X185438668Y-89033381D01*
X186684962Y-90341989D02*
X186560332Y-90279674D01*
X186498018Y-90217360D01*
X186435703Y-90092730D01*
X186435703Y-89718842D01*
X186498018Y-89594213D01*
X186560332Y-89531898D01*
X186684962Y-89469584D01*
X186871906Y-89469584D01*
X186996535Y-89531898D01*
X187058850Y-89594213D01*
X187121164Y-89718842D01*
X187121164Y-90092730D01*
X187058850Y-90217360D01*
X186996535Y-90279674D01*
X186871906Y-90341989D01*
X186684962Y-90341989D01*
X188242828Y-89469584D02*
X188242828Y-90528933D01*
X188180514Y-90653562D01*
X188118199Y-90715877D01*
X187993570Y-90778192D01*
X187806626Y-90778192D01*
X187681996Y-90715877D01*
X188242828Y-90279674D02*
X188118199Y-90341989D01*
X187868940Y-90341989D01*
X187744311Y-90279674D01*
X187681996Y-90217360D01*
X187619682Y-90092730D01*
X187619682Y-89718842D01*
X187681996Y-89594213D01*
X187744311Y-89531898D01*
X187868940Y-89469584D01*
X188118199Y-89469584D01*
X188242828Y-89531898D01*
X188865975Y-90341989D02*
X188865975Y-89469584D01*
X188865975Y-89033381D02*
X188803660Y-89095696D01*
X188865975Y-89158010D01*
X188928290Y-89095696D01*
X188865975Y-89033381D01*
X188865975Y-89158010D01*
X190049954Y-90279674D02*
X189925324Y-90341989D01*
X189676066Y-90341989D01*
X189551436Y-90279674D01*
X189489122Y-90217360D01*
X189426807Y-90092730D01*
X189426807Y-89718842D01*
X189489122Y-89594213D01*
X189551436Y-89531898D01*
X189676066Y-89469584D01*
X189925324Y-89469584D01*
X190049954Y-89531898D01*
X191857079Y-89033381D02*
X191981708Y-89033381D01*
X192106338Y-89095696D01*
X192168652Y-89158010D01*
X192230967Y-89282640D01*
X192293282Y-89531898D01*
X192293282Y-89843472D01*
X192230967Y-90092730D01*
X192168652Y-90217360D01*
X192106338Y-90279674D01*
X191981708Y-90341989D01*
X191857079Y-90341989D01*
X191732450Y-90279674D01*
X191670135Y-90217360D01*
X191607820Y-90092730D01*
X191545506Y-89843472D01*
X191545506Y-89531898D01*
X191607820Y-89282640D01*
X191670135Y-89158010D01*
X191732450Y-89095696D01*
X191857079Y-89033381D01*
X157388805Y-125209077D02*
X157638064Y-125209077D01*
X157762693Y-125271392D01*
X157887322Y-125396021D01*
X157949637Y-125645280D01*
X157949637Y-126081482D01*
X157887322Y-126330741D01*
X157762693Y-126455370D01*
X157638064Y-126517685D01*
X157388805Y-126517685D01*
X157264176Y-126455370D01*
X157139546Y-126330741D01*
X157077232Y-126081482D01*
X157077232Y-125645280D01*
X157139546Y-125396021D01*
X157264176Y-125271392D01*
X157388805Y-125209077D01*
X159071301Y-125645280D02*
X159071301Y-126517685D01*
X158510469Y-125645280D02*
X158510469Y-126330741D01*
X158572784Y-126455370D01*
X158697413Y-126517685D01*
X158884357Y-126517685D01*
X159008986Y-126455370D01*
X159071301Y-126393056D01*
X159507504Y-125645280D02*
X160006021Y-125645280D01*
X159694448Y-125209077D02*
X159694448Y-126330741D01*
X159756762Y-126455370D01*
X159881392Y-126517685D01*
X160006021Y-126517685D01*
X160442224Y-125645280D02*
X160442224Y-126953888D01*
X160442224Y-125707594D02*
X160566853Y-125645280D01*
X160816112Y-125645280D01*
X160940741Y-125707594D01*
X161003056Y-125769909D01*
X161065370Y-125894538D01*
X161065370Y-126268426D01*
X161003056Y-126393056D01*
X160940741Y-126455370D01*
X160816112Y-126517685D01*
X160566853Y-126517685D01*
X160442224Y-126455370D01*
X162187034Y-125645280D02*
X162187034Y-126517685D01*
X161626202Y-125645280D02*
X161626202Y-126330741D01*
X161688517Y-126455370D01*
X161813146Y-126517685D01*
X162000090Y-126517685D01*
X162124720Y-126455370D01*
X162187034Y-126393056D01*
X162623237Y-125645280D02*
X163121754Y-125645280D01*
X162810181Y-125209077D02*
X162810181Y-126330741D01*
X162872496Y-126455370D01*
X162997125Y-126517685D01*
X163121754Y-126517685D01*
X164991194Y-125832224D02*
X165178138Y-125894538D01*
X165240453Y-125956853D01*
X165302768Y-126081482D01*
X165302768Y-126268426D01*
X165240453Y-126393056D01*
X165178138Y-126455370D01*
X165053509Y-126517685D01*
X164554992Y-126517685D01*
X164554992Y-125209077D01*
X164991194Y-125209077D01*
X165115824Y-125271392D01*
X165178138Y-125333706D01*
X165240453Y-125458336D01*
X165240453Y-125582965D01*
X165178138Y-125707594D01*
X165115824Y-125769909D01*
X164991194Y-125832224D01*
X164554992Y-125832224D01*
X157745437Y-131147310D02*
X157877626Y-130398237D01*
X157216679Y-130618553D02*
X158142005Y-129693227D01*
X158494510Y-130045732D01*
X158538573Y-130177922D01*
X158538573Y-130266048D01*
X158494510Y-130398237D01*
X158362320Y-130530427D01*
X158230131Y-130574490D01*
X158142005Y-130574490D01*
X158009815Y-130530427D01*
X157657310Y-130177922D01*
X158847015Y-132248889D02*
X159772340Y-131323563D01*
X159419835Y-132292952D01*
X160389224Y-131940447D01*
X159463899Y-132865772D01*
X161006108Y-132557330D02*
X161182360Y-132733583D01*
X161226423Y-132865772D01*
X161226423Y-133042025D01*
X161094234Y-133262340D01*
X160785792Y-133570782D01*
X160565477Y-133702972D01*
X160389224Y-133702972D01*
X160257035Y-133658909D01*
X160080782Y-133482656D01*
X160036719Y-133350467D01*
X160036719Y-133174214D01*
X160168909Y-132953899D01*
X160477350Y-132645457D01*
X160697666Y-132513267D01*
X160873918Y-132513267D01*
X161006108Y-132557330D01*
X161667055Y-133218277D02*
X162195812Y-133747035D01*
X161006108Y-134407982D02*
X161931433Y-133482656D01*
X162680507Y-134231729D02*
X162856759Y-134407982D01*
X162900822Y-134540171D01*
X162900822Y-134716423D01*
X162768633Y-134936739D01*
X162460191Y-135245181D01*
X162239875Y-135377370D01*
X162063623Y-135377370D01*
X161931433Y-135333307D01*
X161755181Y-135157055D01*
X161711118Y-135024865D01*
X161711118Y-134848613D01*
X161843307Y-134628297D01*
X162151749Y-134319855D01*
X162372065Y-134187666D01*
X162548317Y-134187666D01*
X162680507Y-134231729D01*
X163077075Y-136478948D02*
X163209264Y-135729875D01*
X162548317Y-135950191D02*
X163473643Y-135024865D01*
X163826148Y-135377370D01*
X163870211Y-135509560D01*
X163870211Y-135597686D01*
X163826148Y-135729875D01*
X163693958Y-135862065D01*
X163561769Y-135906128D01*
X163473643Y-135906128D01*
X163341453Y-135862065D01*
X162988948Y-135509560D01*
X164971789Y-137404274D02*
X164663347Y-137095832D01*
X164178653Y-137580526D02*
X165103978Y-136655201D01*
X165544610Y-137095832D01*
X165808988Y-137360211D02*
X165103978Y-138505852D01*
X165941178Y-138021158D01*
X165456483Y-138858357D01*
X166602125Y-138153347D01*
X166029304Y-139431178D02*
X166954630Y-138505852D01*
X167174945Y-138726168D01*
X167263071Y-138902420D01*
X167263071Y-139078673D01*
X167219008Y-139210862D01*
X167086819Y-139431178D01*
X166954630Y-139563367D01*
X166734314Y-139695556D01*
X166602125Y-139739620D01*
X166425872Y-139739620D01*
X166249620Y-139651493D01*
X166029304Y-139431178D01*
X133343472Y-161754461D02*
X133343472Y-160757427D01*
X133841989Y-161255944D02*
X132844954Y-161255944D01*
X132533381Y-160321224D02*
X133841989Y-159885021D01*
X132533381Y-159448819D01*
X133966618Y-159324189D02*
X133966618Y-158327155D01*
X133156528Y-157579379D02*
X133218842Y-157392435D01*
X133281157Y-157330120D01*
X133405786Y-157267805D01*
X133592730Y-157267805D01*
X133717360Y-157330120D01*
X133779674Y-157392435D01*
X133841989Y-157517064D01*
X133841989Y-158015581D01*
X132533381Y-158015581D01*
X132533381Y-157579379D01*
X132595696Y-157454749D01*
X132658010Y-157392435D01*
X132782640Y-157330120D01*
X132907269Y-157330120D01*
X133031898Y-157392435D01*
X133094213Y-157454749D01*
X133156528Y-157579379D01*
X133156528Y-158015581D01*
X133468101Y-156769288D02*
X133468101Y-156146141D01*
X133841989Y-156893917D02*
X132533381Y-156457715D01*
X133841989Y-156021512D01*
X132533381Y-155772253D02*
X132533381Y-155024477D01*
X133841989Y-155398365D02*
X132533381Y-155398365D01*
D13*
X122466853Y-116536840D02*
X123713146Y-116536840D01*
X123090000Y-117159986D02*
X123090000Y-115913693D01*
D10*
X130478526Y-140003998D02*
X130037894Y-140444630D01*
X129112569Y-139519304D01*
X131491977Y-138990546D02*
X130566652Y-138065221D01*
X131536041Y-138417726D01*
X131183536Y-137448337D01*
X132108861Y-138373663D01*
X131800419Y-136831453D02*
X131976672Y-136655201D01*
X132108861Y-136611138D01*
X132285114Y-136611138D01*
X132505429Y-136743327D01*
X132813871Y-137051769D01*
X132946061Y-137272085D01*
X132946061Y-137448337D01*
X132901997Y-137580526D01*
X132725745Y-137756779D01*
X132593556Y-137800842D01*
X132417303Y-137800842D01*
X132196987Y-137668653D01*
X131888546Y-137360211D01*
X131756356Y-137139895D01*
X131756356Y-136963643D01*
X131800419Y-136831453D01*
X132461366Y-136170507D02*
X132990124Y-135641749D01*
X133651071Y-136831453D02*
X132725745Y-135906128D01*
X133474818Y-135157055D02*
X133651071Y-134980802D01*
X133783260Y-134936739D01*
X133959512Y-134936739D01*
X134179828Y-135068928D01*
X134488270Y-135377370D01*
X134620459Y-135597686D01*
X134620459Y-135773938D01*
X134576396Y-135906128D01*
X134400144Y-136082380D01*
X134267954Y-136126443D01*
X134091702Y-136126443D01*
X133871386Y-135994254D01*
X133562944Y-135685812D01*
X133430755Y-135465497D01*
X133430755Y-135289244D01*
X133474818Y-135157055D01*
X135722037Y-134760487D02*
X134972964Y-134628297D01*
X135193280Y-135289244D02*
X134267954Y-134363918D01*
X134620459Y-134011414D01*
X134752649Y-133967350D01*
X134840775Y-133967350D01*
X134972964Y-134011414D01*
X135105154Y-134143603D01*
X135149217Y-134275792D01*
X135149217Y-134363918D01*
X135105154Y-134496108D01*
X134752649Y-134848613D01*
X137352373Y-133130151D02*
X136603300Y-132997962D01*
X136823615Y-133658909D02*
X135898290Y-132733583D01*
X136250795Y-132381078D01*
X136382984Y-132337015D01*
X136471110Y-132337015D01*
X136603300Y-132381078D01*
X136735489Y-132513267D01*
X136779552Y-132645457D01*
X136779552Y-132733583D01*
X136735489Y-132865772D01*
X136382984Y-133218277D01*
X137264247Y-132248889D02*
X137572689Y-131940447D01*
X138189572Y-132292952D02*
X137748941Y-132733583D01*
X136823615Y-131808257D01*
X137264247Y-131367626D01*
X137528625Y-131103247D02*
X138762393Y-131720131D01*
X138145509Y-130486364D01*
X128419258Y-103439584D02*
X128419258Y-104311989D01*
X128107685Y-102941066D02*
X127796112Y-103875786D01*
X128606202Y-103875786D01*
X168560741Y-101771989D02*
X167812965Y-101771989D01*
X168186853Y-101771989D02*
X168186853Y-100463381D01*
X168062224Y-100650325D01*
X167937594Y-100774954D01*
X167812965Y-100837269D01*
X169059258Y-100588010D02*
X169121573Y-100525696D01*
X169246202Y-100463381D01*
X169557776Y-100463381D01*
X169682405Y-100525696D01*
X169744720Y-100588010D01*
X169807034Y-100712640D01*
X169807034Y-100837269D01*
X169744720Y-101024213D01*
X168996944Y-101771989D01*
X169807034Y-101771989D01*
X177898594Y-85223381D02*
X178334796Y-86531989D01*
X178770999Y-85223381D01*
X179207202Y-86531989D02*
X179207202Y-85223381D01*
X179518775Y-85223381D01*
X179705719Y-85285696D01*
X179830348Y-85410325D01*
X179892663Y-85534954D01*
X179954978Y-85784213D01*
X179954978Y-85971157D01*
X179892663Y-86220416D01*
X179830348Y-86345045D01*
X179705719Y-86469674D01*
X179518775Y-86531989D01*
X179207202Y-86531989D01*
X180515810Y-86531989D02*
X180515810Y-85223381D01*
X180827383Y-85223381D01*
X181014327Y-85285696D01*
X181138956Y-85410325D01*
X181201271Y-85534954D01*
X181263586Y-85784213D01*
X181263586Y-85971157D01*
X181201271Y-86220416D01*
X181138956Y-86345045D01*
X181014327Y-86469674D01*
X180827383Y-86531989D01*
X180515810Y-86531989D01*
X183756172Y-85161066D02*
X182634508Y-86843562D01*
X185812556Y-86531989D02*
X185189410Y-86531989D01*
X185189410Y-85223381D01*
X186435703Y-86531989D02*
X186311074Y-86469674D01*
X186248759Y-86407360D01*
X186186444Y-86282730D01*
X186186444Y-85908842D01*
X186248759Y-85784213D01*
X186311074Y-85721898D01*
X186435703Y-85659584D01*
X186622647Y-85659584D01*
X186747276Y-85721898D01*
X186809591Y-85784213D01*
X186871906Y-85908842D01*
X186871906Y-86282730D01*
X186809591Y-86407360D01*
X186747276Y-86469674D01*
X186622647Y-86531989D01*
X186435703Y-86531989D01*
X187993570Y-85659584D02*
X187993570Y-86718933D01*
X187931255Y-86843562D01*
X187868940Y-86905877D01*
X187744311Y-86968192D01*
X187557367Y-86968192D01*
X187432738Y-86905877D01*
X187993570Y-86469674D02*
X187868940Y-86531989D01*
X187619682Y-86531989D01*
X187495052Y-86469674D01*
X187432738Y-86407360D01*
X187370423Y-86282730D01*
X187370423Y-85908842D01*
X187432738Y-85784213D01*
X187495052Y-85721898D01*
X187619682Y-85659584D01*
X187868940Y-85659584D01*
X187993570Y-85721898D01*
X188616716Y-86531989D02*
X188616716Y-85659584D01*
X188616716Y-85223381D02*
X188554402Y-85285696D01*
X188616716Y-85348010D01*
X188679031Y-85285696D01*
X188616716Y-85223381D01*
X188616716Y-85348010D01*
X189800695Y-86469674D02*
X189676066Y-86531989D01*
X189426807Y-86531989D01*
X189302178Y-86469674D01*
X189239863Y-86407360D01*
X189177548Y-86282730D01*
X189177548Y-85908842D01*
X189239863Y-85784213D01*
X189302178Y-85721898D01*
X189426807Y-85659584D01*
X189676066Y-85659584D01*
X189800695Y-85721898D01*
X192044023Y-86531989D02*
X191296247Y-86531989D01*
X191670135Y-86531989D02*
X191670135Y-85223381D01*
X191545506Y-85410325D01*
X191420876Y-85534954D01*
X191296247Y-85597269D01*
X170875189Y-95383381D02*
X171311392Y-96691989D01*
X171747594Y-95383381D01*
X172183797Y-96691989D02*
X172183797Y-95383381D01*
X172495370Y-95383381D01*
X172682314Y-95445696D01*
X172806944Y-95570325D01*
X172869258Y-95694954D01*
X172931573Y-95944213D01*
X172931573Y-96131157D01*
X172869258Y-96380416D01*
X172806944Y-96505045D01*
X172682314Y-96629674D01*
X172495370Y-96691989D01*
X172183797Y-96691989D01*
X173492405Y-96691989D02*
X173492405Y-95383381D01*
X173803978Y-95383381D01*
X173990922Y-95445696D01*
X174115552Y-95570325D01*
X174177866Y-95694954D01*
X174240181Y-95944213D01*
X174240181Y-96131157D01*
X174177866Y-96380416D01*
X174115552Y-96505045D01*
X173990922Y-96629674D01*
X173803978Y-96691989D01*
X173492405Y-96691989D01*
X125143740Y-41952224D02*
X125330684Y-42014538D01*
X125392999Y-42076853D01*
X125455314Y-42201482D01*
X125455314Y-42388426D01*
X125392999Y-42513056D01*
X125330684Y-42575370D01*
X125206055Y-42637685D01*
X124707538Y-42637685D01*
X124707538Y-41329077D01*
X125143740Y-41329077D01*
X125268370Y-41391392D01*
X125330684Y-41453706D01*
X125392999Y-41578336D01*
X125392999Y-41702965D01*
X125330684Y-41827594D01*
X125268370Y-41889909D01*
X125143740Y-41952224D01*
X124707538Y-41952224D01*
X126576978Y-42637685D02*
X126576978Y-41952224D01*
X126514663Y-41827594D01*
X126390034Y-41765280D01*
X126140775Y-41765280D01*
X126016146Y-41827594D01*
X126576978Y-42575370D02*
X126452348Y-42637685D01*
X126140775Y-42637685D01*
X126016146Y-42575370D01*
X125953831Y-42450741D01*
X125953831Y-42326112D01*
X126016146Y-42201482D01*
X126140775Y-42139168D01*
X126452348Y-42139168D01*
X126576978Y-42076853D01*
X127013180Y-41765280D02*
X127511698Y-41765280D01*
X127200124Y-41329077D02*
X127200124Y-42450741D01*
X127262439Y-42575370D01*
X127387068Y-42637685D01*
X127511698Y-42637685D01*
X127760956Y-41765280D02*
X128259474Y-41765280D01*
X127947900Y-41329077D02*
X127947900Y-42450741D01*
X128010215Y-42575370D01*
X128134844Y-42637685D01*
X128259474Y-42637685D01*
X128882620Y-42637685D02*
X128757991Y-42575370D01*
X128695676Y-42450741D01*
X128695676Y-41329077D01*
X129879655Y-42575370D02*
X129755026Y-42637685D01*
X129505767Y-42637685D01*
X129381138Y-42575370D01*
X129318823Y-42450741D01*
X129318823Y-41952224D01*
X129381138Y-41827594D01*
X129505767Y-41765280D01*
X129755026Y-41765280D01*
X129879655Y-41827594D01*
X129941970Y-41952224D01*
X129941970Y-42076853D01*
X129318823Y-42201482D01*
X131936039Y-41952224D02*
X132122983Y-42014538D01*
X132185298Y-42076853D01*
X132247612Y-42201482D01*
X132247612Y-42388426D01*
X132185298Y-42513056D01*
X132122983Y-42575370D01*
X131998354Y-42637685D01*
X131499836Y-42637685D01*
X131499836Y-41329077D01*
X131936039Y-41329077D01*
X132060668Y-41391392D01*
X132122983Y-41453706D01*
X132185298Y-41578336D01*
X132185298Y-41702965D01*
X132122983Y-41827594D01*
X132060668Y-41889909D01*
X131936039Y-41952224D01*
X131499836Y-41952224D01*
X132808444Y-42637685D02*
X132808444Y-41765280D01*
X132808444Y-41329077D02*
X132746130Y-41391392D01*
X132808444Y-41453706D01*
X132870759Y-41391392D01*
X132808444Y-41329077D01*
X132808444Y-41453706D01*
X133244647Y-41765280D02*
X133743164Y-41765280D01*
X133431591Y-41329077D02*
X133431591Y-42450741D01*
X133493906Y-42575370D01*
X133618535Y-42637685D01*
X133743164Y-42637685D01*
X134117052Y-42575370D02*
X134241682Y-42637685D01*
X134490940Y-42637685D01*
X134615570Y-42575370D01*
X134677884Y-42450741D01*
X134677884Y-42388426D01*
X134615570Y-42263797D01*
X134490940Y-42201482D01*
X134303996Y-42201482D01*
X134179367Y-42139168D01*
X134117052Y-42014538D01*
X134117052Y-41952224D01*
X134179367Y-41827594D01*
X134303996Y-41765280D01*
X134490940Y-41765280D01*
X134615570Y-41827594D01*
X136235751Y-42637685D02*
X136235751Y-41329077D01*
X136734268Y-41329077D01*
X136858898Y-41391392D01*
X136921212Y-41453706D01*
X136983527Y-41578336D01*
X136983527Y-41765280D01*
X136921212Y-41889909D01*
X136858898Y-41952224D01*
X136734268Y-42014538D01*
X136235751Y-42014538D01*
X138292135Y-42513056D02*
X138229820Y-42575370D01*
X138042876Y-42637685D01*
X137918247Y-42637685D01*
X137731303Y-42575370D01*
X137606674Y-42450741D01*
X137544359Y-42326112D01*
X137482044Y-42076853D01*
X137482044Y-41889909D01*
X137544359Y-41640650D01*
X137606674Y-41516021D01*
X137731303Y-41391392D01*
X137918247Y-41329077D01*
X138042876Y-41329077D01*
X138229820Y-41391392D01*
X138292135Y-41453706D01*
X139289170Y-41952224D02*
X139476114Y-42014538D01*
X139538428Y-42076853D01*
X139600743Y-42201482D01*
X139600743Y-42388426D01*
X139538428Y-42513056D01*
X139476114Y-42575370D01*
X139351484Y-42637685D01*
X138852967Y-42637685D01*
X138852967Y-41329077D01*
X139289170Y-41329077D01*
X139413799Y-41391392D01*
X139476114Y-41453706D01*
X139538428Y-41578336D01*
X139538428Y-41702965D01*
X139476114Y-41827594D01*
X139413799Y-41889909D01*
X139289170Y-41952224D01*
X138852967Y-41952224D01*
X140971666Y-41329077D02*
X141407868Y-42637685D01*
X141844071Y-41329077D01*
X142841106Y-41765280D02*
X142841106Y-42637685D01*
X142529532Y-41266762D02*
X142217959Y-42201482D01*
X143028050Y-42201482D01*
X143526567Y-42513056D02*
X143588882Y-42575370D01*
X143526567Y-42637685D01*
X143464252Y-42575370D01*
X143526567Y-42513056D01*
X143526567Y-42637685D01*
X144398972Y-41329077D02*
X144523602Y-41329077D01*
X144648231Y-41391392D01*
X144710546Y-41453706D01*
X144772860Y-41578336D01*
X144835175Y-41827594D01*
X144835175Y-42139168D01*
X144772860Y-42388426D01*
X144710546Y-42513056D01*
X144648231Y-42575370D01*
X144523602Y-42637685D01*
X144398972Y-42637685D01*
X144274343Y-42575370D01*
X144212028Y-42513056D01*
X144149714Y-42388426D01*
X144087399Y-42139168D01*
X144087399Y-41827594D01*
X144149714Y-41578336D01*
X144212028Y-41453706D01*
X144274343Y-41391392D01*
X144398972Y-41329077D01*
X155465314Y-45621056D02*
X155402999Y-45683370D01*
X155216055Y-45745685D01*
X155091426Y-45745685D01*
X154904482Y-45683370D01*
X154779852Y-45558741D01*
X154717538Y-45434112D01*
X154655223Y-45184853D01*
X154655223Y-44997909D01*
X154717538Y-44748650D01*
X154779852Y-44624021D01*
X154904482Y-44499392D01*
X155091426Y-44437077D01*
X155216055Y-44437077D01*
X155402999Y-44499392D01*
X155465314Y-44561706D01*
X156213090Y-45745685D02*
X156088460Y-45683370D01*
X156026146Y-45621056D01*
X155963831Y-45496426D01*
X155963831Y-45122538D01*
X156026146Y-44997909D01*
X156088460Y-44935594D01*
X156213090Y-44873280D01*
X156400034Y-44873280D01*
X156524663Y-44935594D01*
X156586978Y-44997909D01*
X156649292Y-45122538D01*
X156649292Y-45496426D01*
X156586978Y-45621056D01*
X156524663Y-45683370D01*
X156400034Y-45745685D01*
X156213090Y-45745685D01*
X157210124Y-45745685D02*
X157210124Y-44873280D01*
X157210124Y-44997909D02*
X157272439Y-44935594D01*
X157397068Y-44873280D01*
X157584012Y-44873280D01*
X157708642Y-44935594D01*
X157770956Y-45060224D01*
X157770956Y-45745685D01*
X157770956Y-45060224D02*
X157833271Y-44935594D01*
X157957900Y-44873280D01*
X158144844Y-44873280D01*
X158269474Y-44935594D01*
X158331788Y-45060224D01*
X158331788Y-45745685D01*
X158954935Y-44873280D02*
X158954935Y-46181888D01*
X158954935Y-44935594D02*
X159079564Y-44873280D01*
X159328823Y-44873280D01*
X159453452Y-44935594D01*
X159515767Y-44997909D01*
X159578082Y-45122538D01*
X159578082Y-45496426D01*
X159515767Y-45621056D01*
X159453452Y-45683370D01*
X159328823Y-45745685D01*
X159079564Y-45745685D01*
X158954935Y-45683370D01*
X160699746Y-45745685D02*
X160699746Y-45060224D01*
X160637431Y-44935594D01*
X160512802Y-44873280D01*
X160263543Y-44873280D01*
X160138914Y-44935594D01*
X160699746Y-45683370D02*
X160575116Y-45745685D01*
X160263543Y-45745685D01*
X160138914Y-45683370D01*
X160076599Y-45558741D01*
X160076599Y-45434112D01*
X160138914Y-45309482D01*
X160263543Y-45247168D01*
X160575116Y-45247168D01*
X160699746Y-45184853D01*
X161322892Y-45745685D02*
X161322892Y-44873280D01*
X161322892Y-45122538D02*
X161385207Y-44997909D01*
X161447522Y-44935594D01*
X161572151Y-44873280D01*
X161696780Y-44873280D01*
X162693815Y-45745685D02*
X162693815Y-45060224D01*
X162631500Y-44935594D01*
X162506871Y-44873280D01*
X162257612Y-44873280D01*
X162132983Y-44935594D01*
X162693815Y-45683370D02*
X162569186Y-45745685D01*
X162257612Y-45745685D01*
X162132983Y-45683370D01*
X162070668Y-45558741D01*
X162070668Y-45434112D01*
X162132983Y-45309482D01*
X162257612Y-45247168D01*
X162569186Y-45247168D01*
X162693815Y-45184853D01*
X163130018Y-44873280D02*
X163628535Y-44873280D01*
X163316962Y-44437077D02*
X163316962Y-45558741D01*
X163379276Y-45683370D01*
X163503906Y-45745685D01*
X163628535Y-45745685D01*
X164251682Y-45745685D02*
X164127052Y-45683370D01*
X164064738Y-45621056D01*
X164002423Y-45496426D01*
X164002423Y-45122538D01*
X164064738Y-44997909D01*
X164127052Y-44935594D01*
X164251682Y-44873280D01*
X164438626Y-44873280D01*
X164563255Y-44935594D01*
X164625570Y-44997909D01*
X164687884Y-45122538D01*
X164687884Y-45496426D01*
X164625570Y-45621056D01*
X164563255Y-45683370D01*
X164438626Y-45745685D01*
X164251682Y-45745685D01*
X165248716Y-45745685D02*
X165248716Y-44873280D01*
X165248716Y-45122538D02*
X165311031Y-44997909D01*
X165373346Y-44935594D01*
X165497975Y-44873280D01*
X165622604Y-44873280D01*
X128543888Y-62401989D02*
X127796112Y-62401989D01*
X128170000Y-62401989D02*
X128170000Y-61093381D01*
X128045370Y-61280325D01*
X127920741Y-61404954D01*
X127796112Y-61467269D01*
X105434493Y-85285696D02*
X105309864Y-85223381D01*
X105122920Y-85223381D01*
X104935976Y-85285696D01*
X104811347Y-85410325D01*
X104749032Y-85534954D01*
X104686717Y-85784213D01*
X104686717Y-85971157D01*
X104749032Y-86220416D01*
X104811347Y-86345045D01*
X104935976Y-86469674D01*
X105122920Y-86531989D01*
X105247549Y-86531989D01*
X105434493Y-86469674D01*
X105496808Y-86407360D01*
X105496808Y-85971157D01*
X105247549Y-85971157D01*
X106057640Y-86531989D02*
X106057640Y-85223381D01*
X106805416Y-86531989D01*
X106805416Y-85223381D01*
X107428563Y-86531989D02*
X107428563Y-85223381D01*
X107740136Y-85223381D01*
X107927080Y-85285696D01*
X108051709Y-85410325D01*
X108114024Y-85534954D01*
X108176339Y-85784213D01*
X108176339Y-85971157D01*
X108114024Y-86220416D01*
X108051709Y-86345045D01*
X107927080Y-86469674D01*
X107740136Y-86531989D01*
X107428563Y-86531989D01*
X110668925Y-85161066D02*
X109547261Y-86843562D01*
X112725309Y-86531989D02*
X112102163Y-86531989D01*
X112102163Y-85223381D01*
X113348456Y-86531989D02*
X113223827Y-86469674D01*
X113161512Y-86407360D01*
X113099197Y-86282730D01*
X113099197Y-85908842D01*
X113161512Y-85784213D01*
X113223827Y-85721898D01*
X113348456Y-85659584D01*
X113535400Y-85659584D01*
X113660029Y-85721898D01*
X113722344Y-85784213D01*
X113784659Y-85908842D01*
X113784659Y-86282730D01*
X113722344Y-86407360D01*
X113660029Y-86469674D01*
X113535400Y-86531989D01*
X113348456Y-86531989D01*
X114906323Y-85659584D02*
X114906323Y-86718933D01*
X114844008Y-86843562D01*
X114781693Y-86905877D01*
X114657064Y-86968192D01*
X114470120Y-86968192D01*
X114345491Y-86905877D01*
X114906323Y-86469674D02*
X114781693Y-86531989D01*
X114532435Y-86531989D01*
X114407805Y-86469674D01*
X114345491Y-86407360D01*
X114283176Y-86282730D01*
X114283176Y-85908842D01*
X114345491Y-85784213D01*
X114407805Y-85721898D01*
X114532435Y-85659584D01*
X114781693Y-85659584D01*
X114906323Y-85721898D01*
X115529469Y-86531989D02*
X115529469Y-85659584D01*
X115529469Y-85223381D02*
X115467155Y-85285696D01*
X115529469Y-85348010D01*
X115591784Y-85285696D01*
X115529469Y-85223381D01*
X115529469Y-85348010D01*
X116713448Y-86469674D02*
X116588819Y-86531989D01*
X116339560Y-86531989D01*
X116214931Y-86469674D01*
X116152616Y-86407360D01*
X116090301Y-86282730D01*
X116090301Y-85908842D01*
X116152616Y-85784213D01*
X116214931Y-85721898D01*
X116339560Y-85659584D01*
X116588819Y-85659584D01*
X116713448Y-85721898D01*
X118520573Y-85223381D02*
X118645203Y-85223381D01*
X118769832Y-85285696D01*
X118832147Y-85348010D01*
X118894461Y-85472640D01*
X118956776Y-85721898D01*
X118956776Y-86033472D01*
X118894461Y-86282730D01*
X118832147Y-86407360D01*
X118769832Y-86469674D01*
X118645203Y-86531989D01*
X118520573Y-86531989D01*
X118395944Y-86469674D01*
X118333629Y-86407360D01*
X118271315Y-86282730D01*
X118209000Y-86033472D01*
X118209000Y-85721898D01*
X118271315Y-85472640D01*
X118333629Y-85348010D01*
X118395944Y-85285696D01*
X118520573Y-85223381D01*
X127733797Y-76333381D02*
X128606202Y-76333381D01*
X128045370Y-77641989D01*
X132082277Y-125209077D02*
X132331536Y-125209077D01*
X132456165Y-125271392D01*
X132580794Y-125396021D01*
X132643109Y-125645280D01*
X132643109Y-126081482D01*
X132580794Y-126330741D01*
X132456165Y-126455370D01*
X132331536Y-126517685D01*
X132082277Y-126517685D01*
X131957648Y-126455370D01*
X131833018Y-126330741D01*
X131770704Y-126081482D01*
X131770704Y-125645280D01*
X131833018Y-125396021D01*
X131957648Y-125271392D01*
X132082277Y-125209077D01*
X133764773Y-125645280D02*
X133764773Y-126517685D01*
X133203941Y-125645280D02*
X133203941Y-126330741D01*
X133266256Y-126455370D01*
X133390885Y-126517685D01*
X133577829Y-126517685D01*
X133702458Y-126455370D01*
X133764773Y-126393056D01*
X134200976Y-125645280D02*
X134699493Y-125645280D01*
X134387920Y-125209077D02*
X134387920Y-126330741D01*
X134450234Y-126455370D01*
X134574864Y-126517685D01*
X134699493Y-126517685D01*
X135135696Y-125645280D02*
X135135696Y-126953888D01*
X135135696Y-125707594D02*
X135260325Y-125645280D01*
X135509584Y-125645280D01*
X135634213Y-125707594D01*
X135696528Y-125769909D01*
X135758842Y-125894538D01*
X135758842Y-126268426D01*
X135696528Y-126393056D01*
X135634213Y-126455370D01*
X135509584Y-126517685D01*
X135260325Y-126517685D01*
X135135696Y-126455370D01*
X136880506Y-125645280D02*
X136880506Y-126517685D01*
X136319674Y-125645280D02*
X136319674Y-126330741D01*
X136381989Y-126455370D01*
X136506618Y-126517685D01*
X136693562Y-126517685D01*
X136818192Y-126455370D01*
X136880506Y-126393056D01*
X137316709Y-125645280D02*
X137815226Y-125645280D01*
X137503653Y-125209077D02*
X137503653Y-126330741D01*
X137565968Y-126455370D01*
X137690597Y-126517685D01*
X137815226Y-126517685D01*
X139186149Y-126143797D02*
X139809296Y-126143797D01*
X139061520Y-126517685D02*
X139497722Y-125209077D01*
X139933925Y-126517685D01*
X178833314Y-81305685D02*
X178397111Y-80682538D01*
X178085538Y-81305685D02*
X178085538Y-79997077D01*
X178584055Y-79997077D01*
X178708684Y-80059392D01*
X178770999Y-80121706D01*
X178833314Y-80246336D01*
X178833314Y-80433280D01*
X178770999Y-80557909D01*
X178708684Y-80620224D01*
X178584055Y-80682538D01*
X178085538Y-80682538D01*
X179892663Y-81243370D02*
X179768034Y-81305685D01*
X179518775Y-81305685D01*
X179394146Y-81243370D01*
X179331831Y-81118741D01*
X179331831Y-80620224D01*
X179394146Y-80495594D01*
X179518775Y-80433280D01*
X179768034Y-80433280D01*
X179892663Y-80495594D01*
X179954978Y-80620224D01*
X179954978Y-80744853D01*
X179331831Y-80869482D01*
X180453495Y-81243370D02*
X180578124Y-81305685D01*
X180827383Y-81305685D01*
X180952012Y-81243370D01*
X181014327Y-81118741D01*
X181014327Y-81056426D01*
X180952012Y-80931797D01*
X180827383Y-80869482D01*
X180640439Y-80869482D01*
X180515810Y-80807168D01*
X180453495Y-80682538D01*
X180453495Y-80620224D01*
X180515810Y-80495594D01*
X180640439Y-80433280D01*
X180827383Y-80433280D01*
X180952012Y-80495594D01*
X181575159Y-81305685D02*
X181575159Y-80433280D01*
X181575159Y-79997077D02*
X181512844Y-80059392D01*
X181575159Y-80121706D01*
X181637474Y-80059392D01*
X181575159Y-79997077D01*
X181575159Y-80121706D01*
X182135991Y-81243370D02*
X182260620Y-81305685D01*
X182509879Y-81305685D01*
X182634508Y-81243370D01*
X182696823Y-81118741D01*
X182696823Y-81056426D01*
X182634508Y-80931797D01*
X182509879Y-80869482D01*
X182322935Y-80869482D01*
X182198306Y-80807168D01*
X182135991Y-80682538D01*
X182135991Y-80620224D01*
X182198306Y-80495594D01*
X182322935Y-80433280D01*
X182509879Y-80433280D01*
X182634508Y-80495594D01*
X183070711Y-80433280D02*
X183569228Y-80433280D01*
X183257655Y-79997077D02*
X183257655Y-81118741D01*
X183319970Y-81243370D01*
X183444599Y-81305685D01*
X183569228Y-81305685D01*
X184192375Y-81305685D02*
X184067746Y-81243370D01*
X184005431Y-81181056D01*
X183943116Y-81056426D01*
X183943116Y-80682538D01*
X184005431Y-80557909D01*
X184067746Y-80495594D01*
X184192375Y-80433280D01*
X184379319Y-80433280D01*
X184503948Y-80495594D01*
X184566263Y-80557909D01*
X184628578Y-80682538D01*
X184628578Y-81056426D01*
X184566263Y-81181056D01*
X184503948Y-81243370D01*
X184379319Y-81305685D01*
X184192375Y-81305685D01*
X185189410Y-81305685D02*
X185189410Y-80433280D01*
X185189410Y-80682538D02*
X185251724Y-80557909D01*
X185314039Y-80495594D01*
X185438668Y-80433280D01*
X185563298Y-80433280D01*
X186934220Y-80931797D02*
X187557367Y-80931797D01*
X186809591Y-81305685D02*
X187245794Y-79997077D01*
X187681996Y-81305685D01*
X188118199Y-81305685D02*
X188118199Y-80433280D01*
X188118199Y-80682538D02*
X188180514Y-80557909D01*
X188242828Y-80495594D01*
X188367458Y-80433280D01*
X188492087Y-80433280D01*
X188928290Y-81305685D02*
X188928290Y-80433280D01*
X188928290Y-80682538D02*
X188990604Y-80557909D01*
X189052919Y-80495594D01*
X189177548Y-80433280D01*
X189302178Y-80433280D01*
X190299212Y-81305685D02*
X190299212Y-80620224D01*
X190236898Y-80495594D01*
X190112268Y-80433280D01*
X189863010Y-80433280D01*
X189738380Y-80495594D01*
X190299212Y-81243370D02*
X190174583Y-81305685D01*
X189863010Y-81305685D01*
X189738380Y-81243370D01*
X189676066Y-81118741D01*
X189676066Y-80994112D01*
X189738380Y-80869482D01*
X189863010Y-80807168D01*
X190174583Y-80807168D01*
X190299212Y-80744853D01*
X190797730Y-80433280D02*
X191109303Y-81305685D01*
X191420876Y-80433280D02*
X191109303Y-81305685D01*
X190984674Y-81617258D01*
X190922359Y-81679573D01*
X190797730Y-81741888D01*
D13*
X173266853Y-116536840D02*
X174513146Y-116536840D01*
X173890000Y-117159986D02*
X173890000Y-115913693D01*
D15*
X179245384Y-118112849D02*
X179245384Y-117178129D01*
X179556957Y-117845786D01*
X179868531Y-117178129D01*
X179868531Y-118112849D01*
X180269125Y-117845786D02*
X180714230Y-117845786D01*
X180180104Y-118112849D02*
X180491677Y-117178129D01*
X180803251Y-118112849D01*
X181025803Y-117178129D02*
X181648950Y-118112849D01*
X181648950Y-117178129D02*
X181025803Y-118112849D01*
X183162306Y-117178129D02*
X182717201Y-117178129D01*
X182672691Y-117623234D01*
X182717201Y-117578723D01*
X182806222Y-117534213D01*
X183028774Y-117534213D01*
X183117795Y-117578723D01*
X183162306Y-117623234D01*
X183206816Y-117712255D01*
X183206816Y-117934807D01*
X183162306Y-118023828D01*
X183117795Y-118068339D01*
X183028774Y-118112849D01*
X182806222Y-118112849D01*
X182717201Y-118068339D01*
X182672691Y-118023828D01*
X183785452Y-117178129D02*
X183874473Y-117178129D01*
X183963494Y-117222640D01*
X184008005Y-117267150D01*
X184052515Y-117356171D01*
X184097026Y-117534213D01*
X184097026Y-117756765D01*
X184052515Y-117934807D01*
X184008005Y-118023828D01*
X183963494Y-118068339D01*
X183874473Y-118112849D01*
X183785452Y-118112849D01*
X183696432Y-118068339D01*
X183651921Y-118023828D01*
X183607411Y-117934807D01*
X183562900Y-117756765D01*
X183562900Y-117534213D01*
X183607411Y-117356171D01*
X183651921Y-117267150D01*
X183696432Y-117222640D01*
X183785452Y-117178129D01*
X184675662Y-117178129D02*
X184764683Y-117178129D01*
X184853704Y-117222640D01*
X184898214Y-117267150D01*
X184942725Y-117356171D01*
X184987235Y-117534213D01*
X184987235Y-117756765D01*
X184942725Y-117934807D01*
X184898214Y-118023828D01*
X184853704Y-118068339D01*
X184764683Y-118112849D01*
X184675662Y-118112849D01*
X184586641Y-118068339D01*
X184542131Y-118023828D01*
X184497620Y-117934807D01*
X184453110Y-117756765D01*
X184453110Y-117534213D01*
X184497620Y-117356171D01*
X184542131Y-117267150D01*
X184586641Y-117222640D01*
X184675662Y-117178129D01*
X186099997Y-118112849D02*
X186099997Y-117489702D01*
X186099997Y-117578723D02*
X186144508Y-117534213D01*
X186233529Y-117489702D01*
X186367060Y-117489702D01*
X186456081Y-117534213D01*
X186500592Y-117623234D01*
X186500592Y-118112849D01*
X186500592Y-117623234D02*
X186545102Y-117534213D01*
X186634123Y-117489702D01*
X186767654Y-117489702D01*
X186856675Y-117534213D01*
X186901186Y-117623234D01*
X186901186Y-118112849D01*
X187301780Y-117845786D02*
X187746885Y-117845786D01*
X187212759Y-118112849D02*
X187524332Y-117178129D01*
X187835906Y-118112849D01*
X109277625Y-118112849D02*
X109277625Y-117178129D01*
X109589198Y-117845786D01*
X109900771Y-117178129D01*
X109900771Y-118112849D01*
X110301366Y-117845786D02*
X110746470Y-117845786D01*
X110212345Y-118112849D02*
X110523918Y-117178129D01*
X110835491Y-118112849D01*
X111058044Y-117178129D02*
X111681190Y-118112849D01*
X111681190Y-117178129D02*
X111058044Y-118112849D01*
X113194547Y-117178129D02*
X112749442Y-117178129D01*
X112704931Y-117623234D01*
X112749442Y-117578723D01*
X112838463Y-117534213D01*
X113061015Y-117534213D01*
X113150036Y-117578723D01*
X113194547Y-117623234D01*
X113239057Y-117712255D01*
X113239057Y-117934807D01*
X113194547Y-118023828D01*
X113150036Y-118068339D01*
X113061015Y-118112849D01*
X112838463Y-118112849D01*
X112749442Y-118068339D01*
X112704931Y-118023828D01*
X113817693Y-117178129D02*
X113906714Y-117178129D01*
X113995735Y-117222640D01*
X114040246Y-117267150D01*
X114084756Y-117356171D01*
X114129267Y-117534213D01*
X114129267Y-117756765D01*
X114084756Y-117934807D01*
X114040246Y-118023828D01*
X113995735Y-118068339D01*
X113906714Y-118112849D01*
X113817693Y-118112849D01*
X113728672Y-118068339D01*
X113684162Y-118023828D01*
X113639651Y-117934807D01*
X113595141Y-117756765D01*
X113595141Y-117534213D01*
X113639651Y-117356171D01*
X113684162Y-117267150D01*
X113728672Y-117222640D01*
X113817693Y-117178129D01*
X114707903Y-117178129D02*
X114796924Y-117178129D01*
X114885945Y-117222640D01*
X114930455Y-117267150D01*
X114974966Y-117356171D01*
X115019476Y-117534213D01*
X115019476Y-117756765D01*
X114974966Y-117934807D01*
X114930455Y-118023828D01*
X114885945Y-118068339D01*
X114796924Y-118112849D01*
X114707903Y-118112849D01*
X114618882Y-118068339D01*
X114574371Y-118023828D01*
X114529861Y-117934807D01*
X114485350Y-117756765D01*
X114485350Y-117534213D01*
X114529861Y-117356171D01*
X114574371Y-117267150D01*
X114618882Y-117222640D01*
X114707903Y-117178129D01*
X116132238Y-118112849D02*
X116132238Y-117489702D01*
X116132238Y-117578723D02*
X116176748Y-117534213D01*
X116265769Y-117489702D01*
X116399301Y-117489702D01*
X116488322Y-117534213D01*
X116532832Y-117623234D01*
X116532832Y-118112849D01*
X116532832Y-117623234D02*
X116577343Y-117534213D01*
X116666364Y-117489702D01*
X116799895Y-117489702D01*
X116888916Y-117534213D01*
X116933427Y-117623234D01*
X116933427Y-118112849D01*
X117334021Y-117845786D02*
X117779126Y-117845786D01*
X117245000Y-118112849D02*
X117556573Y-117178129D01*
X117868147Y-118112849D01*
D14*
X143212380Y-145292380D02*
X143387619Y-145292380D01*
X143562857Y-145380000D01*
X143650476Y-145467619D01*
X143738095Y-145642857D01*
X143825714Y-145993333D01*
X143825714Y-146431428D01*
X143738095Y-146781904D01*
X143650476Y-146957142D01*
X143562857Y-147044761D01*
X143387619Y-147132380D01*
X143212380Y-147132380D01*
X143037142Y-147044761D01*
X142949523Y-146957142D01*
X142861904Y-146781904D01*
X142774285Y-146431428D01*
X142774285Y-145993333D01*
X142861904Y-145642857D01*
X142949523Y-145467619D01*
X143037142Y-145380000D01*
X143212380Y-145292380D01*
D10*
X168560741Y-109391989D02*
X168810000Y-109391989D01*
X168934629Y-109329674D01*
X168996944Y-109267360D01*
X169121573Y-109080416D01*
X169183888Y-108831157D01*
X169183888Y-108332640D01*
X169121573Y-108208010D01*
X169059258Y-108145696D01*
X168934629Y-108083381D01*
X168685370Y-108083381D01*
X168560741Y-108145696D01*
X168498426Y-108208010D01*
X168436112Y-108332640D01*
X168436112Y-108644213D01*
X168498426Y-108768842D01*
X168560741Y-108831157D01*
X168685370Y-108893472D01*
X168934629Y-108893472D01*
X169059258Y-108831157D01*
X169121573Y-108768842D01*
X169183888Y-108644213D01*
X128543888Y-96691989D02*
X127796112Y-96691989D01*
X128170000Y-96691989D02*
X128170000Y-95383381D01*
X128045370Y-95570325D01*
X127920741Y-95694954D01*
X127796112Y-95757269D01*
X128771538Y-46551967D02*
X128771538Y-45243359D01*
X129083111Y-45243359D01*
X129270055Y-45305674D01*
X129394684Y-45430303D01*
X129456999Y-45554932D01*
X129519314Y-45804191D01*
X129519314Y-45991135D01*
X129456999Y-46240394D01*
X129394684Y-46365023D01*
X129270055Y-46489652D01*
X129083111Y-46551967D01*
X128771538Y-46551967D01*
X130578663Y-46489652D02*
X130454034Y-46551967D01*
X130204775Y-46551967D01*
X130080146Y-46489652D01*
X130017831Y-46365023D01*
X130017831Y-45866506D01*
X130080146Y-45741876D01*
X130204775Y-45679562D01*
X130454034Y-45679562D01*
X130578663Y-45741876D01*
X130640978Y-45866506D01*
X130640978Y-45991135D01*
X130017831Y-46115764D01*
X131139495Y-46489652D02*
X131264124Y-46551967D01*
X131513383Y-46551967D01*
X131638012Y-46489652D01*
X131700327Y-46365023D01*
X131700327Y-46302708D01*
X131638012Y-46178079D01*
X131513383Y-46115764D01*
X131326439Y-46115764D01*
X131201810Y-46053450D01*
X131139495Y-45928820D01*
X131139495Y-45866506D01*
X131201810Y-45741876D01*
X131326439Y-45679562D01*
X131513383Y-45679562D01*
X131638012Y-45741876D01*
X132261159Y-46551967D02*
X132261159Y-45679562D01*
X132261159Y-45243359D02*
X132198844Y-45305674D01*
X132261159Y-45367988D01*
X132323474Y-45305674D01*
X132261159Y-45243359D01*
X132261159Y-45367988D01*
X133445138Y-45679562D02*
X133445138Y-46738911D01*
X133382823Y-46863540D01*
X133320508Y-46925855D01*
X133195879Y-46988170D01*
X133008935Y-46988170D01*
X132884306Y-46925855D01*
X133445138Y-46489652D02*
X133320508Y-46551967D01*
X133071250Y-46551967D01*
X132946620Y-46489652D01*
X132884306Y-46427338D01*
X132821991Y-46302708D01*
X132821991Y-45928820D01*
X132884306Y-45804191D01*
X132946620Y-45741876D01*
X133071250Y-45679562D01*
X133320508Y-45679562D01*
X133445138Y-45741876D01*
X134068284Y-45679562D02*
X134068284Y-46551967D01*
X134068284Y-45804191D02*
X134130599Y-45741876D01*
X134255228Y-45679562D01*
X134442172Y-45679562D01*
X134566802Y-45741876D01*
X134629116Y-45866506D01*
X134629116Y-46551967D01*
X135750780Y-46489652D02*
X135626151Y-46551967D01*
X135376892Y-46551967D01*
X135252263Y-46489652D01*
X135189948Y-46365023D01*
X135189948Y-45866506D01*
X135252263Y-45741876D01*
X135376892Y-45679562D01*
X135626151Y-45679562D01*
X135750780Y-45741876D01*
X135813095Y-45866506D01*
X135813095Y-45991135D01*
X135189948Y-46115764D01*
X136934759Y-46551967D02*
X136934759Y-45243359D01*
X136934759Y-46489652D02*
X136810130Y-46551967D01*
X136560871Y-46551967D01*
X136436242Y-46489652D01*
X136373927Y-46427338D01*
X136311612Y-46302708D01*
X136311612Y-45928820D01*
X136373927Y-45804191D01*
X136436242Y-45741876D01*
X136560871Y-45679562D01*
X136810130Y-45679562D01*
X136934759Y-45741876D01*
X138554940Y-46551967D02*
X138554940Y-45243359D01*
X138554940Y-45741876D02*
X138679570Y-45679562D01*
X138928828Y-45679562D01*
X139053458Y-45741876D01*
X139115772Y-45804191D01*
X139178087Y-45928820D01*
X139178087Y-46302708D01*
X139115772Y-46427338D01*
X139053458Y-46489652D01*
X138928828Y-46551967D01*
X138679570Y-46551967D01*
X138554940Y-46489652D01*
X139614290Y-45679562D02*
X139925863Y-46551967D01*
X140237436Y-45679562D02*
X139925863Y-46551967D01*
X139801234Y-46863540D01*
X139738919Y-46925855D01*
X139614290Y-46988170D01*
X129145426Y-47350218D02*
X129145426Y-48284938D01*
X129083111Y-48471882D01*
X128958482Y-48596511D01*
X128771538Y-48658826D01*
X128646908Y-48658826D01*
X130267090Y-48596511D02*
X130142460Y-48658826D01*
X129893202Y-48658826D01*
X129768572Y-48596511D01*
X129706258Y-48471882D01*
X129706258Y-47973365D01*
X129768572Y-47848735D01*
X129893202Y-47786421D01*
X130142460Y-47786421D01*
X130267090Y-47848735D01*
X130329404Y-47973365D01*
X130329404Y-48097994D01*
X129706258Y-48222623D01*
X131077180Y-48658826D02*
X130952551Y-48596511D01*
X130890236Y-48471882D01*
X130890236Y-47350218D01*
X131762642Y-48658826D02*
X131638012Y-48596511D01*
X131575698Y-48471882D01*
X131575698Y-47350218D01*
X132759676Y-48596511D02*
X132635047Y-48658826D01*
X132385788Y-48658826D01*
X132261159Y-48596511D01*
X132198844Y-48471882D01*
X132198844Y-47973365D01*
X132261159Y-47848735D01*
X132385788Y-47786421D01*
X132635047Y-47786421D01*
X132759676Y-47848735D01*
X132821991Y-47973365D01*
X132821991Y-48097994D01*
X132198844Y-48222623D01*
X135127634Y-48658826D02*
X134691431Y-48035679D01*
X134379858Y-48658826D02*
X134379858Y-47350218D01*
X134878375Y-47350218D01*
X135003004Y-47412533D01*
X135065319Y-47474847D01*
X135127634Y-47599477D01*
X135127634Y-47786421D01*
X135065319Y-47911050D01*
X135003004Y-47973365D01*
X134878375Y-48035679D01*
X134379858Y-48035679D01*
X136186983Y-48596511D02*
X136062354Y-48658826D01*
X135813095Y-48658826D01*
X135688466Y-48596511D01*
X135626151Y-48471882D01*
X135626151Y-47973365D01*
X135688466Y-47848735D01*
X135813095Y-47786421D01*
X136062354Y-47786421D01*
X136186983Y-47848735D01*
X136249298Y-47973365D01*
X136249298Y-48097994D01*
X135626151Y-48222623D01*
X136810130Y-48658826D02*
X136810130Y-47786421D01*
X136810130Y-47350218D02*
X136747815Y-47412533D01*
X136810130Y-47474847D01*
X136872444Y-47412533D01*
X136810130Y-47350218D01*
X136810130Y-47474847D01*
X137246332Y-47786421D02*
X137744850Y-47786421D01*
X137433276Y-47350218D02*
X137433276Y-48471882D01*
X137495591Y-48596511D01*
X137620220Y-48658826D01*
X137744850Y-48658826D01*
X138181052Y-48658826D02*
X138181052Y-47350218D01*
X138741884Y-48658826D02*
X138741884Y-47973365D01*
X138679570Y-47848735D01*
X138554940Y-47786421D01*
X138367996Y-47786421D01*
X138243367Y-47848735D01*
X138181052Y-47911050D01*
X128709223Y-50703370D02*
X128896167Y-50765685D01*
X129207740Y-50765685D01*
X129332370Y-50703370D01*
X129394684Y-50641056D01*
X129456999Y-50516426D01*
X129456999Y-50391797D01*
X129394684Y-50267168D01*
X129332370Y-50204853D01*
X129207740Y-50142538D01*
X128958482Y-50080224D01*
X128833852Y-50017909D01*
X128771538Y-49955594D01*
X128709223Y-49830965D01*
X128709223Y-49706336D01*
X128771538Y-49581706D01*
X128833852Y-49519392D01*
X128958482Y-49457077D01*
X129270055Y-49457077D01*
X129456999Y-49519392D01*
X130516348Y-50703370D02*
X130391719Y-50765685D01*
X130142460Y-50765685D01*
X130017831Y-50703370D01*
X129955516Y-50578741D01*
X129955516Y-50080224D01*
X130017831Y-49955594D01*
X130142460Y-49893280D01*
X130391719Y-49893280D01*
X130516348Y-49955594D01*
X130578663Y-50080224D01*
X130578663Y-50204853D01*
X129955516Y-50329482D01*
X131139495Y-49893280D02*
X131139495Y-51201888D01*
X131139495Y-49955594D02*
X131264124Y-49893280D01*
X131513383Y-49893280D01*
X131638012Y-49955594D01*
X131700327Y-50017909D01*
X131762642Y-50142538D01*
X131762642Y-50516426D01*
X131700327Y-50641056D01*
X131638012Y-50703370D01*
X131513383Y-50765685D01*
X131264124Y-50765685D01*
X131139495Y-50703370D01*
X132136530Y-49893280D02*
X132635047Y-49893280D01*
X132323474Y-49457077D02*
X132323474Y-50578741D01*
X132385788Y-50703370D01*
X132510418Y-50765685D01*
X132635047Y-50765685D01*
X133569767Y-50703370D02*
X133445138Y-50765685D01*
X133195879Y-50765685D01*
X133071250Y-50703370D01*
X133008935Y-50578741D01*
X133008935Y-50080224D01*
X133071250Y-49955594D01*
X133195879Y-49893280D01*
X133445138Y-49893280D01*
X133569767Y-49955594D01*
X133632082Y-50080224D01*
X133632082Y-50204853D01*
X133008935Y-50329482D01*
X134192914Y-50765685D02*
X134192914Y-49893280D01*
X134192914Y-50017909D02*
X134255228Y-49955594D01*
X134379858Y-49893280D01*
X134566802Y-49893280D01*
X134691431Y-49955594D01*
X134753746Y-50080224D01*
X134753746Y-50765685D01*
X134753746Y-50080224D02*
X134816060Y-49955594D01*
X134940690Y-49893280D01*
X135127634Y-49893280D01*
X135252263Y-49955594D01*
X135314578Y-50080224D01*
X135314578Y-50765685D01*
X135937724Y-50765685D02*
X135937724Y-49457077D01*
X135937724Y-49955594D02*
X136062354Y-49893280D01*
X136311612Y-49893280D01*
X136436242Y-49955594D01*
X136498556Y-50017909D01*
X136560871Y-50142538D01*
X136560871Y-50516426D01*
X136498556Y-50641056D01*
X136436242Y-50703370D01*
X136311612Y-50765685D01*
X136062354Y-50765685D01*
X135937724Y-50703370D01*
X137620220Y-50703370D02*
X137495591Y-50765685D01*
X137246332Y-50765685D01*
X137121703Y-50703370D01*
X137059388Y-50578741D01*
X137059388Y-50080224D01*
X137121703Y-49955594D01*
X137246332Y-49893280D01*
X137495591Y-49893280D01*
X137620220Y-49955594D01*
X137682535Y-50080224D01*
X137682535Y-50204853D01*
X137059388Y-50329482D01*
X138243367Y-50765685D02*
X138243367Y-49893280D01*
X138243367Y-50142538D02*
X138305682Y-50017909D01*
X138367996Y-49955594D01*
X138492626Y-49893280D01*
X138617255Y-49893280D01*
X139988178Y-49581706D02*
X140050492Y-49519392D01*
X140175122Y-49457077D01*
X140486695Y-49457077D01*
X140611324Y-49519392D01*
X140673639Y-49581706D01*
X140735954Y-49706336D01*
X140735954Y-49830965D01*
X140673639Y-50017909D01*
X139925863Y-50765685D01*
X140735954Y-50765685D01*
X141546044Y-49457077D02*
X141670674Y-49457077D01*
X141795303Y-49519392D01*
X141857618Y-49581706D01*
X141919932Y-49706336D01*
X141982247Y-49955594D01*
X141982247Y-50267168D01*
X141919932Y-50516426D01*
X141857618Y-50641056D01*
X141795303Y-50703370D01*
X141670674Y-50765685D01*
X141546044Y-50765685D01*
X141421415Y-50703370D01*
X141359100Y-50641056D01*
X141296786Y-50516426D01*
X141234471Y-50267168D01*
X141234471Y-49955594D01*
X141296786Y-49706336D01*
X141359100Y-49581706D01*
X141421415Y-49519392D01*
X141546044Y-49457077D01*
X142480764Y-49581706D02*
X142543079Y-49519392D01*
X142667708Y-49457077D01*
X142979282Y-49457077D01*
X143103911Y-49519392D01*
X143166226Y-49581706D01*
X143228540Y-49706336D01*
X143228540Y-49830965D01*
X143166226Y-50017909D01*
X142418450Y-50765685D01*
X143228540Y-50765685D01*
X143727058Y-49581706D02*
X143789372Y-49519392D01*
X143914002Y-49457077D01*
X144225575Y-49457077D01*
X144350204Y-49519392D01*
X144412519Y-49581706D01*
X144474834Y-49706336D01*
X144474834Y-49830965D01*
X144412519Y-50017909D01*
X143664743Y-50765685D01*
X144474834Y-50765685D01*
X123362965Y-76395696D02*
X123238336Y-76333381D01*
X123051392Y-76333381D01*
X122864448Y-76395696D01*
X122739818Y-76520325D01*
X122677504Y-76644954D01*
X122615189Y-76894213D01*
X122615189Y-77081157D01*
X122677504Y-77330416D01*
X122739818Y-77455045D01*
X122864448Y-77579674D01*
X123051392Y-77641989D01*
X123176021Y-77641989D01*
X123362965Y-77579674D01*
X123425280Y-77517360D01*
X123425280Y-77081157D01*
X123176021Y-77081157D01*
X123986112Y-77641989D02*
X123986112Y-76333381D01*
X124733888Y-77641989D01*
X124733888Y-76333381D01*
X125357034Y-77641989D02*
X125357034Y-76333381D01*
X125668608Y-76333381D01*
X125855552Y-76395696D01*
X125980181Y-76520325D01*
X126042496Y-76644954D01*
X126104810Y-76894213D01*
X126104810Y-77081157D01*
X126042496Y-77330416D01*
X125980181Y-77455045D01*
X125855552Y-77579674D01*
X125668608Y-77641989D01*
X125357034Y-77641989D01*
X155645437Y-132957310D02*
X155777626Y-132208237D01*
X155116679Y-132428553D02*
X156042005Y-131503227D01*
X156394510Y-131855732D01*
X156438573Y-131987922D01*
X156438573Y-132076048D01*
X156394510Y-132208237D01*
X156262320Y-132340427D01*
X156130131Y-132384490D01*
X156042005Y-132384490D01*
X155909815Y-132340427D01*
X155557310Y-131987922D01*
X156747015Y-134058889D02*
X157672340Y-133133563D01*
X157319835Y-134102952D01*
X158289224Y-133750447D01*
X157363899Y-134675772D01*
X158906108Y-134367330D02*
X159082360Y-134543583D01*
X159126423Y-134675772D01*
X159126423Y-134852025D01*
X158994234Y-135072340D01*
X158685792Y-135380782D01*
X158465477Y-135512972D01*
X158289224Y-135512972D01*
X158157035Y-135468909D01*
X157980782Y-135292656D01*
X157936719Y-135160467D01*
X157936719Y-134984214D01*
X158068909Y-134763899D01*
X158377350Y-134455457D01*
X158597666Y-134323267D01*
X158773918Y-134323267D01*
X158906108Y-134367330D01*
X159567055Y-135028277D02*
X160095812Y-135557035D01*
X158906108Y-136217982D02*
X159831433Y-135292656D01*
X160580507Y-136041729D02*
X160756759Y-136217982D01*
X160800822Y-136350171D01*
X160800822Y-136526423D01*
X160668633Y-136746739D01*
X160360191Y-137055181D01*
X160139875Y-137187370D01*
X159963623Y-137187370D01*
X159831433Y-137143307D01*
X159655181Y-136967055D01*
X159611118Y-136834865D01*
X159611118Y-136658613D01*
X159743307Y-136438297D01*
X160051749Y-136129855D01*
X160272065Y-135997666D01*
X160448317Y-135997666D01*
X160580507Y-136041729D01*
X160977075Y-138288948D02*
X161109264Y-137539875D01*
X160448317Y-137760191D02*
X161373643Y-136834865D01*
X161726148Y-137187370D01*
X161770211Y-137319560D01*
X161770211Y-137407686D01*
X161726148Y-137539875D01*
X161593958Y-137672065D01*
X161461769Y-137716128D01*
X161373643Y-137716128D01*
X161241453Y-137672065D01*
X160888948Y-137319560D01*
X162607410Y-139919284D02*
X162739600Y-139170211D01*
X162078653Y-139390526D02*
X163003978Y-138465201D01*
X163356483Y-138817706D01*
X163400546Y-138949895D01*
X163400546Y-139038022D01*
X163356483Y-139170211D01*
X163224294Y-139302400D01*
X163092105Y-139346463D01*
X163003978Y-139346463D01*
X162871789Y-139302400D01*
X162519284Y-138949895D01*
X163488673Y-139831158D02*
X163797115Y-140139600D01*
X163444610Y-140756483D02*
X163003978Y-140315852D01*
X163929304Y-139390526D01*
X164369935Y-139831158D01*
X164634314Y-140095536D02*
X164017430Y-141329304D01*
X165251198Y-140712420D01*
X123362965Y-110685696D02*
X123238336Y-110623381D01*
X123051392Y-110623381D01*
X122864448Y-110685696D01*
X122739818Y-110810325D01*
X122677504Y-110934954D01*
X122615189Y-111184213D01*
X122615189Y-111371157D01*
X122677504Y-111620416D01*
X122739818Y-111745045D01*
X122864448Y-111869674D01*
X123051392Y-111931989D01*
X123176021Y-111931989D01*
X123362965Y-111869674D01*
X123425280Y-111807360D01*
X123425280Y-111371157D01*
X123176021Y-111371157D01*
X123986112Y-111931989D02*
X123986112Y-110623381D01*
X124733888Y-111931989D01*
X124733888Y-110623381D01*
X125357034Y-111931989D02*
X125357034Y-110623381D01*
X125668608Y-110623381D01*
X125855552Y-110685696D01*
X125980181Y-110810325D01*
X126042496Y-110934954D01*
X126104810Y-111184213D01*
X126104810Y-111371157D01*
X126042496Y-111620416D01*
X125980181Y-111745045D01*
X125855552Y-111869674D01*
X125668608Y-111931989D01*
X125357034Y-111931989D01*
X128481573Y-71253381D02*
X127858426Y-71253381D01*
X127796112Y-71876528D01*
X127858426Y-71814213D01*
X127983056Y-71751898D01*
X128294629Y-71751898D01*
X128419258Y-71814213D01*
X128481573Y-71876528D01*
X128543888Y-72001157D01*
X128543888Y-72312730D01*
X128481573Y-72437360D01*
X128419258Y-72499674D01*
X128294629Y-72561989D01*
X127983056Y-72561989D01*
X127858426Y-72499674D01*
X127796112Y-72437360D01*
X160928684Y-94005685D02*
X160305538Y-94005685D01*
X160305538Y-92697077D01*
X161551831Y-94005685D02*
X161427202Y-93943370D01*
X161364887Y-93881056D01*
X161302572Y-93756426D01*
X161302572Y-93382538D01*
X161364887Y-93257909D01*
X161427202Y-93195594D01*
X161551831Y-93133280D01*
X161738775Y-93133280D01*
X161863404Y-93195594D01*
X161925719Y-93257909D01*
X161988034Y-93382538D01*
X161988034Y-93756426D01*
X161925719Y-93881056D01*
X161863404Y-93943370D01*
X161738775Y-94005685D01*
X161551831Y-94005685D01*
X163109698Y-93133280D02*
X163109698Y-94192629D01*
X163047383Y-94317258D01*
X162985068Y-94379573D01*
X162860439Y-94441888D01*
X162673495Y-94441888D01*
X162548866Y-94379573D01*
X163109698Y-93943370D02*
X162985068Y-94005685D01*
X162735810Y-94005685D01*
X162611180Y-93943370D01*
X162548866Y-93881056D01*
X162486551Y-93756426D01*
X162486551Y-93382538D01*
X162548866Y-93257909D01*
X162611180Y-93195594D01*
X162735810Y-93133280D01*
X162985068Y-93133280D01*
X163109698Y-93195594D01*
X163732844Y-94005685D02*
X163732844Y-93133280D01*
X163732844Y-92697077D02*
X163670530Y-92759392D01*
X163732844Y-92821706D01*
X163795159Y-92759392D01*
X163732844Y-92697077D01*
X163732844Y-92821706D01*
X164916823Y-93943370D02*
X164792194Y-94005685D01*
X164542935Y-94005685D01*
X164418306Y-93943370D01*
X164355991Y-93881056D01*
X164293676Y-93756426D01*
X164293676Y-93382538D01*
X164355991Y-93257909D01*
X164418306Y-93195594D01*
X164542935Y-93133280D01*
X164792194Y-93133280D01*
X164916823Y-93195594D01*
X167160151Y-92759392D02*
X167035522Y-92697077D01*
X166848578Y-92697077D01*
X166661634Y-92759392D01*
X166537004Y-92884021D01*
X166474690Y-93008650D01*
X166412375Y-93257909D01*
X166412375Y-93444853D01*
X166474690Y-93694112D01*
X166537004Y-93818741D01*
X166661634Y-93943370D01*
X166848578Y-94005685D01*
X166973207Y-94005685D01*
X167160151Y-93943370D01*
X167222466Y-93881056D01*
X167222466Y-93444853D01*
X166973207Y-93444853D01*
X168344130Y-94005685D02*
X168344130Y-93320224D01*
X168281815Y-93195594D01*
X168157186Y-93133280D01*
X167907927Y-93133280D01*
X167783298Y-93195594D01*
X168344130Y-93943370D02*
X168219500Y-94005685D01*
X167907927Y-94005685D01*
X167783298Y-93943370D01*
X167720983Y-93818741D01*
X167720983Y-93694112D01*
X167783298Y-93569482D01*
X167907927Y-93507168D01*
X168219500Y-93507168D01*
X168344130Y-93444853D01*
X168780332Y-93133280D02*
X169278850Y-93133280D01*
X168967276Y-92697077D02*
X168967276Y-93818741D01*
X169029591Y-93943370D01*
X169154220Y-94005685D01*
X169278850Y-94005685D01*
X170213570Y-93943370D02*
X170088940Y-94005685D01*
X169839682Y-94005685D01*
X169715052Y-93943370D01*
X169652738Y-93818741D01*
X169652738Y-93320224D01*
X169715052Y-93195594D01*
X169839682Y-93133280D01*
X170088940Y-93133280D01*
X170213570Y-93195594D01*
X170275884Y-93320224D01*
X170275884Y-93444853D01*
X169652738Y-93569482D01*
X168685370Y-76894213D02*
X168560741Y-76831898D01*
X168498426Y-76769584D01*
X168436112Y-76644954D01*
X168436112Y-76582640D01*
X168498426Y-76458010D01*
X168560741Y-76395696D01*
X168685370Y-76333381D01*
X168934629Y-76333381D01*
X169059258Y-76395696D01*
X169121573Y-76458010D01*
X169183888Y-76582640D01*
X169183888Y-76644954D01*
X169121573Y-76769584D01*
X169059258Y-76831898D01*
X168934629Y-76894213D01*
X168685370Y-76894213D01*
X168560741Y-76956528D01*
X168498426Y-77018842D01*
X168436112Y-77143472D01*
X168436112Y-77392730D01*
X168498426Y-77517360D01*
X168560741Y-77579674D01*
X168685370Y-77641989D01*
X168934629Y-77641989D01*
X169059258Y-77579674D01*
X169121573Y-77517360D01*
X169183888Y-77392730D01*
X169183888Y-77143472D01*
X169121573Y-77018842D01*
X169059258Y-76956528D01*
X168934629Y-76894213D01*
X132798210Y-141494314D02*
X132357579Y-141934945D01*
X131432253Y-141009620D01*
X133811662Y-140480862D02*
X132886336Y-139555536D01*
X133855725Y-139908041D01*
X133503220Y-138938653D01*
X134428546Y-139863978D01*
X134120104Y-138321769D02*
X134296356Y-138145517D01*
X134428546Y-138101453D01*
X134604798Y-138101453D01*
X134825114Y-138233643D01*
X135133556Y-138542085D01*
X135265745Y-138762400D01*
X135265745Y-138938653D01*
X135221682Y-139070842D01*
X135045429Y-139247095D01*
X134913240Y-139291158D01*
X134736987Y-139291158D01*
X134516672Y-139158968D01*
X134208230Y-138850526D01*
X134076041Y-138630211D01*
X134076041Y-138453958D01*
X134120104Y-138321769D01*
X134781051Y-137660822D02*
X135309808Y-137132065D01*
X135970755Y-138321769D02*
X135045429Y-137396443D01*
X135794502Y-136647370D02*
X135970755Y-136471118D01*
X136102944Y-136427055D01*
X136279197Y-136427055D01*
X136499512Y-136559244D01*
X136807954Y-136867686D01*
X136940144Y-137088002D01*
X136940144Y-137264254D01*
X136896081Y-137396443D01*
X136719828Y-137572696D01*
X136587639Y-137616759D01*
X136411386Y-137616759D01*
X136191071Y-137484570D01*
X135882629Y-137176128D01*
X135750439Y-136955812D01*
X135750439Y-136779560D01*
X135794502Y-136647370D01*
X138041722Y-136250802D02*
X137292649Y-136118613D01*
X137512964Y-136779560D02*
X136587639Y-135854234D01*
X136940144Y-135501729D01*
X137072333Y-135457666D01*
X137160459Y-135457666D01*
X137292649Y-135501729D01*
X137424838Y-135633918D01*
X137468901Y-135766108D01*
X137468901Y-135854234D01*
X137424838Y-135986423D01*
X137072333Y-136338928D01*
X138967047Y-134356088D02*
X138658605Y-134664530D01*
X139143300Y-135149224D02*
X138217974Y-134223899D01*
X138658605Y-133783267D01*
X138922984Y-133518889D02*
X140068625Y-134223899D01*
X139583931Y-133386699D01*
X140421130Y-133871394D01*
X139716120Y-132725752D01*
X140993951Y-133298573D02*
X140068625Y-132373247D01*
X140288941Y-132152932D01*
X140465194Y-132064805D01*
X140641446Y-132064805D01*
X140773635Y-132108869D01*
X140993951Y-132241058D01*
X141126140Y-132373247D01*
X141258330Y-132593563D01*
X141302393Y-132725752D01*
X141302393Y-132902005D01*
X141214267Y-133078257D01*
X140993951Y-133298573D01*
X155465314Y-79911056D02*
X155402999Y-79973370D01*
X155216055Y-80035685D01*
X155091426Y-80035685D01*
X154904482Y-79973370D01*
X154779852Y-79848741D01*
X154717538Y-79724112D01*
X154655223Y-79474853D01*
X154655223Y-79287909D01*
X154717538Y-79038650D01*
X154779852Y-78914021D01*
X154904482Y-78789392D01*
X155091426Y-78727077D01*
X155216055Y-78727077D01*
X155402999Y-78789392D01*
X155465314Y-78851706D01*
X156213090Y-80035685D02*
X156088460Y-79973370D01*
X156026146Y-79911056D01*
X155963831Y-79786426D01*
X155963831Y-79412538D01*
X156026146Y-79287909D01*
X156088460Y-79225594D01*
X156213090Y-79163280D01*
X156400034Y-79163280D01*
X156524663Y-79225594D01*
X156586978Y-79287909D01*
X156649292Y-79412538D01*
X156649292Y-79786426D01*
X156586978Y-79911056D01*
X156524663Y-79973370D01*
X156400034Y-80035685D01*
X156213090Y-80035685D01*
X157210124Y-80035685D02*
X157210124Y-79163280D01*
X157210124Y-79287909D02*
X157272439Y-79225594D01*
X157397068Y-79163280D01*
X157584012Y-79163280D01*
X157708642Y-79225594D01*
X157770956Y-79350224D01*
X157770956Y-80035685D01*
X157770956Y-79350224D02*
X157833271Y-79225594D01*
X157957900Y-79163280D01*
X158144844Y-79163280D01*
X158269474Y-79225594D01*
X158331788Y-79350224D01*
X158331788Y-80035685D01*
X158954935Y-79163280D02*
X158954935Y-80471888D01*
X158954935Y-79225594D02*
X159079564Y-79163280D01*
X159328823Y-79163280D01*
X159453452Y-79225594D01*
X159515767Y-79287909D01*
X159578082Y-79412538D01*
X159578082Y-79786426D01*
X159515767Y-79911056D01*
X159453452Y-79973370D01*
X159328823Y-80035685D01*
X159079564Y-80035685D01*
X158954935Y-79973370D01*
X160699746Y-80035685D02*
X160699746Y-79350224D01*
X160637431Y-79225594D01*
X160512802Y-79163280D01*
X160263543Y-79163280D01*
X160138914Y-79225594D01*
X160699746Y-79973370D02*
X160575116Y-80035685D01*
X160263543Y-80035685D01*
X160138914Y-79973370D01*
X160076599Y-79848741D01*
X160076599Y-79724112D01*
X160138914Y-79599482D01*
X160263543Y-79537168D01*
X160575116Y-79537168D01*
X160699746Y-79474853D01*
X161322892Y-80035685D02*
X161322892Y-79163280D01*
X161322892Y-79412538D02*
X161385207Y-79287909D01*
X161447522Y-79225594D01*
X161572151Y-79163280D01*
X161696780Y-79163280D01*
X162693815Y-80035685D02*
X162693815Y-79350224D01*
X162631500Y-79225594D01*
X162506871Y-79163280D01*
X162257612Y-79163280D01*
X162132983Y-79225594D01*
X162693815Y-79973370D02*
X162569186Y-80035685D01*
X162257612Y-80035685D01*
X162132983Y-79973370D01*
X162070668Y-79848741D01*
X162070668Y-79724112D01*
X162132983Y-79599482D01*
X162257612Y-79537168D01*
X162569186Y-79537168D01*
X162693815Y-79474853D01*
X163130018Y-79163280D02*
X163628535Y-79163280D01*
X163316962Y-78727077D02*
X163316962Y-79848741D01*
X163379276Y-79973370D01*
X163503906Y-80035685D01*
X163628535Y-80035685D01*
X164251682Y-80035685D02*
X164127052Y-79973370D01*
X164064738Y-79911056D01*
X164002423Y-79786426D01*
X164002423Y-79412538D01*
X164064738Y-79287909D01*
X164127052Y-79225594D01*
X164251682Y-79163280D01*
X164438626Y-79163280D01*
X164563255Y-79225594D01*
X164625570Y-79287909D01*
X164687884Y-79412538D01*
X164687884Y-79786426D01*
X164625570Y-79911056D01*
X164563255Y-79973370D01*
X164438626Y-80035685D01*
X164251682Y-80035685D01*
X165248716Y-80035685D02*
X165248716Y-79163280D01*
X165248716Y-79412538D02*
X165311031Y-79287909D01*
X165373346Y-79225594D01*
X165497975Y-79163280D01*
X165622604Y-79163280D01*
X170875189Y-61093381D02*
X171311392Y-62401989D01*
X171747594Y-61093381D01*
X172183797Y-62401989D02*
X172183797Y-61093381D01*
X172495370Y-61093381D01*
X172682314Y-61155696D01*
X172806944Y-61280325D01*
X172869258Y-61404954D01*
X172931573Y-61654213D01*
X172931573Y-61841157D01*
X172869258Y-62090416D01*
X172806944Y-62215045D01*
X172682314Y-62339674D01*
X172495370Y-62401989D01*
X172183797Y-62401989D01*
X173492405Y-62401989D02*
X173492405Y-61093381D01*
X173803978Y-61093381D01*
X173990922Y-61155696D01*
X174115552Y-61280325D01*
X174177866Y-61404954D01*
X174240181Y-61654213D01*
X174240181Y-61841157D01*
X174177866Y-62090416D01*
X174115552Y-62215045D01*
X173990922Y-62339674D01*
X173803978Y-62401989D01*
X173492405Y-62401989D01*
X128419258Y-69149584D02*
X128419258Y-70021989D01*
X128107685Y-68651066D02*
X127796112Y-69585786D01*
X128606202Y-69585786D01*
X116842277Y-113398077D02*
X117091536Y-113398077D01*
X117216165Y-113460392D01*
X117340794Y-113585021D01*
X117403109Y-113834280D01*
X117403109Y-114270482D01*
X117340794Y-114519741D01*
X117216165Y-114644370D01*
X117091536Y-114706685D01*
X116842277Y-114706685D01*
X116717648Y-114644370D01*
X116593018Y-114519741D01*
X116530704Y-114270482D01*
X116530704Y-113834280D01*
X116593018Y-113585021D01*
X116717648Y-113460392D01*
X116842277Y-113398077D01*
X118524773Y-113834280D02*
X118524773Y-114706685D01*
X117963941Y-113834280D02*
X117963941Y-114519741D01*
X118026256Y-114644370D01*
X118150885Y-114706685D01*
X118337829Y-114706685D01*
X118462458Y-114644370D01*
X118524773Y-114582056D01*
X118960976Y-113834280D02*
X119459493Y-113834280D01*
X119147920Y-113398077D02*
X119147920Y-114519741D01*
X119210234Y-114644370D01*
X119334864Y-114706685D01*
X119459493Y-114706685D01*
X119895696Y-113834280D02*
X119895696Y-115142888D01*
X119895696Y-113896594D02*
X120020325Y-113834280D01*
X120269584Y-113834280D01*
X120394213Y-113896594D01*
X120456528Y-113958909D01*
X120518842Y-114083538D01*
X120518842Y-114457426D01*
X120456528Y-114582056D01*
X120394213Y-114644370D01*
X120269584Y-114706685D01*
X120020325Y-114706685D01*
X119895696Y-114644370D01*
X121640506Y-113834280D02*
X121640506Y-114706685D01*
X121079674Y-113834280D02*
X121079674Y-114519741D01*
X121141989Y-114644370D01*
X121266618Y-114706685D01*
X121453562Y-114706685D01*
X121578192Y-114644370D01*
X121640506Y-114582056D01*
X122076709Y-113834280D02*
X122575226Y-113834280D01*
X122263653Y-113398077D02*
X122263653Y-114519741D01*
X122325968Y-114644370D01*
X122450597Y-114706685D01*
X122575226Y-114706685D01*
X123946149Y-114332797D02*
X124569296Y-114332797D01*
X123821520Y-114706685D02*
X124257722Y-113398077D01*
X124693925Y-114706685D01*
X168560741Y-64941989D02*
X167812965Y-64941989D01*
X168186853Y-64941989D02*
X168186853Y-63633381D01*
X168062224Y-63820325D01*
X167937594Y-63944954D01*
X167812965Y-64007269D01*
X168996944Y-63633381D02*
X169807034Y-63633381D01*
X169370832Y-64131898D01*
X169557776Y-64131898D01*
X169682405Y-64194213D01*
X169744720Y-64256528D01*
X169807034Y-64381157D01*
X169807034Y-64692730D01*
X169744720Y-64817360D01*
X169682405Y-64879674D01*
X169557776Y-64941989D01*
X169183888Y-64941989D01*
X169059258Y-64879674D01*
X168996944Y-64817360D01*
X127733797Y-66173381D02*
X128543888Y-66173381D01*
X128107685Y-66671898D01*
X128294629Y-66671898D01*
X128419258Y-66734213D01*
X128481573Y-66796528D01*
X128543888Y-66921157D01*
X128543888Y-67232730D01*
X128481573Y-67357360D01*
X128419258Y-67419674D01*
X128294629Y-67481989D01*
X127920741Y-67481989D01*
X127796112Y-67419674D01*
X127733797Y-67357360D01*
M02*
