%TF.GenerationSoftware,KiCad,Pcbnew,(6.0.7)*%
%TF.CreationDate,2022-09-06T19:29:11+02:00*%
%TF.ProjectId,BattleBits_V4,42617474-6c65-4426-9974-735f56342e6b,rev?*%
%TF.SameCoordinates,Original*%
%TF.FileFunction,Soldermask,Top*%
%TF.FilePolarity,Negative*%
%FSLAX46Y46*%
G04 Gerber Fmt 4.6, Leading zero omitted, Abs format (unit mm)*
G04 Created by KiCad (PCBNEW (6.0.7)) date 2022-09-06 19:29:11*
%MOMM*%
%LPD*%
G01*
G04 APERTURE LIST*
G04 Aperture macros list*
%AMRoundRect*
0 Rectangle with rounded corners*
0 $1 Rounding radius*
0 $2 $3 $4 $5 $6 $7 $8 $9 X,Y pos of 4 corners*
0 Add a 4 corners polygon primitive as box body*
4,1,4,$2,$3,$4,$5,$6,$7,$8,$9,$2,$3,0*
0 Add four circle primitives for the rounded corners*
1,1,$1+$1,$2,$3*
1,1,$1+$1,$4,$5*
1,1,$1+$1,$6,$7*
1,1,$1+$1,$8,$9*
0 Add four rect primitives between the rounded corners*
20,1,$1+$1,$2,$3,$4,$5,0*
20,1,$1+$1,$4,$5,$6,$7,0*
20,1,$1+$1,$6,$7,$8,$9,0*
20,1,$1+$1,$8,$9,$2,$3,0*%
%AMHorizOval*
0 Thick line with rounded ends*
0 $1 width*
0 $2 $3 position (X,Y) of the first rounded end (center of the circle)*
0 $4 $5 position (X,Y) of the second rounded end (center of the circle)*
0 Add line between two ends*
20,1,$1,$2,$3,$4,$5,0*
0 Add two circle primitives to create the rounded ends*
1,1,$1,$2,$3*
1,1,$1,$4,$5*%
%AMFreePoly0*
4,1,25,0.406913,0.920396,0.419036,0.910042,0.910042,0.419036,0.938548,0.363088,0.939800,0.347194,0.939800,-0.347194,0.920396,-0.406913,0.910042,-0.419036,0.419036,-0.910042,0.363088,-0.938548,0.347194,-0.939800,-0.347194,-0.939800,-0.406913,-0.920396,-0.419036,-0.910042,-0.910042,-0.419036,-0.938548,-0.363088,-0.939800,-0.347194,-0.939800,0.347194,-0.920396,0.406913,-0.910042,0.419036,
-0.419036,0.910042,-0.363088,0.938548,-0.347194,0.939800,0.347194,0.939800,0.406913,0.920396,0.406913,0.920396,$1*%
G04 Aperture macros list end*
%ADD10C,3.500000*%
%ADD11C,1.981200*%
%ADD12RoundRect,0.101600X0.900000X-0.800000X0.900000X0.800000X-0.900000X0.800000X-0.900000X-0.800000X0*%
%ADD13RoundRect,0.101600X0.600000X0.700000X-0.600000X0.700000X-0.600000X-0.700000X0.600000X-0.700000X0*%
%ADD14RoundRect,0.101600X-0.600000X-0.700000X0.600000X-0.700000X0.600000X0.700000X-0.600000X0.700000X0*%
%ADD15O,2.844800X1.524000*%
%ADD16RoundRect,0.101600X0.800000X-0.300000X0.800000X0.300000X-0.800000X0.300000X-0.800000X-0.300000X0*%
%ADD17RoundRect,0.101600X-0.800000X-0.900000X0.800000X-0.900000X0.800000X0.900000X-0.800000X0.900000X0*%
%ADD18HorizOval,1.524000X0.466973X0.466973X-0.466973X-0.466973X0*%
%ADD19C,1.371200*%
%ADD20RoundRect,0.101600X-0.900000X0.800000X-0.900000X-0.800000X0.900000X-0.800000X0.900000X0.800000X0*%
%ADD21C,3.200000*%
%ADD22HorizOval,1.524000X-0.466973X-0.466973X0.466973X0.466973X0*%
%ADD23RoundRect,0.101600X-0.600000X-0.350000X0.600000X-0.350000X0.600000X0.350000X-0.600000X0.350000X0*%
%ADD24RoundRect,0.101600X-1.016000X0.330200X-1.016000X-0.330200X1.016000X-0.330200X1.016000X0.330200X0*%
%ADD25O,3.251200X1.727200*%
%ADD26C,1.603200*%
%ADD27O,1.524000X2.844800*%
%ADD28O,1.727200X3.251200*%
%ADD29RoundRect,0.101600X-0.749300X-1.003300X0.749300X-1.003300X0.749300X1.003300X-0.749300X1.003300X0*%
%ADD30RoundRect,0.101600X-1.905000X-1.003300X1.905000X-1.003300X1.905000X1.003300X-1.905000X1.003300X0*%
%ADD31RoundRect,0.101600X0.600000X0.350000X-0.600000X0.350000X-0.600000X-0.350000X0.600000X-0.350000X0*%
%ADD32HorizOval,1.524000X-0.466973X0.466973X0.466973X-0.466973X0*%
%ADD33C,1.511200*%
%ADD34C,1.711200*%
%ADD35RoundRect,0.101600X-0.800000X0.300000X-0.800000X-0.300000X0.800000X-0.300000X0.800000X0.300000X0*%
%ADD36RoundRect,0.101600X1.100000X-0.300000X1.100000X0.300000X-1.100000X0.300000X-1.100000X-0.300000X0*%
%ADD37RoundRect,0.101600X-1.100000X0.300000X-1.100000X-0.300000X1.100000X-0.300000X1.100000X0.300000X0*%
%ADD38RoundRect,0.101600X1.016000X-0.330200X1.016000X0.330200X-1.016000X0.330200X-1.016000X-0.330200X0*%
%ADD39FreePoly0,225.000000*%
%ADD40C,15.000000*%
%ADD41RoundRect,0.101600X1.270000X-1.270000X1.270000X1.270000X-1.270000X1.270000X-1.270000X-1.270000X0*%
%ADD42RoundRect,0.101600X-1.270000X1.270000X-1.270000X-1.270000X1.270000X-1.270000X1.270000X1.270000X0*%
%ADD43FreePoly0,135.000000*%
%ADD44RoundRect,0.101600X0.800000X0.900000X-0.800000X0.900000X-0.800000X-0.900000X0.800000X-0.900000X0*%
%ADD45FreePoly0,45.000000*%
%ADD46RoundRect,0.101600X0.330200X1.016000X-0.330200X1.016000X-0.330200X-1.016000X0.330200X-1.016000X0*%
%ADD47HorizOval,1.524000X0.466973X-0.466973X-0.466973X0.466973X0*%
%ADD48FreePoly0,315.000000*%
%ADD49RoundRect,0.101600X0.350000X-0.600000X0.350000X0.600000X-0.350000X0.600000X-0.350000X-0.600000X0*%
G04 APERTURE END LIST*
D10*
%TO.C,U$1*%
X166791100Y-132863600D03*
D11*
X168791100Y-156593600D03*
X168791100Y-152593600D03*
%TD*%
D10*
%TO.C,U$2*%
X130211100Y-132863600D03*
D11*
X128211100Y-156593600D03*
X128211100Y-152593600D03*
%TD*%
D12*
%TO.C,R17*%
X154940000Y-50523600D03*
X154940000Y-47723600D03*
%TD*%
D13*
%TO.C,D16*%
X134761100Y-106273600D03*
X131761100Y-106273600D03*
%TD*%
D14*
%TO.C,D10*%
X162241100Y-71983600D03*
X165241100Y-71983600D03*
%TD*%
D15*
%TO.C,SV1*%
X141389100Y-74523600D03*
X141389100Y-71983600D03*
X141389100Y-69443600D03*
X141389100Y-66903600D03*
X141389100Y-64363600D03*
X141389100Y-61823600D03*
%TD*%
%TO.C,SV4*%
X155486100Y-98653600D03*
X155486100Y-101193600D03*
X155486100Y-103733600D03*
X155486100Y-106273600D03*
X155486100Y-108813600D03*
X155486100Y-111353600D03*
%TD*%
D16*
%TO.C,IC9*%
X125701100Y-147548600D03*
X125701100Y-146278600D03*
X125701100Y-145008600D03*
X125701100Y-143738600D03*
X120501100Y-143738600D03*
X120501100Y-145008600D03*
X120501100Y-146278600D03*
X120501100Y-147548600D03*
%TD*%
D17*
%TO.C,R15*%
X129280000Y-87413600D03*
X132080000Y-87413600D03*
%TD*%
D18*
%TO.C,SV10*%
X189730972Y-54793472D03*
X191527023Y-56589523D03*
X193323074Y-58385574D03*
X195119126Y-60181626D03*
X196915177Y-61977677D03*
X198711228Y-63773728D03*
%TD*%
D17*
%TO.C,R16*%
X166151100Y-87413600D03*
X168951100Y-87413600D03*
%TD*%
D12*
%TO.C,C2*%
X143421100Y-139423600D03*
X143421100Y-136623600D03*
%TD*%
D19*
%TO.C,R10*%
X101827151Y-137769651D03*
X98235049Y-137769651D03*
X98235049Y-134177549D03*
%TD*%
D20*
%TO.C,C1*%
X153581100Y-136623600D03*
X153581100Y-139423600D03*
%TD*%
D21*
%TO.C,@HOLE4*%
X211501100Y-105003600D03*
%TD*%
D20*
%TO.C,R18*%
X142240000Y-47723600D03*
X142240000Y-50523600D03*
%TD*%
D22*
%TO.C,SV12*%
X107271228Y-155213728D03*
X105475177Y-153417677D03*
X103679126Y-151621626D03*
X101883074Y-149825574D03*
X100087023Y-148029523D03*
X98290972Y-146233472D03*
%TD*%
D20*
%TO.C,R8*%
X173901100Y-126243600D03*
X173901100Y-129043600D03*
%TD*%
D15*
%TO.C,SV2*%
X155613100Y-64363600D03*
X155613100Y-66903600D03*
X155613100Y-69443600D03*
X155613100Y-71983600D03*
X155613100Y-74523600D03*
X155613100Y-77063600D03*
%TD*%
D14*
%TO.C,D21*%
X162241100Y-98653600D03*
X165241100Y-98653600D03*
%TD*%
D23*
%TO.C,U$6*%
X122871100Y-99923600D03*
X122871100Y-101193600D03*
X122871100Y-102463600D03*
X122871100Y-103733600D03*
X122871100Y-105003600D03*
X125871100Y-105003600D03*
X125871100Y-103733600D03*
X125871100Y-102463600D03*
X125871100Y-101193600D03*
X125871100Y-99923600D03*
%TD*%
D24*
%TO.C,IC2*%
X112407700Y-63728600D03*
X112407700Y-64998600D03*
X112407700Y-66268600D03*
X112407700Y-67538600D03*
X112407700Y-68808600D03*
X112407700Y-70078600D03*
X112407700Y-71348600D03*
X112407700Y-72618600D03*
X118554500Y-72618600D03*
X118554500Y-71348600D03*
X118554500Y-70078600D03*
X118554500Y-68808600D03*
X118554500Y-67538600D03*
X118554500Y-66268600D03*
X118554500Y-64998600D03*
X118554500Y-63728600D03*
%TD*%
D19*
%TO.C,R14*%
X120561100Y-137643600D03*
X123101100Y-135103600D03*
X125641100Y-137643600D03*
%TD*%
D25*
%TO.C,JP1*%
X120561100Y-118973600D03*
X120561100Y-116433600D03*
%TD*%
D26*
%TO.C,PH4*%
X201733663Y-66796163D03*
X204208537Y-69271037D03*
%TD*%
D19*
%TO.C,R2*%
X115735049Y-58329651D03*
X115735049Y-54737549D03*
X119327151Y-54737549D03*
%TD*%
D27*
%TO.C,SV13*%
X154851100Y-129387600D03*
X152311100Y-129387600D03*
X149771100Y-129387600D03*
X147231100Y-129387600D03*
X144691100Y-129387600D03*
X142151100Y-129387600D03*
%TD*%
D20*
%TO.C,R9*%
X123101100Y-126243600D03*
X123101100Y-129043600D03*
%TD*%
D23*
%TO.C,U$3*%
X141921100Y-54203600D03*
X141921100Y-55473600D03*
X141921100Y-56743600D03*
X141921100Y-58013600D03*
X141921100Y-59283600D03*
X144921100Y-59283600D03*
X144921100Y-58013600D03*
X144921100Y-56743600D03*
X144921100Y-55473600D03*
X144921100Y-54203600D03*
%TD*%
%TO.C,U$19*%
X122871100Y-65633600D03*
X122871100Y-66903600D03*
X122871100Y-68173600D03*
X122871100Y-69443600D03*
X122871100Y-70713600D03*
X125871100Y-70713600D03*
X125871100Y-69443600D03*
X125871100Y-68173600D03*
X125871100Y-66903600D03*
X125871100Y-65633600D03*
%TD*%
D13*
%TO.C,D18*%
X134761100Y-101193600D03*
X131761100Y-101193600D03*
%TD*%
D24*
%TO.C,IC5*%
X112407700Y-98018600D03*
X112407700Y-99288600D03*
X112407700Y-100558600D03*
X112407700Y-101828600D03*
X112407700Y-103098600D03*
X112407700Y-104368600D03*
X112407700Y-105638600D03*
X112407700Y-106908600D03*
X118554500Y-106908600D03*
X118554500Y-105638600D03*
X118554500Y-104368600D03*
X118554500Y-103098600D03*
X118554500Y-101828600D03*
X118554500Y-100558600D03*
X118554500Y-99288600D03*
X118554500Y-98018600D03*
%TD*%
D19*
%TO.C,R5*%
X198767151Y-134177549D03*
X198767151Y-137769651D03*
X195175049Y-137769651D03*
%TD*%
D28*
%TO.C,JP8*%
X133261100Y-164693600D03*
X130721100Y-164693600D03*
%TD*%
D29*
%TO.C,IC10*%
X146240500Y-139903200D03*
X148526500Y-139903200D03*
X150812500Y-139903200D03*
D30*
X148501100Y-133604000D03*
%TD*%
D13*
%TO.C,D3*%
X134761100Y-69443600D03*
X131761100Y-69443600D03*
%TD*%
D15*
%TO.C,IC1*%
X144691100Y-61823600D03*
X144691100Y-64363600D03*
X144691100Y-66903600D03*
X144691100Y-69443600D03*
X144691100Y-71983600D03*
X144691100Y-74523600D03*
X144691100Y-77063600D03*
X152311100Y-77063600D03*
X152311100Y-74523600D03*
X152311100Y-71983600D03*
X152311100Y-69443600D03*
X152311100Y-66903600D03*
X152311100Y-64363600D03*
X152311100Y-61823600D03*
%TD*%
D31*
%TO.C,U$9*%
X174131100Y-107543600D03*
X174131100Y-106273600D03*
X174131100Y-105003600D03*
X174131100Y-103733600D03*
X174131100Y-102463600D03*
X171131100Y-102463600D03*
X171131100Y-103733600D03*
X171131100Y-105003600D03*
X171131100Y-106273600D03*
X171131100Y-107543600D03*
%TD*%
D14*
%TO.C,D25*%
X162241100Y-108813600D03*
X165241100Y-108813600D03*
%TD*%
D19*
%TO.C,R4*%
X195175049Y-72237549D03*
X198767151Y-72237549D03*
X198767151Y-75829651D03*
%TD*%
D26*
%TO.C,PH1*%
X95268537Y-66796163D03*
X92793663Y-69271037D03*
%TD*%
D23*
%TO.C,U$11*%
X141921100Y-88493600D03*
X141921100Y-89763600D03*
X141921100Y-91033600D03*
X141921100Y-92303600D03*
X141921100Y-93573600D03*
X144921100Y-93573600D03*
X144921100Y-92303600D03*
X144921100Y-91033600D03*
X144921100Y-89763600D03*
X144921100Y-88493600D03*
%TD*%
D26*
%TO.C,PH7*%
X110293663Y-158236163D03*
X112768537Y-160711037D03*
%TD*%
D13*
%TO.C,D4*%
X134761100Y-66903600D03*
X131761100Y-66903600D03*
%TD*%
D15*
%TO.C,SV7*%
X138341100Y-108813600D03*
X138341100Y-106273600D03*
X138341100Y-103733600D03*
X138341100Y-101193600D03*
X138341100Y-98653600D03*
X138341100Y-96113600D03*
%TD*%
D14*
%TO.C,D22*%
X162241100Y-101193600D03*
X165241100Y-101193600D03*
%TD*%
D25*
%TO.C,JP2*%
X176441100Y-118973600D03*
X176441100Y-116433600D03*
%TD*%
D15*
%TO.C,SV3*%
X141516100Y-108813600D03*
X141516100Y-106273600D03*
X141516100Y-103733600D03*
X141516100Y-101193600D03*
X141516100Y-98653600D03*
X141516100Y-96113600D03*
%TD*%
D32*
%TO.C,SV9*%
X98290972Y-63773728D03*
X100087023Y-61977677D03*
X101883074Y-60181626D03*
X103679126Y-58385574D03*
X105475177Y-56589523D03*
X107271228Y-54793472D03*
%TD*%
D15*
%TO.C,IC3*%
X144691100Y-96113600D03*
X144691100Y-98653600D03*
X144691100Y-101193600D03*
X144691100Y-103733600D03*
X144691100Y-106273600D03*
X144691100Y-108813600D03*
X144691100Y-111353600D03*
X152311100Y-111353600D03*
X152311100Y-108813600D03*
X152311100Y-106273600D03*
X152311100Y-103733600D03*
X152311100Y-101193600D03*
X152311100Y-98653600D03*
X152311100Y-96113600D03*
%TD*%
D13*
%TO.C,D2*%
X134761100Y-71983600D03*
X131761100Y-71983600D03*
%TD*%
D20*
%TO.C,R13*%
X142240000Y-81759600D03*
X142240000Y-84559600D03*
%TD*%
D26*
%TO.C,PH2*%
X110293663Y-51771037D03*
X112768537Y-49296163D03*
%TD*%
D33*
%TO.C,U$7*%
X148501100Y-143749600D03*
D34*
X152501100Y-143749600D03*
X144501100Y-143749600D03*
D33*
X150501100Y-143749600D03*
X146501100Y-143749600D03*
%TD*%
D14*
%TO.C,D26*%
X162241100Y-111353600D03*
X165241100Y-111353600D03*
%TD*%
D35*
%TO.C,IC8*%
X171301100Y-143738600D03*
X171301100Y-145008600D03*
X171301100Y-146278600D03*
X171301100Y-147548600D03*
X176501100Y-147548600D03*
X176501100Y-146278600D03*
X176501100Y-145008600D03*
X176501100Y-143738600D03*
%TD*%
D27*
%TO.C,SV14*%
X124371100Y-83413600D03*
X126911100Y-83413600D03*
X129451100Y-83413600D03*
X131991100Y-83413600D03*
X134531100Y-83413600D03*
X137071100Y-83413600D03*
%TD*%
D12*
%TO.C,R12*%
X154940000Y-84559600D03*
X154940000Y-81759600D03*
%TD*%
D13*
%TO.C,D20*%
X134761100Y-96113600D03*
X131761100Y-96113600D03*
%TD*%
D36*
%TO.C,IC12*%
X151101100Y-86969600D03*
X151101100Y-85699600D03*
X151101100Y-84429600D03*
X151101100Y-83159600D03*
X151101100Y-81889600D03*
X151101100Y-80619600D03*
X151101100Y-79349600D03*
X145901100Y-79349600D03*
X145901100Y-80619600D03*
X145901100Y-81889600D03*
X145901100Y-83159600D03*
X145901100Y-84429600D03*
X145901100Y-85699600D03*
X145901100Y-86969600D03*
%TD*%
D37*
%TO.C,IC11*%
X145901100Y-45313600D03*
X145901100Y-46583600D03*
X145901100Y-47853600D03*
X145901100Y-49123600D03*
X145901100Y-50393600D03*
X145901100Y-51663600D03*
X145901100Y-52933600D03*
X151101100Y-52933600D03*
X151101100Y-51663600D03*
X151101100Y-50393600D03*
X151101100Y-49123600D03*
X151101100Y-47853600D03*
X151101100Y-46583600D03*
X151101100Y-45313600D03*
%TD*%
D26*
%TO.C,PH3*%
X186708537Y-51771037D03*
X184233663Y-49296163D03*
%TD*%
D14*
%TO.C,D11*%
X162241100Y-74523600D03*
X165241100Y-74523600D03*
%TD*%
D15*
%TO.C,SV8*%
X158661100Y-98653600D03*
X158661100Y-101193600D03*
X158661100Y-103733600D03*
X158661100Y-106273600D03*
X158661100Y-108813600D03*
X158661100Y-111353600D03*
%TD*%
D38*
%TO.C,IC6*%
X184594500Y-109448600D03*
X184594500Y-108178600D03*
X184594500Y-106908600D03*
X184594500Y-105638600D03*
X184594500Y-104368600D03*
X184594500Y-103098600D03*
X184594500Y-101828600D03*
X184594500Y-100558600D03*
X178447700Y-100558600D03*
X178447700Y-101828600D03*
X178447700Y-103098600D03*
X178447700Y-104368600D03*
X178447700Y-105638600D03*
X178447700Y-106908600D03*
X178447700Y-108178600D03*
X178447700Y-109448600D03*
%TD*%
D39*
%TO.C,LED_F0*%
X179879126Y-162525574D03*
X178083074Y-164321626D03*
%TD*%
D40*
%TO.C,@HOLE0*%
X148501100Y-165003600D03*
%TD*%
D38*
%TO.C,IC4*%
X184594500Y-75158600D03*
X184594500Y-73888600D03*
X184594500Y-72618600D03*
X184594500Y-71348600D03*
X184594500Y-70078600D03*
X184594500Y-68808600D03*
X184594500Y-67538600D03*
X184594500Y-66268600D03*
X178447700Y-66268600D03*
X178447700Y-67538600D03*
X178447700Y-68808600D03*
X178447700Y-70078600D03*
X178447700Y-71348600D03*
X178447700Y-72618600D03*
X178447700Y-73888600D03*
X178447700Y-75158600D03*
%TD*%
D39*
%TO.C,LED_A0*%
X90979126Y-73625574D03*
X89183074Y-75421626D03*
%TD*%
D14*
%TO.C,D8*%
X162241100Y-66903600D03*
X165241100Y-66903600D03*
%TD*%
D15*
%TO.C,SV5*%
X138341100Y-74523600D03*
X138341100Y-71983600D03*
X138341100Y-69443600D03*
X138341100Y-66903600D03*
X138341100Y-64363600D03*
X138341100Y-61823600D03*
%TD*%
D41*
%TO.C,D13*%
X138341100Y-147993100D03*
D42*
X138341100Y-143294100D03*
%TD*%
D13*
%TO.C,D17*%
X134761100Y-103733600D03*
X131761100Y-103733600D03*
%TD*%
D10*
%TO.C,@HOLE1*%
X138501100Y-155003600D03*
%TD*%
D26*
%TO.C,PH8*%
X95268537Y-143211037D03*
X92793663Y-140736163D03*
%TD*%
D43*
%TO.C,LED_H0*%
X90979126Y-136381626D03*
X89183074Y-134585574D03*
%TD*%
D17*
%TO.C,C4*%
X131861100Y-143103600D03*
X134661100Y-143103600D03*
%TD*%
%TO.C,C3*%
X131861100Y-148183600D03*
X134661100Y-148183600D03*
%TD*%
D44*
%TO.C,C6*%
X165141100Y-148183600D03*
X162341100Y-148183600D03*
%TD*%
%TO.C,C5*%
X165141100Y-143103600D03*
X162341100Y-143103600D03*
%TD*%
D21*
%TO.C,@HOLE3*%
X85501100Y-105003600D03*
%TD*%
D14*
%TO.C,D23*%
X162241100Y-103733600D03*
X165241100Y-103733600D03*
%TD*%
D13*
%TO.C,D19*%
X134761100Y-98653600D03*
X131761100Y-98653600D03*
%TD*%
D23*
%TO.C,U$20*%
X152081100Y-88493600D03*
X152081100Y-89763600D03*
X152081100Y-91033600D03*
X152081100Y-92303600D03*
X152081100Y-93573600D03*
X155081100Y-93573600D03*
X155081100Y-92303600D03*
X155081100Y-91033600D03*
X155081100Y-89763600D03*
X155081100Y-88493600D03*
%TD*%
D10*
%TO.C,@HOLE2*%
X158501100Y-155003600D03*
%TD*%
D14*
%TO.C,D9*%
X162241100Y-69443600D03*
X165241100Y-69443600D03*
%TD*%
D45*
%TO.C,LED_E0*%
X206023074Y-136381626D03*
X207819126Y-134585574D03*
%TD*%
D46*
%TO.C,IC7*%
X152946100Y-119710200D03*
X151676100Y-119710200D03*
X150406100Y-119710200D03*
X149136100Y-119710200D03*
X147866100Y-119710200D03*
X146596100Y-119710200D03*
X145326100Y-119710200D03*
X144056100Y-119710200D03*
X144056100Y-125857000D03*
X145326100Y-125857000D03*
X146596100Y-125857000D03*
X147866100Y-125857000D03*
X149136100Y-125857000D03*
X150406100Y-125857000D03*
X151676100Y-125857000D03*
X152946100Y-125857000D03*
%TD*%
D21*
%TO.C,@HOLE5*%
X148501100Y-42003600D03*
%TD*%
D14*
%TO.C,D12*%
X162241100Y-77063600D03*
X165241100Y-77063600D03*
%TD*%
D19*
%TO.C,R6*%
X181267151Y-151677549D03*
X181267151Y-155269651D03*
X177675049Y-155269651D03*
%TD*%
D13*
%TO.C,D15*%
X134761100Y-108813600D03*
X131761100Y-108813600D03*
%TD*%
D45*
%TO.C,LED_B0*%
X117123074Y-47481626D03*
X118919126Y-45685574D03*
%TD*%
D13*
%TO.C,D5*%
X134761100Y-64363600D03*
X131761100Y-64363600D03*
%TD*%
D27*
%TO.C,SV15*%
X161201100Y-83413600D03*
X163741100Y-83413600D03*
X166281100Y-83413600D03*
X168821100Y-83413600D03*
X171361100Y-83413600D03*
X173901100Y-83413600D03*
%TD*%
D31*
%TO.C,U$5*%
X174131100Y-73253600D03*
X174131100Y-71983600D03*
X174131100Y-70713600D03*
X174131100Y-69443600D03*
X174131100Y-68173600D03*
X171131100Y-68173600D03*
X171131100Y-69443600D03*
X171131100Y-70713600D03*
X171131100Y-71983600D03*
X171131100Y-73253600D03*
%TD*%
D14*
%TO.C,D7*%
X162241100Y-64363600D03*
X165241100Y-64363600D03*
%TD*%
D47*
%TO.C,SV11*%
X198711228Y-146233472D03*
X196915177Y-148029523D03*
X195119126Y-149825574D03*
X193323074Y-151621626D03*
X191527023Y-153417677D03*
X189730972Y-155213728D03*
%TD*%
D23*
%TO.C,U$10*%
X152081100Y-54203600D03*
X152081100Y-55473600D03*
X152081100Y-56743600D03*
X152081100Y-58013600D03*
X152081100Y-59283600D03*
X155081100Y-59283600D03*
X155081100Y-58013600D03*
X155081100Y-56743600D03*
X155081100Y-55473600D03*
X155081100Y-54203600D03*
%TD*%
D14*
%TO.C,D24*%
X162241100Y-106273600D03*
X165241100Y-106273600D03*
%TD*%
D19*
%TO.C,R11*%
X171361100Y-137643600D03*
X173901100Y-135103600D03*
X176441100Y-137643600D03*
%TD*%
D13*
%TO.C,D1*%
X134761100Y-74523600D03*
X131761100Y-74523600D03*
%TD*%
D19*
%TO.C,R1*%
X98235049Y-75829651D03*
X98235049Y-72237549D03*
X101827151Y-72237549D03*
%TD*%
D15*
%TO.C,SV6*%
X158661100Y-64363600D03*
X158661100Y-66903600D03*
X158661100Y-69443600D03*
X158661100Y-71983600D03*
X158661100Y-74523600D03*
X158661100Y-77063600D03*
%TD*%
D43*
%TO.C,LED_C0*%
X179879126Y-47481626D03*
X178083074Y-45685574D03*
%TD*%
D26*
%TO.C,PH5*%
X201733663Y-143211037D03*
X204208537Y-140736163D03*
%TD*%
D19*
%TO.C,R7*%
X119327151Y-155269651D03*
X115735049Y-155269651D03*
X115735049Y-151677549D03*
%TD*%
D26*
%TO.C,PH6*%
X186708537Y-158236163D03*
X184233663Y-160711037D03*
%TD*%
D48*
%TO.C,LED_D0*%
X206023074Y-73625574D03*
X207819126Y-75421626D03*
%TD*%
D13*
%TO.C,D6*%
X134761100Y-61823600D03*
X131761100Y-61823600D03*
%TD*%
D49*
%TO.C,U$4*%
X145961100Y-116917600D03*
X147231100Y-116917600D03*
X148501100Y-116917600D03*
X149771100Y-116917600D03*
X151041100Y-116917600D03*
X151041100Y-113917600D03*
X149771100Y-113917600D03*
X148501100Y-113917600D03*
X147231100Y-113917600D03*
X145961100Y-113917600D03*
%TD*%
D48*
%TO.C,LED_G0*%
X117123074Y-162525574D03*
X118919126Y-164321626D03*
%TD*%
D19*
%TO.C,R3*%
X177675049Y-54737549D03*
X181267151Y-54737549D03*
X181267151Y-58329651D03*
%TD*%
M02*
